<svg width="1880" height="1040" viewBox="0 0 1880 1040" fill="none" xmlns="http://www.w3.org/2000/svg">
<rect x="-1" y="-1" width="1038" height="1878" rx="19" transform="matrix(4.37114e-08 -1 -1 -4.37114e-08 1878 1038)" stroke="url(#paint0_linear_837_4940)" stroke-opacity="0.07" stroke-width="2"/>
<rect x="-1" y="-1" width="1038" height="1878" rx="19" transform="matrix(4.37114e-08 -1 -1 -4.37114e-08 1878 1038)" stroke="url(#paint1_linear_837_4940)" stroke-opacity="0.3" stroke-width="2"/>
<rect x="-1" y="-1" width="1038" height="1878" rx="19" transform="matrix(4.37114e-08 -1 -1 -4.37114e-08 1878 1038)" stroke="url(#paint2_linear_837_4940)" stroke-opacity="0.2" stroke-width="2"/>
<rect x="-1" y="-1" width="1038" height="1878" rx="19" transform="matrix(4.37114e-08 -1 -1 -4.37114e-08 1878 1038)" stroke="url(#paint3_linear_837_4940)" stroke-opacity="0.07" stroke-width="2"/>
<defs>
<linearGradient id="paint0_linear_837_4940" x1="317.002" y1="1372.5" x2="24.0019" y2="1613.5" gradientUnits="userSpaceOnUse">
<stop stop-color="white"/>
<stop offset="1" stop-color="white" stop-opacity="0"/>
</linearGradient>
<linearGradient id="paint1_linear_837_4940" x1="0.0019673" y1="-0.500002" x2="134.002" y2="122.5" gradientUnits="userSpaceOnUse">
<stop stop-color="#00D9B2"/>
<stop offset="1" stop-color="#00D9B2" stop-opacity="0"/>
</linearGradient>
<linearGradient id="paint2_linear_837_4940" x1="1040" y1="1880" x2="874.502" y2="1750" gradientUnits="userSpaceOnUse">
<stop stop-color="#00D9B2"/>
<stop offset="1" stop-color="#00D9B2" stop-opacity="0"/>
</linearGradient>
<linearGradient id="paint3_linear_837_4940" x1="484.5" y1="1395.5" x2="-0.000201365" y2="1880" gradientUnits="userSpaceOnUse">
<stop stop-color="white" stop-opacity="0"/>
<stop offset="1" stop-color="white"/>
</linearGradient>
</defs>
</svg>