<svg width="654" height="628" viewBox="0 0 654 628" fill="none" xmlns="http://www.w3.org/2000/svg">
<g filter="url(#filter0_di_837_3722)">
<path d="M137 475C137 483.837 144.163 491 153 491H501C509.837 491 517 483.837 517 475V137H137V475Z" fill="#132623"/>
<path d="M137 475C137 483.837 144.163 491 153 491H501C509.837 491 517 483.837 517 475V137H137V475Z" fill="url(#paint0_radial_837_3722)" fill-opacity="0.15"/>
<path d="M138 475C138 483.284 144.716 490 153 490H501C509.284 490 516 483.284 516 475V138H138V475Z" stroke="url(#paint1_radial_837_3722)" stroke-opacity="0.65" stroke-width="2"/>
</g>
<defs>
<filter id="filter0_di_837_3722" x="0" y="0" width="654" height="628" filterUnits="userSpaceOnUse" color-interpolation-filters="sRGB">
<feFlood flood-opacity="0" result="BackgroundImageFix"/>
<feColorMatrix in="SourceAlpha" type="matrix" values="0 0 0 0 0 0 0 0 0 0 0 0 0 0 0 0 0 0 127 0" result="hardAlpha"/>
<feOffset/>
<feGaussianBlur stdDeviation="68.5"/>
<feComposite in2="hardAlpha" operator="out"/>
<feColorMatrix type="matrix" values="0 0 0 0 0 0 0 0 0 0 0 0 0 0 0 0 0 0 0.45 0"/>
<feBlend mode="normal" in2="BackgroundImageFix" result="effect1_dropShadow_837_3722"/>
<feBlend mode="normal" in="SourceGraphic" in2="effect1_dropShadow_837_3722" result="shape"/>
<feColorMatrix in="SourceAlpha" type="matrix" values="0 0 0 0 0 0 0 0 0 0 0 0 0 0 0 0 0 0 127 0" result="hardAlpha"/>
<feOffset/>
<feGaussianBlur stdDeviation="12.5"/>
<feComposite in2="hardAlpha" operator="arithmetic" k2="-1" k3="1"/>
<feColorMatrix type="matrix" values="0 0 0 0 0 0 0 0 0 0 0 0 0 0 0 0 0 0 0.03 0"/>
<feBlend mode="normal" in2="shape" result="effect2_innerShadow_837_3722"/>
</filter>
<radialGradient id="paint0_radial_837_3722" cx="0" cy="0" r="1" gradientUnits="userSpaceOnUse" gradientTransform="translate(147.612 517.448) rotate(-118.145) scale(247.459 287.714)">
<stop offset="0.0080693" stop-color="#00D9B2"/>
<stop offset="0.540792" stop-color="#00D9B2" stop-opacity="0.31"/>
<stop offset="1" stop-color="#00D9B2" stop-opacity="0"/>
</radialGradient>
<radialGradient id="paint1_radial_837_3722" cx="0" cy="0" r="1" gradientUnits="userSpaceOnUse" gradientTransform="translate(159.234 501.172) rotate(-60.1916) scale(240.918 259.451)">
<stop stop-color="#00A486"/>
<stop offset="1" stop-color="#00A486" stop-opacity="0"/>
</radialGradient>
</defs>
</svg>
