<svg width="20" height="20" viewBox="0 0 20 20" fill="none" xmlns="http://www.w3.org/2000/svg">
<path d="M4.99999 18.3334C4.54166 18.3334 4.14944 18.1703 3.82333 17.8442C3.49666 17.5175 3.33333 17.125 3.33333 16.6667V8.33337C3.33333 7.87504 3.49666 7.48254 3.82333 7.15587C4.14944 6.82976 4.54166 6.66671 4.99999 6.66671H5.83333V5.00004C5.83333 3.84726 6.23972 2.86449 7.0525 2.05171C7.86472 1.23949 8.84722 0.833374 9.99999 0.833374C11.1528 0.833374 12.1356 1.23949 12.9483 2.05171C13.7606 2.86449 14.1667 3.84726 14.1667 5.00004V6.66671H15C15.4583 6.66671 15.8508 6.82976 16.1775 7.15587C16.5036 7.48254 16.6667 7.87504 16.6667 8.33337V16.6667C16.6667 17.125 16.5036 17.5175 16.1775 17.8442C15.8508 18.1703 15.4583 18.3334 15 18.3334H4.99999ZM9.99999 14.1667C10.4583 14.1667 10.8508 14.0037 11.1775 13.6775C11.5036 13.3509 11.6667 12.9584 11.6667 12.5C11.6667 12.0417 11.5036 11.6492 11.1775 11.3225C10.8508 10.9964 10.4583 10.8334 9.99999 10.8334C9.54166 10.8334 9.14944 10.9964 8.82333 11.3225C8.49666 11.6492 8.33333 12.0417 8.33333 12.5C8.33333 12.9584 8.49666 13.3509 8.82333 13.6775C9.14944 14.0037 9.54166 14.1667 9.99999 14.1667ZM7.49999 6.66671H12.5V5.00004C12.5 4.3056 12.2569 3.71532 11.7708 3.22921C11.2847 2.7431 10.6944 2.50004 9.99999 2.50004C9.30555 2.50004 8.71527 2.7431 8.22916 3.22921C7.74305 3.71532 7.49999 4.3056 7.49999 5.00004V6.66671Z" fill="black"/>
</svg>