<svg width="34" height="34" viewBox="0 0 34 34" fill="none" xmlns="http://www.w3.org/2000/svg">
<g clip-path="url(#clip0_837_5046)">
<path d="M9.4917 17.0001C9.497 18.5702 9.69363 20.1337 10.0773 21.6562H16.1973V12.7029H9.99225C9.66578 14.1122 9.49788 15.5535 9.4917 17.0001Z" fill="white" fill-opacity="0.65"/>
<path d="M17.8027 12.7029V21.6562H23.9227C24.3223 20.1357 24.5348 18.5721 24.5555 17.0001C24.5524 15.5539 24.3877 14.1125 24.0644 12.7029H17.8027Z" fill="white" fill-opacity="0.65"/>
<path d="M17 1.88892C14.0113 1.88892 11.0898 2.77517 8.60475 4.4356C6.11974 6.09603 4.18291 8.45606 3.03919 11.2173C1.89546 13.9784 1.59621 17.0168 2.17928 19.9481C2.76234 22.8793 4.20154 25.5719 6.31486 27.6852C8.42819 29.7985 11.1207 31.2377 14.052 31.8208C16.9833 32.4038 20.0216 32.1046 22.7828 30.9609C25.544 29.8172 27.904 27.8803 29.5645 25.3953C31.2249 22.9103 32.1111 19.9887 32.1111 17C32.1111 12.9923 30.5191 9.14874 27.6852 6.31486C24.8513 3.48098 21.0077 1.88892 17 1.88892ZM28.5411 23.3372H25.1223C24.4758 25.361 23.5201 27.2725 22.2889 29.0039C21.3804 29.3999 20.4299 29.6914 19.4556 29.8728C21.2004 27.9768 22.5433 25.7472 23.4034 23.3184H17.8123V30.0711H16.2161V23.3372H10.5967C11.4556 25.7695 12.7986 28.0024 14.5445 29.9011C13.5903 29.7217 12.659 29.4366 11.7678 29.0511C10.5323 27.3052 9.5764 25.3775 8.93448 23.3372H5.45892C5.15721 22.7868 4.89525 22.2156 4.67503 21.6278H8.45281C8.09882 20.1104 7.9151 18.5582 7.90503 17C7.90556 15.5557 8.0575 14.1154 8.35837 12.7028H4.49559C4.6942 12.1168 4.93406 11.5455 5.21337 10.9934H8.8117C9.48687 8.74468 10.534 6.62498 11.9095 4.72225C12.7817 4.36082 13.6905 4.09483 14.62 3.92892C12.7412 5.94535 11.3233 8.34617 10.4645 10.965H16.2161V3.7778H17.8123V10.9934H23.5639C22.7067 8.3787 21.2921 5.98128 19.4178 3.96669C20.3458 4.12063 21.2546 4.37394 22.1284 4.72225C23.4959 6.61123 24.5396 8.71458 25.2167 10.9461H28.7773C29.0565 11.4983 29.2964 12.0696 29.495 12.6556H25.6606C25.9679 14.0833 26.1231 15.5396 26.1234 17C26.1185 18.5673 25.9379 20.1291 25.585 21.6561H29.3628C29.1291 22.2353 28.8546 22.7971 28.5411 23.3372Z" fill="white" fill-opacity="0.65"/>
</g>
<defs>
<clipPath id="clip0_837_5046">
<rect width="34" height="34" fill="white"/>
</clipPath>
</defs>
</svg>