<svg width="46" height="46" viewBox="0 0 46 46" fill="none" xmlns="http://www.w3.org/2000/svg">
<circle cx="23" cy="23" r="23" fill="white" fill-opacity="0.05"/>
<path d="M21.8855 14.5293H24.1146C24.3127 14.5293 24.4118 14.592 24.4118 14.7175V31.2822C24.4118 31.4077 24.3127 31.4705 24.1146 31.4705H21.8855C21.6874 31.4705 21.5883 31.4077 21.5883 31.2822V14.7175C21.5883 14.592 21.6874 14.5293 21.8855 14.5293Z" fill="white"/>
<path d="M15.4159 21.5881H30.5842C30.7046 21.5881 30.7648 21.6872 30.7648 21.8853V24.1144C30.7648 24.3126 30.7046 24.4116 30.5842 24.4116H15.4159C15.2955 24.4116 15.2354 24.3126 15.2354 24.1144V21.8853C15.2354 21.6872 15.2955 21.5881 15.4159 21.5881Z" fill="white"/>
</svg>