<svg width="34" height="34" viewBox="0 0 34 34" fill="none" xmlns="http://www.w3.org/2000/svg">
<path d="M21.6006 22.8225L23.9806 20.4425C24.3012 20.126 24.7067 19.9093 25.1481 19.8187C25.5894 19.7282 26.0476 19.7677 26.4669 19.9325L29.3675 21.0907C29.7912 21.2627 30.1546 21.5562 30.4117 21.9344C30.6689 22.3126 30.8083 22.7584 30.8125 23.2157V28.5282C30.81 28.8392 30.7446 29.1466 30.6202 29.4317C30.4959 29.7169 30.3151 29.9739 30.0887 30.1873C29.8624 30.4008 29.5952 30.5662 29.3033 30.6736C29.0113 30.7811 28.7007 30.8283 28.39 30.8125C8.06436 29.5482 3.96311 12.3357 3.18749 5.74817C3.15148 5.42468 3.18438 5.09723 3.28402 4.78736C3.38365 4.47749 3.54776 4.19224 3.76556 3.95035C3.98336 3.70847 4.2499 3.51544 4.54766 3.38396C4.84541 3.25249 5.16763 3.18555 5.49311 3.18754H10.625C11.0829 3.1889 11.53 3.32723 11.9087 3.58474C12.2874 3.84225 12.5804 4.20716 12.75 4.63254L13.9081 7.53317C14.0784 7.9508 14.1218 8.40935 14.033 8.85153C13.9442 9.29371 13.7271 9.69992 13.4087 10.0194L11.0287 12.3994C11.0287 12.3994 12.3994 21.675 21.6006 22.8225Z" fill="white" fill-opacity="0.65"/>
</svg>