<svg style="transform: scale(1.4)" width="38" height="38" viewBox="0 0 38 38" fill="none" xmlns="http://www.w3.org/2000/svg">
<g filter="url(#filter0_d_9738_63072)">
<path d="M20.6277 18.9992L25.5918 14.046C25.8092 13.8286 25.9313 13.5337 25.9313 13.2262C25.9313 12.9187 25.8092 12.6239 25.5918 12.4065C25.3744 12.189 25.0796 12.0669 24.7722 12.0669C24.4648 12.0669 24.1699 12.189 23.9525 12.4065L19 17.3713L14.0474 12.4065C13.8301 12.189 13.5352 12.0669 13.2278 12.0669C12.9204 12.0669 12.6255 12.189 12.4081 12.4065C12.1907 12.6239 12.0686 12.9187 12.0686 13.2262C12.0686 13.5337 12.1907 13.8286 12.4081 14.046L17.3722 18.9992L12.4081 23.9525C12.2999 24.0598 12.214 24.1875 12.1554 24.3282C12.0968 24.4689 12.0667 24.6198 12.0667 24.7723C12.0667 24.9247 12.0968 25.0756 12.1554 25.2163C12.214 25.357 12.2999 25.4847 12.4081 25.592C12.5155 25.7003 12.6431 25.7861 12.7838 25.8448C12.9245 25.9034 13.0754 25.9336 13.2278 25.9336C13.3802 25.9336 13.5311 25.9034 13.6718 25.8448C13.8124 25.7861 13.9401 25.7003 14.0474 25.592L19 20.6272L23.9525 25.592C24.0599 25.7003 24.1875 25.7861 24.3282 25.8448C24.4689 25.9034 24.6198 25.9336 24.7722 25.9336C24.9246 25.9336 25.0755 25.9034 25.2162 25.8448C25.3568 25.7861 25.4845 25.7003 25.5918 25.592C25.7 25.4847 25.7859 25.357 25.8445 25.2163C25.9031 25.0756 25.9333 24.9247 25.9333 24.7723C25.9333 24.6198 25.9031 24.4689 25.8445 24.3282C25.7859 24.1875 25.7 24.0598 25.5918 23.9525L20.6277 18.9992Z" fill="white"/>
</g>
<defs>
<filter id="filter0_d_9738_63072" x="0.0666504" y="0.0668945" width="37.8667" height="37.8667" filterUnits="userSpaceOnUse" color-interpolation-filters="sRGB">
<feFlood flood-opacity="0" result="BackgroundImageFix"/>
<feColorMatrix in="SourceAlpha" type="matrix" values="0 0 0 0 0 0 0 0 0 0 0 0 0 0 0 0 0 0 127 0" result="hardAlpha"/>
<feOffset/>
<feGaussianBlur stdDeviation="6"/>
<feComposite in2="hardAlpha" operator="out"/>
<feColorMatrix type="matrix" values="0 0 0 0 0 0 0 0 0 0 0 0 0 0 0 0 0 0 0.35 0"/>
<feBlend mode="normal" in2="BackgroundImageFix" result="effect1_dropShadow_9738_63072"/>
<feBlend mode="normal" in="SourceGraphic" in2="effect1_dropShadow_9738_63072" result="shape"/>
</filter>
</defs>
</svg>
