<svg width="22" height="22" viewBox="0 0 22 22" fill="none" xmlns="http://www.w3.org/2000/svg">
<path d="M11 0.166504C5.01996 0.166504 0.166626 5.01984 0.166626 10.9998C0.166626 16.9798 5.01996 21.8332 11 21.8332C16.98 21.8332 21.8333 16.9798 21.8333 10.9998C21.8333 5.01984 16.98 0.166504 11 0.166504ZM11 16.4165C10.4041 16.4165 9.91663 15.929 9.91663 15.3332V10.9998C9.91663 10.404 10.4041 9.9165 11 9.9165C11.5958 9.9165 12.0833 10.404 12.0833 10.9998V15.3332C12.0833 15.929 11.5958 16.4165 11 16.4165ZM12.0833 6.6665C12.0833 7.26481 11.5983 7.74984 11 7.74984V7.74984C10.4017 7.74984 9.91663 7.26481 9.91663 6.6665V6.6665C9.91663 6.0682 10.4017 5.58317 11 5.58317V5.58317C11.5983 5.58317 12.0833 6.0682 12.0833 6.6665V6.6665Z" fill="white"/>
</svg>
