<svg width="20" height="34" viewBox="0 0 20 34" fill="none" xmlns="http://www.w3.org/2000/svg">
<path d="M16.3211 0H3.67888C1.64608 0 0 1.57406 0 3.51791V30.484C0 32.4259 1.64608 34.0019 3.67888 34.0019H16.3231C18.3539 34.0019 20.002 32.4279 20.002 30.484V3.51791C20.002 1.57599 18.3559 0 16.3231 0H16.3211ZM10 32.6718C9.32375 32.6718 8.77708 32.1471 8.77708 31.5024C8.77708 30.8577 9.32577 30.333 10 30.333C10.6742 30.333 11.2229 30.8577 11.2229 31.5024C11.2229 32.1471 10.6742 32.6718 10 32.6718ZM18.3802 29.4288H1.61976V3.51791C1.61976 2.43175 2.541 1.54889 3.67888 1.54889H6.17129C6.86171 1.54889 7.49544 1.87802 7.90646 2.40852C8.38429 3.02226 9.14558 3.42304 10 3.42304C10.8544 3.42304 11.6157 3.02226 12.0935 2.40852C12.5046 1.87802 13.1403 1.54889 13.8287 1.54889H16.3211C17.457 1.54889 18.3802 2.42982 18.3802 3.51791V29.4288Z" fill="white"/>
</svg>
