<svg width="20" height="18" viewBox="0 0 20 18" fill="none" xmlns="http://www.w3.org/2000/svg">
<path d="M19.7142 14.768L11.9066 1.09985C11.7115 0.764984 11.433 0.487331 11.0986 0.294411C10.7643 0.10149 10.3857 0 10.0004 0C9.6152 0 9.23663 0.10149 8.90228 0.294411C8.56793 0.487331 8.2894 0.764984 8.09429 1.09985L0.286657 14.768C0.0989313 15.0919 0 15.4603 0 15.8354C0 16.2105 0.0989313 16.5789 0.286657 16.9028C0.479264 17.2397 0.757321 17.5188 1.0923 17.7116C1.42727 17.9044 1.8071 18.0039 2.19281 17.9999H17.8081C18.1935 18.0036 18.5729 17.904 18.9076 17.7112C19.2422 17.5184 19.52 17.2394 19.7124 16.9028C19.9004 16.5791 19.9997 16.2108 20 15.8356C20.0003 15.4605 19.9017 15.0921 19.7142 14.768ZM9.2862 7.19999C9.2862 7.00903 9.36145 6.8259 9.4954 6.69088C9.62934 6.55585 9.81101 6.48 10.0004 6.48C10.1899 6.48 10.3715 6.55585 10.5055 6.69088C10.6394 6.8259 10.7147 7.00903 10.7147 7.19999V10.8C10.7147 10.9909 10.6394 11.174 10.5055 11.3091C10.3715 11.4441 10.1899 11.5199 10.0004 11.5199C9.81101 11.5199 9.62934 11.4441 9.4954 11.3091C9.36145 11.174 9.2862 10.9909 9.2862 10.8V7.19999ZM10.0004 15.1199C9.78855 15.1199 9.58141 15.0566 9.40522 14.9379C9.22904 14.8192 9.09171 14.6506 9.01063 14.4532C8.92954 14.2559 8.90832 14.0387 8.94966 13.8292C8.991 13.6197 9.09304 13.4273 9.24287 13.2763C9.3927 13.1252 9.5836 13.0224 9.79143 12.9807C9.99926 12.939 10.2147 12.9604 10.4104 13.0421C10.6062 13.1239 10.7735 13.2623 10.8913 13.4399C11.009 13.6175 11.0718 13.8263 11.0718 14.0399C11.0718 14.3264 10.9589 14.6011 10.758 14.8036C10.5571 15.0061 10.2846 15.1199 10.0004 15.1199Z" fill="white"/>
</svg>
