<svg width="15" height="20" viewBox="0 0 15 20" fill="none" xmlns="http://www.w3.org/2000/svg">
	<g clip-path="url(#clip0_320_434)">
		<path d="M11.4213 3.67347C10.8883 1.85529 9.36548 0 7.38579 0C5.36802 0 3.80711 1.9295 3.31218 3.82189C1.33249 5.04638 0 7.16141 0 9.57328V19.2579C0 19.666 0.380711 20 0.799492 20H14.1624C14.6193 20 14.9619 19.666 14.9619 19.2579V9.57328C15 7.05009 13.5533 4.89796 11.4213 3.67347ZM7.38579 0.779221C8.26142 0.779221 8.98477 1.74397 9.44162 2.89425C8.83249 2.74583 8.18528 2.63451 7.5 2.63451C6.73858 2.63451 6.01523 2.74583 5.32995 2.93135C5.74873 1.78108 6.51015 0.779221 7.38579 0.779221ZM13.1726 17.1429C13.1726 17.7737 12.6777 18.256 12.0305 18.256H3.12183C2.47462 18.256 1.9797 17.7737 1.9797 17.1429V13.1725H3.46447L3.27411 14.6568C3.23604 14.8052 3.38832 14.9536 3.61675 14.9536H4.11167C4.30203 14.9536 4.45431 14.8052 4.45431 14.6568L4.26396 13.1725H13.2487V17.1429H13.1726ZM13.1726 12.1707H1.9797V10.2783C1.9797 9.6475 2.47462 9.16512 3.12183 9.16512H12.0685C12.7157 9.16512 13.2107 9.6475 13.2107 10.2783V12.1707H13.1726Z" fill="white" />
	</g>
	<defs>
		<clipPath id="clip0_320_434">
			<rect width="15" height="20" fill="white" />
		</clipPath>
	</defs>
</svg>
