<svg width="43" height="58" viewBox="0 0 43 58" fill="none" xmlns="http://www.w3.org/2000/svg">
<g opacity="0.15" clip-path="url(#clip0_314_353)">
<path opacity="0.5" d="M40.599 58H2.29188C0.982233 58 0 56.9239 0 55.7402V26.0408C0 14.3117 9.60406 4.84229 21.5 4.84229C33.3959 4.84229 43 14.3117 43 26.0408V55.7402C43 56.9239 41.9086 58 40.599 58Z" fill="white"/>
<path d="M20.5178 8.07049H22.4822C31.6497 8.07049 39.5076 13.7736 42.5635 21.7365C40.599 12.0519 31.868 4.84229 21.5 4.84229C11.132 4.84229 2.40102 12.1595 0.436554 21.7365C3.49239 13.7736 11.3503 8.07049 20.5178 8.07049Z" fill="white"/>
<path d="M37.7614 35.295V29.8071C37.7614 27.9777 36.3427 26.5789 34.4873 26.5789H8.94925C7.09392 26.5789 5.67514 27.9777 5.67514 29.8071V35.295H37.7614Z" fill="white"/>
<path d="M12.1142 38.2004L12.6599 42.5046C12.769 42.9351 12.3325 43.3655 11.6777 43.3655H10.2589C9.71321 43.3655 9.27666 42.9351 9.27666 42.5046L9.82235 38.2004H5.67514V49.7143C5.67514 51.5436 7.09392 52.9425 8.94925 52.9425H34.5965C36.4518 52.9425 37.8706 51.5436 37.8706 49.7143V38.2004H12.1142Z" fill="white"/>
<g opacity="0.5">
<path d="M11.6777 9.25415L5.34772 12.2671V3.22817C5.34772 2.47492 6.00254 1.82928 6.7665 1.82928H10.2589C11.0228 1.82928 11.6777 2.47492 11.6777 3.22817V9.25415Z" fill="white"/>
<path d="M31.2132 9.25415L37.5431 12.2671V3.22817C37.5431 2.47492 36.8883 1.82928 36.1244 1.82928H32.7411C31.9772 1.82928 31.3223 2.47492 31.3223 3.22817V9.25415H31.2132Z" fill="white"/>
</g>
<path d="M26.0838 5.81076H24.1193C24.1193 3.87384 22.9188 0.860853 21.2817 0.860853C19.6447 0.860853 18.4442 3.87384 18.4442 5.81076H16.4797C16.4797 3.33581 18.5533 0 21.3909 0C24.0102 0 26.0838 3.33581 26.0838 5.81076Z" fill="white"/>
</g>
<defs>
<clipPath id="clip0_314_353">
<rect width="43" height="58" fill="white"/>
</clipPath>
</defs>
</svg>
