<svg width="74" height="74" viewBox="0 0 74 74" fill="none" xmlns="http://www.w3.org/2000/svg">
<path fill-rule="evenodd" clip-rule="evenodd" d="M26.3587 59.6748L26.3506 59.6718C23.2854 58.5168 20.7213 56.8825 18.6849 54.7556L18 54.0402L27.6105 44.6586L28.2872 45.614C28.8865 46.46 29.8166 47.2121 31.1453 47.8397C32.5127 48.4234 33.9096 48.712 35.3432 48.712C36.5963 48.712 37.615 48.4965 38.4318 48.1059C39.2553 47.712 39.8757 47.1723 40.3228 46.4882C40.7667 45.7671 40.9992 44.9317 40.9992 43.952C40.9992 42.983 40.7512 42.1548 40.2712 41.4347L40.2561 41.4121L40.2423 41.3887C39.8032 40.6456 39.1362 40.0495 38.1882 39.612L38.174 39.6054L38.16 39.5984C37.2255 39.1312 36.0232 38.872 34.5112 38.872C33.2517 38.872 32.0863 39.0685 31.0075 39.4537C29.8949 39.8511 28.9668 40.3381 28.2091 40.9046L27.5661 41.4129L27.5501 41.3988L26.5188 40.4947L21.8774 36.4255L24.288 14.0132L24.1521 13L53.0472 13V25.496H36.3849L36.0735 28.231C36.7769 28.1453 37.537 28.104 38.3512 28.104C42.0225 28.104 45.1747 28.834 47.7549 30.3545C50.2955 31.8516 52.2423 33.8616 53.5702 36.3786C54.8878 38.8336 55.5432 41.5132 55.5432 44.4C55.5432 47.6865 54.7304 50.6473 53.086 53.2519C51.4847 55.8133 49.2037 57.8103 46.2809 59.2492L46.2697 59.2547C43.3313 60.6561 39.8487 61.336 35.8552 61.336C32.6238 61.336 29.4595 60.7822 26.3669 59.6777L26.3587 59.6748ZM52.2392 52.72C53.7752 50.288 54.5432 47.5147 54.5432 44.4C54.5432 41.6693 53.9245 39.152 52.6872 36.848C51.4499 34.5013 49.6365 32.624 47.2472 31.216C44.8579 29.808 41.8925 29.104 38.3512 29.104C37.4728 29.104 36.6747 29.1542 35.957 29.2547C35.6289 29.3007 35.3177 29.3571 35.0232 29.424C34.9919 29.4297 34.9606 29.4355 34.9293 29.4415L35.4923 24.496H52.0472V14L25.2952 14L22.9272 36.016L27.5992 40.112C27.9507 39.8484 28.3311 39.6029 28.7405 39.3755C29.325 39.0508 29.9686 38.7629 30.6712 38.512C30.9732 38.4042 31.2806 38.31 31.5934 38.2294C32.5184 37.9911 33.491 37.872 34.5112 37.872C36.1325 37.872 37.4979 38.1493 38.6072 38.704C39.7165 39.216 40.5485 39.9413 41.1032 40.88C41.7005 41.776 41.9992 42.8 41.9992 43.952C41.9992 45.104 41.7219 46.128 41.1672 47.024C40.6125 47.8773 39.8445 48.5387 38.8632 49.008C37.8819 49.4773 36.7085 49.712 35.3432 49.712C33.7645 49.712 32.2285 49.392 30.7352 48.752C29.6642 48.248 28.7908 47.6509 28.1152 46.9609C27.8757 46.7163 27.661 46.46 27.4712 46.192L19.4072 54.064V54.064C19.6373 54.3044 19.8749 54.5384 20.1198 54.7659C21.9177 56.4363 24.1121 57.7597 26.7032 58.736C29.6899 59.8027 32.7405 60.336 35.8552 60.336C39.7379 60.336 43.0659 59.6747 45.8392 58.352C48.6125 56.9867 50.7459 55.1093 52.2392 52.72Z" fill="white" fill-opacity="0.15"/>
</svg>
