<svg width="64" height="25" viewBox="0 0 64 25" fill="none" xmlns="http://www.w3.org/2000/svg">
<g opacity="0.15" clip-path="url(#clip0_305_235)">
<path d="M62.6 8.9H62.4L61.2 8.6C61.2 8.3 61.1 8.1 61.1 7.8C60.4 4.6 57.7 1.2 50.4 1.2C49.4 1.2 48.4 1.2 47.4 1.3C47.1 0.8 45.3 0 32 0C19.3 0 16.8 0.8 16.2 1.3C15.2 1.3 14.1 1.2 13.1 1.2C5.8 1.2 3.1 4.6 2.4 7.8C2.4 8 2.3 8.3 2.3 8.5L0.9 8.9C0.4 8.9 0 9.3 0 9.7C0 10.2 0.4 10.6 0.9 10.6H2.1C1.9 14.5 2.5 20.2 6.7 22.7C8.7 23.9 10.7 24.5 12.6 24.5C15.9 24.5 19.2 22.8 22.7 19.2C28.1 13.6 28.8 10.6 28.6 8.1C28.9 7.9 29.8 7.5 31.9 7.5C33.9 7.5 34.8 7.9 35.1 8C34.8 10.6 35.6 13.6 41 19.2C44.5 22.8 47.8 24.5 51.1 24.5C53.1 24.5 55 23.9 57 22.7C61.1 20.2 61.8 14.5 61.6 10.6H62.8C63.3 10.6 63.7 10.2 63.7 9.7C63.5 9.3 63.1 8.9 62.6 8.9ZM21.4 18C18.3 21.2 15.4 22.8 12.6 22.8C11 22.8 9.3 22.3 7.6 21.2C5.7 20.1 4.5 18 4 15C3.7 13.2 3.7 11.3 3.9 9.8C4.8 9.5 5.9 9.7 6.2 10.2L10.6 18C11.1 18.9 12.2 19.2 13.1 18.6L13.2 18.5C13.8 18.2 13.9 17.4 13.5 16.9L7.6 9.3C7.1 8.6 6.2 8.2 5.3 8.2H4.1C4.8 4.8 8 3 13.1 3C22 3 26.2 4.4 26.7 7.6C27.1 9.7 27 12.2 21.4 18ZM35.4 6.3C34.7 6 33.6 5.8 31.8 5.8C30 5.8 28.9 6.1 28.1 6.4C27.2 4 24.8 2.8 21.7 2.1C24 1.8 27.2 1.7 32 1.7C36.7 1.7 39.8 1.8 41.9 1.9C38.8 2.6 36.3 3.9 35.4 6.3ZM59.5 15C59 18 57.8 20.1 55.9 21.2C54.1 22.3 52.5 22.8 50.9 22.8C48.1 22.8 45.2 21.2 42.1 18C36.5 12.2 36.4 9.7 36.8 7.6C37.3 4.4 41.5 3 50.4 3C55.5 3 58.7 4.8 59.4 8.2H59.3H57.9C57 8.2 56.2 8.6 55.7 9.3L49.8 16.9C49.4 17.4 49.5 18.2 50.1 18.5L50.2 18.6C51.1 19.1 52.2 18.9 52.7 18L57.1 10.2C57.4 9.7 58.8 9.5 59.6 9.9C59.8 11.3 59.8 13.2 59.5 15Z" fill="white"/>
<path opacity="0.5" d="M21.4 18C18.3 21.2 15.4 22.8 12.6 22.8C11 22.8 9.30001 22.3 7.60001 21.2C5.70001 20.1 4.50001 18 4.00001 15C3.70001 13.2 3.70001 11.3 3.90001 9.8C4.80001 9.5 5.90001 9.7 6.20001 10.2L10.6 18C11.1 18.9 12.2 19.2 13.1 18.6L13.2 18.5C13.8 18.2 13.9 17.4 13.5 16.9L7.60001 9.3C7.10001 8.6 6.20001 8.2 5.30001 8.2H4.10001C4.80001 4.8 8.00001 3 13.1 3C22 3 26.2 4.4 26.7 7.6C27.1 9.7 27 12.2 21.4 18Z" fill="white"/>
<path opacity="0.5" d="M59.5 15C59 18 57.8 20.1 55.9 21.2C54.1 22.3 52.5 22.8 50.9 22.8C48.1 22.8 45.2 21.2 42.1 18C36.5 12.2 36.4 9.7 36.8 7.6C37.3 4.4 41.5 3 50.4 3C55.5 3 58.7 4.8 59.4 8.2H59.3H57.9C57 8.2 56.2 8.6 55.7 9.3L49.8 16.9C49.4 17.4 49.5 18.2 50.1 18.5L50.2 18.6C51.1 19.1 52.2 18.9 52.7 18L57.1 10.2C57.4 9.7 58.8 9.5 59.6 9.9C59.8 11.3 59.8 13.2 59.5 15Z" fill="white"/>
</g>
<defs>
<clipPath id="clip0_305_235">
<rect width="63.5" height="24.5" fill="white"/>
</clipPath>
</defs>
</svg>
