<svg width="80" height="32" viewBox="0 0 80 32" fill="none" style="border: none; filter: none;" xmlns="http://www.w3.org/2000/svg">
    <g filter="url(#filter0_b_624_238)">
    <path fill-rule="evenodd" clip-rule="evenodd" d="M0 24.8767V1C0 0.447716 0.447715 0 1 0H5.1705C5.72279 0 6.1705 0.447715 6.1705 1V16.7534C6.1705 17.3057 6.61822 17.7534 7.1705 17.7534H11.341C11.8933 17.7534 12.341 17.3057 12.341 16.7534V8.12329C12.341 7.571 12.7887 7.12329 13.341 7.12329H17.5115C18.0638 7.12329 18.5115 7.571 18.5115 8.12329V20.3699C18.5115 20.9221 18.9592 21.3699 19.5115 21.3699H23.5737C24.126 21.3699 24.5737 21.8176 24.5737 22.3699V23.8767C24.5737 24.429 25.0215 24.8767 25.5737 24.8767H29.7442C30.2965 24.8767 30.7442 24.429 30.7442 23.8767V8.12329C30.7442 7.571 31.192 7.12329 31.7442 7.12329H35.9147C36.467 7.12329 36.9147 6.67557 36.9147 6.12329V1C36.9147 0.447715 37.3625 0 37.9147 0H42.0853C42.6375 0 43.0853 0.447715 43.0853 1V6.12329C43.0853 6.67557 43.533 7.12329 44.0853 7.12329H48.2558C48.808 7.12329 49.2558 7.571 49.2558 8.12329V23.8767C49.2558 24.429 49.7035 24.8767 50.2558 24.8767H54.4263C54.9785 24.8767 55.4263 24.429 55.4263 23.8767V22.3699C55.4263 21.8176 55.874 21.3699 56.4263 21.3699H60.4885C61.0408 21.3699 61.4885 20.9221 61.4885 20.3699V8.12329C61.4885 7.571 61.9362 7.12329 62.4885 7.12329H66.659C67.2113 7.12329 67.659 7.571 67.659 8.12329V16.7534C67.659 17.3057 68.1067 17.7534 68.659 17.7534H72.8295C73.3818 17.7534 73.8295 17.3057 73.8295 16.7534V1C73.8295 0.447715 74.2772 0 74.8295 0H79C79.5523 0 80 0.447715 80 1V26C80 29.3137 77.3137 32 74 32H73.8295H67.659H61.4885H55.4263H49.2558H43.0853H36.9147H30.7442H24.5737H18.5115H12.341H6.1705H6C2.68629 32 0 29.3137 0 26V24.8767Z" fill="white" fill-opacity="0.65"/>
    </g>
    <defs>
    <filter id="filter0_b_624_238" x="-4" y="-4" width="88" height="40" filterUnits="userSpaceOnUse" color-interpolation-filters="sRGB">
    <feFlood flood-opacity="0" result="BackgroundImageFix"/>
    <feGaussianBlur in="BackgroundImageFix" stdDeviation="2"/>
    <feComposite in2="SourceAlpha" operator="in" result="effect1_backgroundBlur_624_238"/>
    <feBlend mode="normal" in="SourceGraphic" in2="effect1_backgroundBlur_624_238" result="shape"/>
    </filter>
    </defs>
</svg>
