<svg width="59" height="58" viewBox="0 0 59 58" fill="none" xmlns="http://www.w3.org/2000/svg">
<g opacity="0.15" clip-path="url(#clip0_310_304)">
<path d="M28.5415 10.895C28.5415 10.895 28.7545 10.4678 27.2635 5.87477C25.7726 1.28177 26.1986 0 26.944 0H26.6245C26.1986 0 25.8791 0.106814 25.5596 0.427256L22.6841 3.20442C22.7906 9.61326 28.5415 10.895 28.5415 10.895Z" fill="white"/>
<path d="M31.7365 5.87477C30.2455 10.4678 30.4585 10.895 30.4585 10.895C30.4585 10.895 36.2094 9.61326 36.3159 3.20442L33.4404 0.427256C33.1209 0.106814 32.8014 0 32.3755 0H32.056C32.8014 0 33.2274 1.17495 31.7365 5.87477Z" fill="white"/>
<path d="M21.2996 29.1602L14.8032 40.0552C14.6967 40.2689 14.5902 40.5893 14.5902 40.9098L14.8032 43.5801C14.8032 43.9005 15.1227 44.0074 15.3357 43.7937L20.7671 39.2007C20.8736 39.0939 20.9801 38.9871 21.0866 38.7735L22.7906 34.7145C23.1101 33.86 23.1101 33.0055 22.6841 32.151L21.2996 29.1602Z" fill="white"/>
<path d="M37.7003 29.1602L44.1967 40.0552C44.3032 40.2689 44.4097 40.5893 44.4097 40.9098L44.1967 43.5801C44.1967 43.9005 43.8772 44.0074 43.6642 43.7937L38.2328 39.2007C38.1263 39.0939 38.0198 38.9871 37.9133 38.7735L36.2094 34.7145C35.8899 33.86 35.8899 33.0055 36.3159 32.151L37.7003 29.1602Z" fill="white"/>
<path d="M21.9386 49.4549H13.0993C13.3123 51.8048 13.6318 54.1547 14.0578 55.8637H24.6011L24.0686 51.4844C23.9621 50.3094 23.0036 49.4549 21.9386 49.4549Z" fill="white"/>
<path d="M34.7184 51.3775L34.1859 55.7569H44.9422C45.3682 54.1547 45.6877 51.698 45.9007 49.3481H36.8484C35.7834 49.4549 34.8249 50.3094 34.7184 51.3775Z" fill="white"/>
<g opacity="0.5">
<path d="M0.638989 51.3775L0 56.7182L5.21841 58.1068L7.24188 53.0866C6.38989 52.5525 4.15343 51.698 0.638989 51.3775Z" fill="white"/>
<path d="M58.4675 51.2707C54.9531 51.5912 52.7166 52.4457 51.7581 52.9797L53.7816 58L59 56.6114L58.4675 51.2707C58.361 51.3775 58.361 51.3775 58.4675 51.2707Z" fill="white"/>
</g>
<path d="M30.4585 10.895H28.5415V55.8637H30.4585V10.895Z" fill="white"/>
<path d="M13.0993 25.4217C13.5253 20.2947 15.4422 12.3904 13.3123 7.5838C12.8863 7.90424 12.5668 8.3315 12.2473 8.75876C10.5433 11.2155 6.92237 17.8379 3.08843 31.8306C-0.745502 45.8232 0.425978 50.9503 0.638974 51.3775C4.15341 51.8048 6.38988 52.6593 7.34836 53.0866C7.34836 53.0866 9.37183 52.6593 12.6733 42.4052C12.5668 42.2984 12.5668 30.5488 13.0993 25.4217Z" fill="white"/>
<path d="M55.9115 31.7238C52.0776 17.7311 48.3502 11.1087 46.7527 8.65194C46.4332 8.22469 46.1137 7.79743 45.6877 7.47699C43.6642 12.2836 45.4747 20.2947 45.9007 25.4217C46.3267 30.6556 46.3267 42.2984 46.3267 42.2984C49.5216 52.1252 51.4386 52.9798 51.6516 52.9798C52.6101 52.5525 54.9531 51.698 58.361 51.2707C58.574 50.7367 59.7455 45.6096 55.9115 31.7238Z" fill="white"/>
<path opacity="0.5" d="M45.9007 25.4217C45.4747 20.2947 43.6642 12.2836 45.6877 7.58379C45.3682 7.37017 44.9422 7.04972 44.6227 6.94291L36.3159 3.20442L33.4404 0.427256C33.1209 0.106814 32.8014 0 32.3754 0H26.6245C26.1985 0 25.879 0.106814 25.5595 0.427256L22.6841 3.20442L14.4837 6.8361C14.0577 7.04972 13.7382 7.26335 13.4187 7.47698C15.4422 12.2836 13.6317 20.1878 13.2057 25.3149C12.7798 30.5488 12.7798 42.1915 12.7798 42.1915C12.7798 42.1915 13.0992 51.4844 14.1642 55.7569H27.4765H29.5H45.0487C46.1137 51.698 46.4332 42.8324 46.4332 42.2983C46.4332 42.2983 46.4332 30.5488 45.9007 25.4217Z" fill="white"/>
</g>
<defs>
<clipPath id="clip0_310_304">
<rect width="59" height="58" fill="white"/>
</clipPath>
</defs>
</svg>
