<svg width="7" height="13" viewBox="0 0 7 13" fill="none" xmlns="http://www.w3.org/2000/svg">
	<path d="M4.41304 11.6246C4.89493 12.1515 5.4463 12.2691 6.06717 11.9773C6.68906 11.6867 7 11.167 7 10.4182V1.84845C7 1.09964 6.68906 0.57991 6.06717 0.289261C5.4463 -0.00249721 4.89493 0.115093 4.41304 0.642033L0.456522 4.96849C0.304348 5.13489 0.190218 5.31516 0.114131 5.50929C0.038044 5.70343 -4.76837e-07 5.91143 -4.76837e-07 6.1333C-4.76837e-07 6.35517 0.038044 6.56317 0.114131 6.75731C0.190218 6.95144 0.304348 7.13171 0.456522 7.29811L4.41304 11.6246Z" fill="black" />
</svg>
