<svg width="14" height="15" viewBox="0 0 14 15" fill="none" xmlns="http://www.w3.org/2000/svg">
	<path d="M10.3889 6.05556V4.61111C10.3889 2.61675 8.77214 1 6.77778 1C4.78342 1 3.16667 2.61675 3.16667 4.61111V6.05556M4.46667 14H9.08889C10.3023 14 10.9091 14 11.3725 13.7638C11.7802 13.5561 12.1117 13.2247 12.3194 12.817C12.5556 12.3535 12.5556 11.7468 12.5556 10.5333V9.52222C12.5556 8.30878 12.5556 7.70205 12.3194 7.23858C12.1117 6.83089 11.7802 6.49943 11.3725 6.29171C10.9091 6.05556 10.3023 6.05556 9.08889 6.05556H4.46667C3.25322 6.05556 2.6465 6.05556 2.18302 6.29171C1.77534 6.49943 1.44388 6.83089 1.23615 7.23858C1 7.70205 1 8.30878 1 9.52222V10.5333C1 11.7468 1 12.3535 1.23615 12.817C1.44388 13.2247 1.77534 13.5561 2.18302 13.7638C2.6465 14 3.25322 14 4.46667 14Z" stroke="white" stroke-linecap="round" stroke-linejoin="round" />
</svg>