<svg width="44" height="44" viewBox="0 0 44 44" fill="none" xmlns="http://www.w3.org/2000/svg">
	<path d="M11 40.3333C9.99171 40.3333 9.12882 39.9746 8.41137 39.2571C7.69271 38.5385 7.33337 37.675 7.33337 36.6666V18.3333C7.33337 17.325 7.69271 16.4615 8.41137 15.7428C9.12882 15.0254 9.99171 14.6666 11 14.6666H12.8334V11C12.8334 8.46387 13.7274 6.30176 15.5155 4.51365C17.3024 2.72676 19.4639 1.83331 22 1.83331C24.5362 1.83331 26.6983 2.72676 28.4864 4.51365C30.2733 6.30176 31.1667 8.46387 31.1667 11V14.6666H33C34.0084 14.6666 34.8719 15.0254 35.5905 15.7428C36.308 16.4615 36.6667 17.325 36.6667 18.3333V36.6666C36.6667 37.675 36.308 38.5385 35.5905 39.2571C34.8719 39.9746 34.0084 40.3333 33 40.3333H11ZM22 31.1666C23.0084 31.1666 23.8719 30.8079 24.5905 30.0905C25.308 29.3718 25.6667 28.5083 25.6667 27.5C25.6667 26.4916 25.308 25.6281 24.5905 24.9095C23.8719 24.192 23.0084 23.8333 22 23.8333C20.9917 23.8333 20.1288 24.192 19.4114 24.9095C18.6927 25.6281 18.3334 26.4916 18.3334 27.5C18.3334 28.5083 18.6927 29.3718 19.4114 30.0905C20.1288 30.8079 20.9917 31.1666 22 31.1666ZM16.5 14.6666H27.5V11C27.5 9.4722 26.9653 8.17359 25.8959 7.10415C24.8264 6.0347 23.5278 5.49998 22 5.49998C20.4723 5.49998 19.1737 6.0347 18.1042 7.10415C17.0348 8.17359 16.5 9.4722 16.5 11V14.6666Z" fill="white" />
</svg>
