<svg width="36" height="36" viewBox="0 0 36 36" fill="none" xmlns="http://www.w3.org/2000/svg">
    <path d="M18 0.5C8.33475 0.5 0.5 8.33475 0.5 18C0.5 27.6652 8.33475 35.5 18 35.5C27.6652 35.5 35.5 27.6652 35.5 18C35.5 8.33475 27.6652 0.5 18 0.5ZM16.25 12.3125V23.6875C16.25 24.0356 16.1117 24.3694 15.8656 24.6156C15.6194 24.8617 15.2856 25 14.9375 25C14.5894 25 14.2556 24.8617 14.0094 24.6156C13.7633 24.3694 13.625 24.0356 13.625 23.6875V12.3125C13.625 11.9644 13.7633 11.6306 14.0094 11.3844C14.2556 11.1383 14.5894 11 14.9375 11C15.2856 11 15.6194 11.1383 15.8656 11.3844C16.1117 11.6306 16.25 11.9644 16.25 12.3125ZM26.75 12.3125V23.6875C26.75 24.0356 26.6117 24.3694 26.3656 24.6156C26.1194 24.8617 25.7856 25 25.4375 25C25.0894 25 24.7556 24.8617 24.5094 24.6156C24.2633 24.3694 24.125 24.0356 24.125 23.6875V12.3125C24.125 11.9644 24.2633 11.6306 24.5094 11.3844C24.7556 11.1383 25.0894 11 25.4375 11C25.7856 11 26.1194 11.1383 26.3656 11.3844C26.6117 11.6306 26.75 11.9644 26.75 12.3125ZM21.5 14.9375V21.0625C21.5 21.4106 21.3617 21.7444 21.1156 21.9906C20.8694 22.2367 20.5356 22.375 20.1875 22.375C19.8394 22.375 19.5056 22.2367 19.2594 21.9906C19.0133 21.7444 18.875 21.4106 18.875 21.0625V14.9375C18.875 14.5894 19.0133 14.2556 19.2594 14.0094C19.5056 13.7633 19.8394 13.625 20.1875 13.625C20.5356 13.625 20.8694 13.7633 21.1156 14.0094C21.3617 14.2556 21.5 14.5894 21.5 14.9375ZM11 15.8125V20.1875C11 20.5356 10.8617 20.8694 10.6156 21.1156C10.3694 21.3617 10.0356 21.5 9.6875 21.5C9.3394 21.5 9.00556 21.3617 8.75942 21.1156C8.51328 20.8694 8.375 20.5356 8.375 20.1875V15.8125C8.375 15.4644 8.51328 15.1306 8.75942 14.8844C9.00556 14.6383 9.3394 14.5 9.6875 14.5C10.0356 14.5 10.3694 14.6383 10.6156 14.8844C10.8617 15.1306 11 15.4644 11 15.8125Z" fill="#0BAA94" fill-opacity="1"/>
</svg>