<svg width="48" height="54" viewBox="0 0 48 54" fill="none" xmlns="http://www.w3.org/2000/svg">
<g opacity="0.15" clip-path="url(#clip0_305_249)">
<path opacity="0.4" d="M20.117 6.78486L24.0468 9.48021L27.9766 6.78486C28.6316 6.32014 29.0994 5.76248 29.3801 5.01893L29.9415 3.62479H26.8538H24.0468H18.152L18.7134 5.01893C18.9941 5.66954 19.462 6.32014 20.117 6.78486Z" fill="white"/>
<path d="M14.9707 10.1308C14.9707 10.1308 16.4678 9.85198 19.9298 8.08606C20.959 7.5284 22.1754 9.20138 22.1754 10.5955C22.1754 11.9897 22.1754 19.611 22.1754 19.611H26.1052C26.1052 19.611 26.1052 12.0826 26.1052 10.5955C26.1052 9.10843 27.3216 7.5284 28.3509 8.08606C31.7193 9.85198 33.3099 10.1308 33.3099 10.1308C33.3099 8.36489 32.7485 5.94837 32.3742 4.83305C32.3742 4.83305 31.4386 2.69535 31.0643 1.76592C30.2222 0.185886 27.6959 0 24.2339 0C24.1403 0 24.0468 0 23.9532 0C23.8596 0 23.7661 0 23.6725 0C20.2105 0 17.6842 0.185886 16.8421 1.76592C16.4678 2.60241 15.6257 4.55422 15.5321 4.83305C15.345 5.94837 14.7836 8.36489 14.9707 10.1308ZM24.0468 3.62479H26.8538H29.9415L29.3801 5.01893C29.0994 5.76248 28.538 6.32014 27.9766 6.78485L24.0468 9.48021L20.1169 6.78485C19.462 6.32014 18.9941 5.76248 18.7134 5.01893L18.152 3.62479H24.0468V3.62479Z" fill="white"/>
<path opacity="0.5" d="M37.8012 29.2771C38.269 26.6747 38.6433 22.3993 38.6433 22.3993C38.6433 22.3993 39.4854 21.3769 39.6725 20.8193C42.4795 14.4062 42.7602 10.8743 42.7602 9.4802C42.5731 9.29431 42.3859 9.20137 42.3859 9.20137L32.3742 4.83304C32.655 5.94836 33.2164 8.36488 33.1228 10.1308C33.1228 10.1308 31.6257 9.85197 28.1637 8.08605C27.1345 7.52839 25.9181 9.20137 25.9181 10.5955C25.9181 11.9897 25.9181 19.611 25.9181 19.611H21.9883C21.9883 19.611 21.9883 12.0826 21.9883 10.5955C21.9883 9.10843 20.7719 7.52839 19.7427 8.08605C16.3743 9.85197 14.7836 10.1308 14.7836 10.1308C14.5965 8.36488 15.2514 5.94836 15.5321 4.83304L5.61401 9.10843C5.61401 9.10843 5.52045 9.20137 5.33331 9.38726C5.33331 10.7814 5.61401 14.3132 8.42103 20.7263C8.70173 21.284 9.45027 22.3064 9.45027 22.3064C9.45027 22.3064 9.73097 26.5817 10.1988 29.1842C10.1988 29.1842 10.6666 29.9277 10.8538 34.7608C10.9473 38.0138 10.7602 41.1738 10.2924 44.3339C9.91811 46.8434 9.54384 50.0964 9.63741 52.1411C9.63741 52.1411 12.8187 53.8141 23.2047 53.8141C23.2982 53.8141 23.3918 53.8141 23.5789 53.8141C23.6725 53.8141 23.7661 53.8141 23.9532 53.8141C34.4327 53.7212 38.5497 52.1411 38.5497 52.1411C38.6433 50.0964 38.269 46.8434 37.8947 44.3339C37.4269 41.1738 37.2397 37.9208 37.3333 34.7608C37.3333 30.6712 37.7076 29.5559 37.8012 29.2771Z" fill="white"/>
<path d="M8.32747 20.8193C5.52045 14.4062 5.23975 10.8743 5.23975 9.48019C4.67835 10.0379 3.55554 11.5249 2.43273 15.0568C1.12279 19.2392 0.374256 22.864 -1.34164e-05 24.537C-0.0935807 24.8158 0.0935538 25.0947 0.374256 25.1876C0.842092 25.3735 1.6842 25.6523 2.43273 26.117C3.74268 26.9535 7.29823 29.0912 10.1988 29.2771C9.73098 26.6747 9.45028 22.3993 9.45028 22.3993C9.45028 22.3993 8.60817 21.3769 8.32747 20.8193Z" fill="white"/>
<path d="M39.6725 20.8193C39.3918 21.3769 38.6433 22.3993 38.6433 22.3993C38.6433 22.3993 38.269 26.6747 37.8011 29.2771V29.1842C40.7017 28.9983 44.2573 26.8606 45.5672 26.0241C46.4093 25.4664 47.1579 25.1876 47.6257 25.0947C47.9064 25.0017 48.0935 24.7229 48 24.4441C47.6257 22.7711 46.8772 19.2392 45.5672 14.8709C44.4444 11.432 43.3216 9.94493 42.7602 9.38727C42.7602 10.8744 42.4795 14.4062 39.6725 20.8193Z" fill="white"/>
</g>
<defs>
<clipPath id="clip0_305_249">
<rect width="48" height="54" fill="white"/>
</clipPath>
</defs>
</svg>
