<svg width="88" height="42" viewBox="0 0 88 42" fill="none" xmlns="http://www.w3.org/2000/svg">
	<path d="M51.4963 41.0668H83.4371C85.9536 41.0668 88.0001 39.0203 88.0001 36.5038V4.56297C88.0001 2.04649 85.9536 0 83.4371 0H51.4963C48.9798 0 46.9333 2.04649 46.9333 4.56297V18.2542H62.8992V11.261C62.8992 10.4131 63.8881 9.94999 64.5394 10.4928L75.6662 19.7652C76.146 20.165 76.146 20.9018 75.6662 21.3016L64.5394 30.574C63.8881 31.1168 62.8992 30.6536 62.8992 29.8058V22.8171H46.9333V36.5038C46.9333 39.0203 48.9798 41.0668 51.4963 41.0668Z" fill="white" />
	<path d="M36.5038 41.0668H4.56299C2.04651 41.0668 1.52588e-05 39.0203 1.52588e-05 36.5038V4.56297C1.52588e-05 2.04649 2.04651 0 4.56299 0H36.5038C39.0203 0 41.0668 2.04649 41.0668 4.56297V18.2542H25.1009V11.261C25.1009 10.4131 24.1121 9.94999 23.4607 10.4928L12.3339 19.7652C11.8541 20.165 11.8541 20.9018 12.3339 21.3016L23.4607 30.574C24.1121 31.1168 25.1009 30.6536 25.1009 29.8058V22.8171H41.0668V36.5038C41.0668 39.0203 39.0203 41.0668 36.5038 41.0668Z" fill="white" />
</svg>
