<svg width="18" height="18" viewBox="0 0 18 18" fill="none" xmlns="http://www.w3.org/2000/svg">
<g clip-path="url(#clip0_313_351)">
<path d="M17.0567 3.70909C16.6416 2.43636 16.2265 1.89091 16.0001 1.67273C15.9246 1.6 15.8869 1.56364 15.8869 1.56364L12.0756 0C12.0756 0 11.8114 3.2 8.98123 3.27273C6.15104 3.23636 5.88689 0 5.88689 0L2.11331 1.56364C2.11331 1.56364 2.07557 1.6 2.0001 1.67273C1.81142 1.89091 1.35859 2.43636 0.943496 3.70909C0.415194 5.27273 0.151043 6.58182 9.95161e-05 7.2C-0.0376363 7.30909 0.603873 7.81818 0.90576 8.03636C1.32085 8.29091 1.92463 8.50909 2.90576 8.69091L4.11331 6.47273C4.11331 6.47273 4.37746 10.2545 4.03784 12.8364C4.03784 12.8364 4.03784 12.8364 4.03784 12.8727C4.0001 13.4182 3.92463 13.9636 3.84916 14.5091C3.69821 15.4182 3.54727 16.6182 3.58501 17.3818C3.58501 17.3818 4.79255 18 8.71708 18C8.75482 18 8.79255 18 8.83029 18C8.86802 18 8.90576 18 8.9435 18C8.98123 18 9.01897 18 9.0567 18C9.09444 18 9.13218 18 9.16991 18C13.0944 17.9636 14.302 17.3818 14.302 17.3818C14.3397 16.6182 14.1888 15.4182 14.0378 14.5091C13.9624 13.9636 13.8869 13.4182 13.8492 12.8727C13.8492 12.8727 13.8492 12.8727 13.8492 12.8364C13.5473 10.2545 13.7737 6.47273 13.7737 6.47273L14.9812 8.69091C15.9624 8.50909 16.5661 8.29091 16.9812 8.03636C17.2831 7.85455 17.9246 7.30909 17.8869 7.2C17.8492 6.58182 17.585 5.27273 17.0567 3.70909Z" fill="white"/>
</g>
<defs>
<clipPath id="clip0_313_351">
<rect width="18" height="18" fill="white"/>
</clipPath>
</defs>
</svg>
