<svg width="14" height="14" viewBox="0 0 14 14" fill="none" xmlns="http://www.w3.org/2000/svg">
	<path d="M3.16667 6.27778V4.11111C3.16667 2.11675 4.78342 0.5 6.77778 0.5C8.5248 0.5 9.98207 1.7406 10.3167 3.38889M4.46667 13.5H9.08889C10.3023 13.5 10.9091 13.5 11.3725 13.2638C11.7802 13.0561 12.1117 12.7247 12.3194 12.317C12.5556 11.8535 12.5556 11.2468 12.5556 10.0333V9.74444C12.5556 8.531 12.5556 7.92427 12.3194 7.4608C12.1117 7.05311 11.7802 6.72166 11.3725 6.51393C10.9091 6.27778 10.3023 6.27778 9.08889 6.27778H4.46667C3.25322 6.27778 2.6465 6.27778 2.18302 6.51393C1.77534 6.72166 1.44388 7.05311 1.23615 7.4608C1 7.92427 1 8.531 1 9.74444V10.0333C1 11.2468 1 11.8535 1.23615 12.317C1.44388 12.7247 1.77534 13.0561 2.18302 13.2638C2.6465 13.5 3.25322 13.5 4.46667 13.5Z" stroke="white" stroke-linecap="round" stroke-linejoin="round" />
</svg>
