<svg width="46" height="42" viewBox="0 0 46 42" fill="none" xmlns="http://www.w3.org/2000/svg">
	<g filter="url(#filter0_i_286_316)">
		<path d="M23 0.75C25.3869 0.75 27.6761 1.69821 29.364 3.38604C31.0518 5.07387 32 7.36305 32 9.75C32 11.3925 31.5725 12.9225 30.785 14.25H36.5C38.6375 14.25 40.4375 15.7575 40.8875 17.76C45.41 35.7825 45.5 36.255 45.5 36.75C45.5 37.9435 45.0259 39.0881 44.182 39.932C43.3381 40.7759 42.1935 41.25 41 41.25H5C3.80652 41.25 2.66193 40.7759 1.81802 39.932C0.974105 39.0881 0.5 37.9435 0.5 36.75C0.5 36.255 0.59 35.7825 5.1125 17.76C5.5625 15.7575 7.3625 14.25 9.5 14.25H15.215C14.4107 12.8874 13.9908 11.3322 14 9.75C14 7.36305 14.9482 5.07387 16.636 3.38604C18.3239 1.69821 20.613 0.75 23 0.75ZM23 5.25C21.8065 5.25 20.6619 5.72411 19.818 6.56802C18.9741 7.41193 18.5 8.55653 18.5 9.75C18.5 10.9435 18.9741 12.0881 19.818 12.932C20.6619 13.7759 21.8065 14.25 23 14.25C24.1935 14.25 25.3381 13.7759 26.182 12.932C27.0259 12.0881 27.5 10.9435 27.5 9.75C27.5 8.55653 27.0259 7.41193 26.182 6.56802C25.3381 5.72411 24.1935 5.25 23 5.25Z" fill="white" fill-opacity="0.15" />
	</g>
	<defs>
		<filter id="filter0_i_286_316" x="0.5" y="0.75" width="45" height="40.5" filterUnits="userSpaceOnUse" color-interpolation-filters="sRGB">
			<feFlood flood-opacity="0" result="BackgroundImageFix" />
			<feBlend mode="normal" in="SourceGraphic" in2="BackgroundImageFix" result="shape" />
			<feColorMatrix in="SourceAlpha" type="matrix" values="0 0 0 0 0 0 0 0 0 0 0 0 0 0 0 0 0 0 127 0" result="hardAlpha" />
			<feOffset />
			<feGaussianBlur stdDeviation="16.5" />
			<feComposite in2="hardAlpha" operator="arithmetic" k2="-1" k3="1" />
			<feColorMatrix type="matrix" values="0 0 0 0 1 0 0 0 0 1 0 0 0 0 1 0 0 0 0.3 0" />
			<feBlend mode="normal" in2="shape" result="effect1_innerShadow_286_316" />
		</filter>
	</defs>
</svg>
