<svg width="20" height="20" viewBox="0 0 20 20" fill="none" xmlns="http://www.w3.org/2000/svg">
	<path d="M9.99984 2.5C10.8839 2.5 11.7317 2.85119 12.3569 3.47631C12.982 4.10143 13.3332 4.94928 13.3332 5.83333C13.3332 6.44167 13.1748 7.00833 12.8832 7.5H14.9998C15.7915 7.5 16.4582 8.05833 16.6248 8.8C18.2998 15.475 18.3332 15.65 18.3332 15.8333C18.3332 16.2754 18.1576 16.6993 17.845 17.0118C17.5325 17.3244 17.1085 17.5 16.6665 17.5H3.33317C2.89114 17.5 2.46722 17.3244 2.15466 17.0118C1.8421 16.6993 1.6665 16.2754 1.6665 15.8333C1.6665 15.65 1.69984 15.475 3.37484 8.8C3.5415 8.05833 4.20817 7.5 4.99984 7.5H7.1165C6.81861 6.99533 6.6631 6.41935 6.6665 5.83333C6.6665 4.94928 7.01769 4.10143 7.64281 3.47631C8.26794 2.85119 9.11578 2.5 9.99984 2.5M9.99984 4.16667C9.55781 4.16667 9.13389 4.34226 8.82133 4.65482C8.50877 4.96738 8.33317 5.39131 8.33317 5.83333C8.33317 6.27536 8.50877 6.69928 8.82133 7.01184C9.13389 7.3244 9.55781 7.5 9.99984 7.5C10.4419 7.5 10.8658 7.3244 11.1783 7.01184C11.4909 6.69928 11.6665 6.27536 11.6665 5.83333C11.6665 5.39131 11.4909 4.96738 11.1783 4.65482C10.8658 4.34226 10.4419 4.16667 9.99984 4.16667V4.16667Z" fill="#0BA08C" />
</svg>
