<svg width="145" height="63" viewBox="0 0 145 63" fill="none" xmlns="http://www.w3.org/2000/svg">
<g clip-path="url(#clip0_6268_51601)">
<path d="M15.7211 7.72401C15.7211 6.42334 15.4368 5.31439 14.8759 4.39339C14.3112 3.4724 13.4812 2.76567 12.3783 2.26946C11.2791 1.77325 9.91852 1.52515 8.30018 1.52515H1.6676V20.4714H6.28008V13.8928H8.30018C9.91852 13.8928 11.2791 13.6447 12.3783 13.1485C13.4774 12.6523 14.3112 11.938 14.8759 11.0095C15.4406 10.081 15.7211 8.98333 15.7211 7.72025V7.72401ZM10.4832 9.50962C9.95642 9.92313 9.22874 10.1336 8.30018 10.1336H6.28008V5.28807H8.30018C9.22874 5.28807 9.95642 5.49483 10.4832 5.9121C11.0101 6.32936 11.2754 6.93083 11.2754 7.72401C11.2754 8.5172 11.0101 9.09611 10.4832 9.50962Z" fill="white"/>
<path d="M14.5731 20.4713H19.7844L21.5657 16.8174H27.6563L29.4452 20.4713H34.6831L24.6167 0.333435L14.5731 20.4713ZM26.7467 13.3251H22.4981L24.6167 8.47955L26.7467 13.3251Z" fill="white"/>
<path d="M48.4105 13.1071C49.5021 12.5846 50.3283 11.8591 50.893 10.9268C51.4577 9.99829 51.7382 8.92692 51.7382 7.72023C51.7382 6.51354 51.4539 5.41586 50.893 4.48735C50.3283 3.55883 49.5021 2.83331 48.4105 2.30703C47.319 1.78074 45.9546 1.52136 44.3173 1.52136H37.3588V20.4676H41.9712V13.889H43.3622L47.482 20.4676H52.8866L47.9064 13.3176C48.0808 13.25 48.2476 13.1823 48.4105 13.1034V13.1071ZM41.9712 5.3933H43.9913C44.6091 5.3933 45.1435 5.49104 45.5869 5.69028C46.0342 5.88951 46.3753 6.17145 46.6103 6.54361C46.8452 6.91201 46.9665 7.35935 46.9665 7.88187C46.9665 8.4044 46.849 8.85174 46.6103 9.22014C46.3753 9.58854 46.0342 9.87047 45.5869 10.0584C45.1397 10.2464 44.6091 10.3441 43.9913 10.3441H41.9712V5.38955V5.3933Z" fill="white"/>
<path d="M53.6522 20.4713H58.8635L60.6448 16.8174H66.7354L68.5243 20.4713H73.7621L63.692 0.333435L53.6484 20.4713H53.6522ZM65.8258 13.3251H61.5771L63.6958 8.47955L65.8258 13.3251Z" fill="white"/>
<path d="M81.0463 1.52515H76.4376V20.4714H88.7174V16.5468H81.0463V1.52515Z" fill="white"/>
<path d="M96.1381 1.52515H91.5256V20.4714H103.805V16.5468H96.1381V1.52515Z" fill="white"/>
<path d="M109.673 1.52515H106.618V20.4714H109.673H111.037H119.307V16.7084H111.037V12.3515H118.761V8.67132H111.037V5.28807H119.307V1.52515H111.037H109.673Z" fill="white"/>
<path d="M128.365 16.5468V1.52515H123.752V20.4714H136.032V16.5468H128.365Z" fill="white"/>
<path d="M6.38954 41.8309C6.91635 42.6692 7.61372 43.3045 8.47785 43.7406C9.34198 44.1729 10.2933 44.3909 11.328 44.3909C12.2376 44.3909 13.0373 44.2744 13.7308 44.0375C14.4206 43.8045 15.0422 43.4962 15.588 43.1165C16.1337 42.7369 16.6151 42.3309 17.0358 41.8986V46.8231C16.2702 47.417 15.4364 47.8869 14.5268 48.229C13.6171 48.5711 12.4612 48.744 11.0627 48.744C9.53527 48.744 8.12538 48.5109 6.83297 48.041C5.54057 47.5711 4.43008 46.8945 3.50531 46.0111C2.57675 45.1277 1.86044 44.0789 1.34878 42.8722C0.840914 41.6617 0.583191 40.3197 0.583191 38.8386C0.583191 37.3575 0.837124 36.0155 1.34878 34.805C1.85665 33.5946 2.57675 32.5495 3.50531 31.6661C4.43387 30.7827 5.54436 30.1061 6.83297 29.6362C8.12159 29.1663 9.53527 28.9332 11.0627 28.9332C12.465 28.9332 13.6171 29.1061 14.5268 29.4482C15.4364 29.7903 16.274 30.2602 17.0358 30.8541V35.7786C16.6151 35.3463 16.1337 34.9366 15.588 34.5456C15.0422 34.1584 14.4244 33.8502 13.7308 33.6246C13.0373 33.3991 12.2376 33.2863 11.328 33.2863C10.2895 33.2863 9.33819 33.5043 8.47785 33.9366C7.61372 34.369 6.91635 35.0005 6.38954 35.8313C5.86272 36.662 5.59742 37.662 5.59742 38.8348C5.59742 40.0077 5.86272 40.9851 6.38954 41.8271V41.8309Z" fill="white"/>
<path d="M26.1732 29.3655V48.3117H21.4811V29.3655H26.1732Z" fill="white"/>
<path d="M28.9822 29.3655H44.1007V33.4517H38.8326V48.3117H34.2201V33.4517H28.9822V29.3655Z" fill="white"/>
<path d="M63.7211 29.3655L57.0354 40.5979V48.3117H52.3433V40.6242L45.6577 29.3655H50.9524L54.6894 36.4853L58.4264 29.3655H63.7211Z" fill="white"/>
<path d="M111.226 32.1472C110.897 32.3126 110.707 32.7148 110.574 33.0005C110.423 33.3275 110.305 33.6659 110.245 34.0117C110.18 34.3801 111.329 34.6884 111.435 34.335C111.533 33.9967 111.639 33.6621 111.799 33.3351C111.939 33.0456 112.212 32.7186 112.193 32.4103C112.193 32.4103 112.189 32.4103 112.185 32.4103C112.147 32.1171 111.484 32.0156 111.222 32.1472H111.226Z" fill="#57FFAF"/>
<path d="M128.588 36.8876C129.448 36.7109 130.282 36.4027 131.025 36.008C131.863 35.5644 133.026 34.7862 133.053 33.8916C133.076 33.0909 132.086 32.6473 131.226 32.5834C130.04 32.4931 129.088 33.2187 128.391 33.9479C127.91 34.4517 127.318 35.2411 126.924 36.0756C126.242 36.6921 125.537 37.2898 124.775 37.8424C124.328 38.1657 123.843 38.5341 123.377 38.8386C123.191 38.9589 122.501 39.4063 122.524 39.113C122.524 39.098 122.532 39.083 122.535 39.0679C122.74 38.0755 123.112 37.1094 123.445 36.1395C123.707 35.3727 124.351 34.1885 123.707 33.4818C123.491 33.245 123.081 33.0984 122.706 33.1472C121.872 33.2525 121.235 33.9743 120.705 34.4667C120.011 35.1133 119.367 35.7975 118.711 36.4666C117.821 37.3763 116.903 38.2747 115.865 39.0717C115.816 39.1093 115.634 39.2408 115.581 39.2747C115.494 39.3386 115.353 39.4551 115.19 39.5792C115.266 39.2333 115.391 38.8725 115.437 38.7221C115.619 38.1469 115.85 37.5831 116.07 37.0154C116.509 35.8764 117.07 34.7637 117.476 33.6171C117.605 33.2563 116.559 33.0082 116.327 33.3051C115.891 33.8615 115.501 34.4592 115.16 35.0795C114.811 35.7148 114.341 36.3049 113.784 36.8312C113.655 36.9553 113.526 37.0793 113.394 37.1921C112.844 37.6658 110.764 39.4626 110.146 40.0152C109.964 40.1806 108.906 40.8949 108.876 40.5716C108.876 39.8649 109.301 38.9063 109.49 38.4214C109.843 37.5229 110.559 36.6057 110.722 35.6809C110.775 35.3839 110.013 35.1622 109.763 35.3576C109.077 35.8989 108.641 36.7147 108.258 37.4177C107.838 38.1808 107.481 38.9927 107.337 39.8198C107.326 39.8949 107.311 39.9701 107.299 40.0453C106.318 40.9513 105.351 41.9362 104.237 42.7369C103.995 42.9136 103.703 43.1166 103.418 43.1955C103.085 43.2857 102.876 43.1166 102.831 42.8158C102.823 42.7594 102.823 42.6993 102.82 42.6429C102.82 42.5715 102.816 42.5038 102.82 42.4324C102.82 42.2933 102.835 42.1504 102.854 42.0114C102.892 41.7332 102.956 41.4588 103.032 41.1843C103.07 41.0377 103.111 40.8874 103.153 40.7408C103.634 39.0078 104.173 37.3199 104.832 35.6471C105.321 35.2787 105.776 34.8915 106.185 34.5682C107.572 33.4856 108.941 32.3879 110.161 31.1774C111.374 29.9783 112.537 28.6325 113.208 27.1739C113.432 26.689 113.598 26.1026 113.242 25.6439C112.871 25.1665 112.067 24.941 111.393 24.9861C109.82 25.0951 108.444 26.5311 107.584 27.5085C106.522 28.7114 105.708 30.0422 104.969 31.3879C104.248 32.6961 103.566 34.0344 102.998 35.399C102.437 35.8463 101.796 36.2974 101.08 36.3538C100.493 36.3989 101.209 36.8199 101.421 36.8538C101.774 36.9102 102.115 36.8989 102.452 36.8387C102.281 37.3387 102.134 37.8387 102.009 38.3462C101.201 39.0942 100.371 39.8235 99.4541 40.4851C99.0068 40.8084 98.4952 41.252 98.01 41.5377C97.8168 41.6505 97.1535 41.9625 97.2104 41.7106C97.415 40.7182 97.7864 39.7521 98.12 38.7822C98.3815 38.0154 99.0258 36.8312 98.3815 36.1245C98.1654 35.8877 97.7561 35.7411 97.3809 35.7899C96.5471 35.8952 95.9104 36.617 95.3798 37.1094C94.6862 37.756 94.0419 38.4401 93.3862 39.1093C92.4955 40.019 91.5784 40.9174 90.5399 41.7144C90.4906 41.752 90.3049 41.8835 90.2556 41.9211C90.1685 41.985 90.0282 42.1016 89.8653 42.2256C89.9411 41.8798 90.0661 41.5189 90.1116 41.3685C90.2935 40.7934 90.5247 40.2295 90.7445 39.6619C91.1842 38.5229 91.7451 37.4101 92.1506 36.2636C92.2795 35.9027 91.2335 35.6546 91.0023 35.9516C90.8507 36.1433 90.7066 36.3388 90.5664 36.5418C89.8956 37.1808 89.0693 37.8387 88.2659 38.3574C87.8565 38.6206 87.4358 38.8649 86.9924 39.083C87.3146 38.1545 87.5912 37.2147 87.8186 36.2673C88.1256 34.978 88.3341 33.6773 88.4629 32.3729C88.5956 31.0308 88.7131 29.6174 88.3492 28.3054C87.7656 26.2229 85.4726 24.7944 82.8158 25.6139C81.3756 26.0574 80.1665 27.001 79.0826 27.8769C77.8698 28.858 76.7744 29.9332 75.7549 31.0534C73.6136 33.4066 71.5631 35.9403 70.1987 38.6544C69.5051 40.034 68.9935 41.4663 68.8002 42.9399C68.641 44.1654 68.5576 45.3871 69.7705 46.2141C69.96 46.3419 70.7521 46.4021 70.4375 46.0675C69.6795 45.2593 70.1153 43.7819 70.3465 42.8496C70.6156 41.767 71.0022 40.6956 71.5025 39.6656C71.9611 38.7221 72.4993 37.8048 73.0905 36.9102C72.9124 37.2673 72.7532 37.6319 72.613 38.0154C72.1089 39.41 71.7564 40.831 71.5859 42.2707C71.4229 43.6391 71.4267 45.0187 71.6427 46.372C71.836 47.5862 72.1241 48.9809 72.8783 50.0372C74.3791 52.1423 77.7485 51.601 79.8103 50.2327C82.1336 48.6952 83.57 46.2291 84.7676 44.0563C85.4499 42.8158 86.0525 41.5415 86.5603 40.2483C87.1705 40.1656 87.8148 39.8686 88.281 39.6468C88.5691 39.5078 88.8457 39.3574 89.1186 39.1995C88.8571 39.8198 88.6335 40.4438 88.4554 41.0603C88.2848 41.643 88.065 42.5038 88.5084 43.0226C88.8268 43.3947 89.5355 43.5526 90.0548 43.3684C90.7408 43.1241 91.4268 42.4549 91.9498 42.0114C92.2947 41.7181 92.6396 41.4249 92.9655 41.1167C93.9471 40.1769 94.8492 39.1845 95.8005 38.2221C96.0809 37.9364 96.369 37.6545 96.6608 37.3725C96.7063 37.3274 96.7972 37.2297 96.9109 37.1132C96.7555 37.4628 96.5623 37.8048 96.4561 38.0492C96.1643 38.7108 95.8725 39.3687 95.6451 40.0491C95.3381 40.9738 94.9098 42.1768 96.2325 42.6203C97.415 43.0188 98.5975 42.267 99.4275 41.5903C100.182 40.9776 100.951 40.3724 101.713 39.7596C101.633 40.2859 101.576 40.8159 101.558 41.3497C101.52 42.47 101.675 44.5112 103.737 43.9849C104.65 43.7519 105.457 42.985 106.128 42.4512C106.625 42.0565 107.099 41.643 107.569 41.2257C107.599 41.252 107.629 41.2783 107.667 41.3046C108.164 41.6618 108.918 41.7557 109.543 41.549C110.225 41.3234 110.695 40.8122 111.18 40.3761C111.556 40.0416 111.927 39.707 112.287 39.3649C112.837 38.8461 113.401 38.3424 113.966 37.8387C113.902 38.0342 113.841 38.2296 113.784 38.4214C113.614 39.004 113.394 39.8649 113.837 40.3836C114.156 40.7558 114.864 40.9137 115.384 40.7295C116.07 40.4851 116.752 39.816 117.279 39.3724C117.624 39.0792 117.968 38.786 118.294 38.4777C119.276 37.5379 120.178 36.5455 121.129 35.5832C121.41 35.2975 121.698 35.0155 121.99 34.7336C122.035 34.6885 122.126 34.5908 122.24 34.4742C122.084 34.8238 121.891 35.1659 121.785 35.4103C121.493 36.0719 121.201 36.7297 120.974 37.4101C120.667 38.3349 120.239 39.5378 121.561 39.9814C122.744 40.3799 123.926 39.628 124.756 38.9514C125.332 38.4815 125.92 38.0191 126.5 37.5567C126.462 38.1996 126.667 38.7822 127.273 39.1845C127.959 39.6356 129.016 39.8047 129.881 39.5566C130.46 39.3912 131.211 39.0529 131.677 38.7371C132.499 38.1808 133.007 37.7259 133.079 37.3876C133.136 37.1244 132.56 36.9214 132.329 37.0793C131.624 37.5567 130.923 38.0605 130.153 38.4665C129.835 38.6319 129.301 38.91 128.899 38.9138C128.262 38.9213 128.277 38.5266 128.323 38.083C128.365 37.6808 128.459 37.2823 128.592 36.8876H128.588ZM129.881 34.6923C130.233 34.3013 130.798 33.6322 131.381 33.4517C132.003 33.2638 131.7 33.8427 131.518 34.1434C131.332 34.4517 131.025 34.7223 130.726 34.9592C130.206 35.3689 129.63 35.6546 129.024 35.8877C129.259 35.4629 129.543 35.0607 129.877 34.6885L129.881 34.6923ZM110.222 26.8318C110.419 26.6702 111.552 25.6853 111.829 25.7943C112.268 25.971 111.541 27.0799 111.396 27.3243C110.718 28.4708 109.824 29.5196 108.823 30.497C107.936 31.3616 106.97 32.1699 105.999 32.9706C107.046 30.7978 108.19 28.5272 110.225 26.8318H110.222ZM84.093 41.3159C83.1455 43.3759 81.9933 45.4435 80.5266 47.3043C79.8444 48.1689 79.0409 48.9921 78.0479 49.6274C77.5552 49.9432 77.0132 50.1988 76.4296 50.3717C75.6033 50.6161 74.8718 50.4883 74.5156 49.9883C73.7727 48.9433 73.534 47.5749 73.3596 46.372C73.1587 44.9961 73.1701 43.5902 73.3672 42.2031C73.5491 40.9024 73.8902 39.613 74.3488 38.3537C74.8264 37.0417 75.2471 35.7072 75.7928 34.4178C75.8762 34.2261 75.5048 34.0607 75.1978 34.0494C75.2584 33.978 75.3153 33.9028 75.3721 33.8276C76.9677 31.8616 78.7074 29.9519 80.7881 28.3092C81.7432 27.5574 82.8044 26.7228 84.0589 26.3507C84.779 26.1364 85.4006 26.1364 85.9009 26.6326C86.2799 27.0048 86.5035 27.4972 86.6437 27.9671C87.2767 30.1136 86.7498 32.6172 86.2761 34.79C85.791 37.0079 85.0709 39.1957 84.0968 41.3159H84.093Z" fill="#57FFAF"/>
</g>
<defs>
<clipPath id="clip0_6268_51601">
<rect width="144.113" height="62.4135" fill="white" transform="translate(0.576477 0.333313)"/>
</clipPath>
</defs>
</svg>
