<svg width="11" height="11" viewBox="0 0 11 11" fill="black" xmlns="http://www.w3.org/2000/svg">
<path d="M7.52546 6.65747H7.06829L6.90625 6.50122C7.26791 6.08106 7.53223 5.58616 7.68029 5.05192C7.82836 4.51768 7.85651 3.95732 7.76273 3.41094C7.49074 1.80214 6.14815 0.517421 4.52778 0.320662C3.95811 0.248593 3.37951 0.307798 2.83624 0.493746C2.29297 0.679693 1.79945 0.987455 1.39342 1.39348C0.987394 1.79951 0.679632 2.29304 0.493685 2.8363C0.307737 3.37957 0.248532 3.95817 0.320601 4.52784C0.51736 6.14821 1.80208 7.4908 3.41088 7.76279C3.95726 7.85657 4.51762 7.82842 5.05186 7.68036C5.58609 7.53229 6.081 7.26797 6.50116 6.90631L6.65741 7.06835V7.52552L9.1169 9.98501C9.35417 10.2223 9.7419 10.2223 9.97917 9.98501C10.2164 9.74775 10.2164 9.36001 9.97917 9.12275L7.52546 6.65747ZM4.05324 6.65747C2.61227 6.65747 1.44907 5.49427 1.44907 4.0533C1.44907 2.61233 2.61227 1.44913 4.05324 1.44913C5.49421 1.44913 6.65741 2.61233 6.65741 4.0533C6.65741 5.49427 5.49421 6.65747 4.05324 6.65747Z" fill="black"/>
</svg>
