<svg width="36" height="39" viewBox="0 0 36 39" fill="none" xmlns="http://www.w3.org/2000/svg">
<g id="mdi:food-apple" filter="url(#filter0_d_9009_60686)">
<path id="Vector" d="M25.3334 17.1667C27.1667 19.9167 22.5834 28.1667 20.7501 28.1667C18.9167 28.1667 18.9167 27.25 18.0001 27.25C17.0834 27.25 17.0834 28.1667 15.2501 28.1667C13.4167 28.1667 8.83339 19.9167 10.6667 17.1667C12.5001 14.4167 15.2501 14.4167 17.0834 15.3333V12.5833C11.9317 15.3975 10.7676 11.465 10.7676 11.465C10.7676 11.465 13.2059 8.17417 17.0834 12.5833V10.75H18.9167V15.3333C20.7501 14.4167 23.5001 14.4167 25.3334 17.1667Z" fill="white"/>
</g>
<defs>
<filter id="filter0_d_9009_60686" x="-3" y="-2" width="42" height="42" filterUnits="userSpaceOnUse" color-interpolation-filters="sRGB">
<feFlood flood-opacity="0" result="BackgroundImageFix"/>
<feColorMatrix in="SourceAlpha" type="matrix" values="0 0 0 0 0 0 0 0 0 0 0 0 0 0 0 0 0 0 127 0" result="hardAlpha"/>
<feOffset/>
<feGaussianBlur stdDeviation="5"/>
<feComposite in2="hardAlpha" operator="out"/>
<feColorMatrix type="matrix" values="0 0 0 0 1 0 0 0 0 1 0 0 0 0 1 0 0 0 0.25 0"/>
<feBlend mode="normal" in2="BackgroundImageFix" result="effect1_dropShadow_9009_60686"/>
<feBlend mode="normal" in="SourceGraphic" in2="effect1_dropShadow_9009_60686" result="shape"/>
</filter>
</defs>
</svg>
