<svg width="22" height="22" viewBox="0 0 22 22" fill="none" xmlns="http://www.w3.org/2000/svg">
<path d="M10.1429 14.6C10.1429 14.8387 10.2332 15.0676 10.3939 15.2364C10.5547 15.4052 10.7727 15.5 11 15.5C11.2273 15.5 11.4453 15.4052 11.6061 15.2364C11.7668 15.0676 11.8571 14.8387 11.8571 14.6H14.4286C15.0534 14.6 15.6389 14.4245 16.1429 14.1185V18.2C16.1429 18.6774 15.9622 19.1352 15.6408 19.4728C15.3193 19.8104 14.8832 20 14.4286 20H7.57143C7.11677 20 6.68074 19.8104 6.35925 19.4728C6.03775 19.1352 5.85714 18.6774 5.85714 18.2V14.1185C6.36114 14.4245 6.94657 14.6 7.57143 14.6H10.1429ZM11.8571 13.7V11C11.8571 10.7613 11.7668 10.5324 11.6061 10.3636C11.4453 10.1948 11.2273 10.1 11 10.1C10.7727 10.1 10.5547 10.1948 10.3939 10.3636C10.2332 10.5324 10.1429 10.7613 10.1429 11V13.7H7.57143C6.88944 13.7 6.23539 13.4155 5.75315 12.9092C5.27092 12.4028 5 11.7161 5 11V8.3C5 7.58392 5.27092 6.89716 5.75315 6.39081C6.23539 5.88446 6.88944 5.6 7.57143 5.6H14.4286C15.1106 5.6 15.7646 5.88446 16.2468 6.39081C16.7291 6.89716 17 7.58392 17 8.3V11C17 11.7161 16.7291 12.4028 16.2468 12.9092C15.7646 13.4155 15.1106 13.7 14.4286 13.7H11.8571ZM9.28571 4.7H7.57143C7.27571 4.7 6.98857 4.7396 6.71429 4.8134V3.35C6.71429 2.99196 6.84974 2.64858 7.09086 2.39541C7.33198 2.14223 7.65901 2 8 2C8.34099 2 8.66802 2.14223 8.90914 2.39541C9.15026 2.64858 9.28571 2.99196 9.28571 3.35V4.7ZM15.2857 4.8134C15.0057 4.73787 14.7177 4.69977 14.4286 4.7H12.7143V3.35C12.7143 2.99196 12.8497 2.64858 13.0909 2.39541C13.332 2.14223 13.659 2 14 2C14.341 2 14.668 2.14223 14.9091 2.39541C15.1503 2.64858 15.2857 2.99196 15.2857 3.35V4.8134Z" fill="white"/>
</svg>
