<svg width="20" height="20" viewBox="0 0 20 20" fill="none" xmlns="http://www.w3.org/2000/svg">
<path d="M18.3334 8.33325V14.1666C18.3334 14.8296 18.07 15.4655 17.6012 15.9344C17.1323 16.4032 16.4965 16.6666 15.8334 16.6666H4.16675C3.50371 16.6666 2.86782 16.4032 2.39898 15.9344C1.93014 15.4655 1.66675 14.8296 1.66675 14.1666V8.33325H18.3334ZM15.0001 11.6666H12.5001C12.2791 11.6666 12.0671 11.7544 11.9108 11.9107C11.7545 12.0669 11.6667 12.2789 11.6667 12.4999C11.6667 12.7209 11.7545 12.9329 11.9108 13.0892C12.0671 13.2455 12.2791 13.3333 12.5001 13.3333H15.0001C15.2211 13.3333 15.4331 13.2455 15.5893 13.0892C15.7456 12.9329 15.8334 12.7209 15.8334 12.4999C15.8334 12.2789 15.7456 12.0669 15.5893 11.9107C15.4331 11.7544 15.2211 11.6666 15.0001 11.6666ZM15.8334 3.33325C16.4965 3.33325 17.1323 3.59664 17.6012 4.06549C18.07 4.53433 18.3334 5.17021 18.3334 5.83325V6.66659H1.66675V5.83325C1.66675 5.17021 1.93014 4.53433 2.39898 4.06549C2.86782 3.59664 3.50371 3.33325 4.16675 3.33325H15.8334Z" fill="white" fill-opacity="0.65"/>
</svg>