<svg width="38" height="36" viewBox="0 0 38 36" fill="none" xmlns="http://www.w3.org/2000/svg">
<g id="ion:water" filter="url(#filter0_d_9009_60704)">
<path id="Vector" d="M16.5 10C15.5656 10 14.7906 10.6406 14.5687 11.5063C14.5437 11.5063 14.525 11.5 14.5 11.5C13.3969 11.5 12.5 12.3969 12.5 13.5C12.5 13.65 12.5187 13.7969 12.5531 13.9375C11.6406 14.3125 11 15.2062 11 16.25C11 16.6438 11.1 17.0094 11.2594 17.3406C10.5094 17.7719 10 18.5719 10 19.5C10 20.5406 10.6375 21.4344 11.5438 21.8094C11.5156 21.9531 11.5 22.1 11.5 22.25C11.5 23.4937 12.5063 24.5 13.75 24.5C13.8781 24.5 14.0031 24.4844 14.125 24.4625C14.425 25.3531 15.2563 26 16.25 26C17.4937 26 18.5 24.9937 18.5 23.75V12C18.5 10.8969 17.6031 10 16.5 10ZM28 19.5C28 18.5719 27.4906 17.7719 26.7406 17.3406C26.9031 17.0094 27 16.6438 27 16.25C27 15.2062 26.3594 14.3125 25.4469 13.9375C25.4781 13.7969 25.5 13.65 25.5 13.5C25.5 12.3969 24.6031 11.5 23.5 11.5C23.475 11.5 23.4531 11.5063 23.4312 11.5063C23.2094 10.6406 22.4344 10 21.5 10C20.3969 10 19.5 10.8937 19.5 12V23.75C19.5 24.9937 20.5063 26 21.75 26C22.7437 26 23.575 25.3531 23.875 24.4625C23.9969 24.4844 24.1219 24.5 24.25 24.5C25.4937 24.5 26.5 23.4937 26.5 22.25C26.5 22.1 26.4844 21.9531 26.4562 21.8094C27.3625 21.4344 28 20.5406 28 19.5Z" fill="white"/>
</g>
<defs>
<filter id="filter0_d_9009_60704" x="-2" y="-3" width="42" height="42" filterUnits="userSpaceOnUse" color-interpolation-filters="sRGB">
<feFlood flood-opacity="0" result="BackgroundImageFix"/>
<feColorMatrix in="SourceAlpha" type="matrix" values="0 0 0 0 0 0 0 0 0 0 0 0 0 0 0 0 0 0 127 0" result="hardAlpha"/>
<feOffset/>
<feGaussianBlur stdDeviation="5"/>
<feComposite in2="hardAlpha" operator="out"/>
<feColorMatrix type="matrix" values="0 0 0 0 1 0 0 0 0 1 0 0 0 0 1 0 0 0 0.25 0"/>
<feBlend mode="normal" in2="BackgroundImageFix" result="effect1_dropShadow_9009_60704"/>
<feBlend mode="normal" in="SourceGraphic" in2="effect1_dropShadow_9009_60704" result="shape"/>
</filter>
</defs>
</svg>
