<svg viewBox="0 0 46 46" fill="none" xmlns="http://www.w3.org/2000/svg">
    <path
        d="M23 1.35C25.8431 1.35 28.6584 1.90999 31.2851 2.99801C33.9118 4.08602 36.2985 5.68075 38.3089 7.69114C40.3193 9.70153 41.914 12.0882 43.002 14.7149C44.09 17.3416 44.65 20.1569 44.65 23C44.65 25.8431 44.09 28.6584 43.002 31.2851C41.914 33.9118 40.3192 36.2985 38.3089 38.3089C36.2985 40.3193 33.9118 41.914 31.2851 43.002C28.6584 44.09 25.8431 44.65 23 44.65C20.1569 44.65 17.3416 44.09 14.7149 43.002C12.0882 41.914 9.70152 40.3192 7.69113 38.3089C5.68074 36.2985 4.08602 33.9118 2.998 31.2851C1.90999 28.6584 1.35 25.8431 1.35 23C1.35 20.1569 1.91 17.3416 2.99801 14.7149C4.08603 12.0882 5.68076 9.70152 7.69115 7.69113C9.70154 5.68074 12.0882 4.08602 14.7149 2.998C17.3416 1.90999 20.1569 1.35 23 1.35L23 1.35Z"
        stroke="white" stroke-opacity=".5" stroke-width="1.5px" stroke-linecap="round" stroke-dasharray="6 6" />
</svg>