<svg width="14" height="15" viewBox="0 0 14 15" fill="none" xmlns="http://www.w3.org/2000/svg">
<path d="M0.334013 7.42579L13.6661 7.24092L13.7493 13.2403C13.7517 13.4171 13.6838 13.5877 13.5606 13.7144C13.4373 13.8412 13.2687 13.9137 13.0919 13.9162L1.09305 14.0826C0.916258 14.085 0.745731 14.0171 0.618986 13.8939C0.49224 13.7706 0.419658 13.602 0.417206 13.4252L0.334013 7.42579ZM10.2591 1.95432L12.9255 1.91734C13.1023 1.91489 13.2728 1.98277 13.3996 2.10605C13.5263 2.22933 13.5989 2.39791 13.6014 2.5747L13.6476 5.90771L0.315526 6.09259L0.269308 2.75957C0.266856 2.58278 0.334736 2.41225 0.458015 2.28551C0.581294 2.15876 0.749873 2.08618 0.926667 2.08373L3.59308 2.04675L3.57459 0.713547L4.90779 0.69506L4.92628 2.02827L8.9259 1.9728L8.90741 0.639598L10.2406 0.621111L10.2591 1.95432Z" fill="white"/>
</svg>