<svg width="22" height="22" viewBox="0 0 22 22" fill="none" xmlns="http://www.w3.org/2000/svg">
<path d="M11.0001 8.47852L13.3723 9.84808V12.5872L11.0001 13.9568L8.62796 12.5872V9.84808L11.0001 8.47852Z" fill="white"/>
<path d="M7.8695 13.9565L10.2417 15.3261V18.0652L7.8695 19.4348L5.49734 18.0652V15.3261L7.8695 13.9565Z" fill="white"/>
<path d="M14.1305 13.9565L11.7583 15.3261V18.0652L14.1305 19.4348L16.5027 18.0652V15.3261L14.1305 13.9565Z" fill="white"/>
<path d="M4.73913 8.47852L7.11129 9.84808V12.5872L4.73913 13.9568L2.36697 12.5872V9.84808L4.73913 8.47852Z" fill="white"/>
<path d="M17.2609 8.47852L14.8887 9.84808V12.5872L17.2609 13.9568L19.633 12.5872V9.84808L17.2609 8.47852Z" fill="white"/>
<path d="M7.8695 3L10.2417 4.36957V7.1087L7.8695 8.47826L5.49734 7.1087V4.36957L7.8695 3Z" fill="white"/>
<path d="M14.1305 3L11.7583 4.36957V7.1087L14.1305 8.47826L16.5027 7.1087V4.36957L14.1305 3Z" fill="white"/>
</svg>
