<svg width="22" height="22" viewBox="0 0 22 22" fill="none" xmlns="http://www.w3.org/2000/svg">
<path d="M11 3C12.8565 3 14.637 3.75231 15.9497 5.09144C17.2625 6.43056 18 8.2468 18 10.1406C18 12.5795 16.6964 14.5757 15.3229 16.0078C14.6365 16.7154 13.8877 17.3571 13.086 17.9247L12.7547 18.1548L12.5991 18.2603L12.3059 18.4507L12.0446 18.6133L11.721 18.8053C11.5013 18.9329 11.2528 19 11 19C10.7472 19 10.4987 18.9329 10.279 18.8053L9.95544 18.6133L9.551 18.3595L9.40167 18.2603L9.08278 18.0437C8.21787 17.4465 7.41216 16.7647 6.67711 16.0078C5.30356 14.5741 4 12.5795 4 10.1406C4 8.2468 4.7375 6.43056 6.05025 5.09144C7.36301 3.75231 9.14348 3 11 3ZM11 7.76041C10.6936 7.76041 10.3902 7.82197 10.1071 7.94159C9.82398 8.06121 9.56675 8.23653 9.35008 8.45755C9.13341 8.67858 8.96154 8.94097 8.84428 9.22975C8.72702 9.51853 8.66667 9.82804 8.66667 10.1406C8.66667 10.4532 8.72702 10.7627 8.84428 11.0515C8.96154 11.3403 9.13341 11.6026 9.35008 11.8237C9.56675 12.0447 9.82398 12.22 10.1071 12.3396C10.3902 12.4593 10.6936 12.5208 11 12.5208C11.6188 12.5208 12.2123 12.27 12.6499 11.8237C13.0875 11.3773 13.3333 10.7719 13.3333 10.1406C13.3333 9.50934 13.0875 8.90393 12.6499 8.45755C12.2123 8.01118 11.6188 7.76041 11 7.76041Z" fill="white"/>
</svg>
