<svg width="22" height="22" viewBox="0 0 22 22" fill="none" xmlns="http://www.w3.org/2000/svg">
<path d="M7.46418 4H4.2499C4.07238 4 3.92847 4.14391 3.92847 4.32143V7.53571C3.92847 7.71323 4.07238 7.85714 4.2499 7.85714H7.46418C7.6417 7.85714 7.78561 7.71323 7.78561 7.53571V4.32143C7.78561 4.14391 7.6417 4 7.46418 4Z" fill="white"/>
<path d="M12.6072 4H9.39296C9.21544 4 9.07153 4.14391 9.07153 4.32143V7.53571C9.07153 7.71323 9.21544 7.85714 9.39296 7.85714H12.6072C12.7848 7.85714 12.9287 7.71323 12.9287 7.53571V4.32143C12.9287 4.14391 12.7848 4 12.6072 4Z" fill="white"/>
<path d="M17.7501 4H14.5358C14.3583 4 14.2144 4.14391 14.2144 4.32143V7.53571C14.2144 7.71323 14.3583 7.85714 14.5358 7.85714H17.7501C17.9276 7.85714 18.0715 7.71323 18.0715 7.53571V4.32143C18.0715 4.14391 17.9276 4 17.7501 4Z" fill="white"/>
<path d="M7.46418 9.14282H4.2499C4.07238 9.14282 3.92847 9.28673 3.92847 9.46425V12.6785C3.92847 12.8561 4.07238 13 4.2499 13H7.46418C7.6417 13 7.78561 12.8561 7.78561 12.6785V9.46425C7.78561 9.28673 7.6417 9.14282 7.46418 9.14282Z" fill="white"/>
<path d="M12.6072 9.14282H9.39296C9.21544 9.14282 9.07153 9.28673 9.07153 9.46425V12.6785C9.07153 12.8561 9.21544 13 9.39296 13H12.6072C12.7848 13 12.9287 12.8561 12.9287 12.6785V9.46425C12.9287 9.28673 12.7848 9.14282 12.6072 9.14282Z" fill="white"/>
<path d="M17.7501 9.14282H14.5358C14.3583 9.14282 14.2144 9.28673 14.2144 9.46425V12.6785C14.2144 12.8561 14.3583 13 14.5358 13H17.7501C17.9276 13 18.0715 12.8561 18.0715 12.6785V9.46425C18.0715 9.28673 17.9276 9.14282 17.7501 9.14282Z" fill="white"/>
<path d="M7.46418 14.2856H4.2499C4.07238 14.2856 3.92847 14.4296 3.92847 14.6071V17.8214C3.92847 17.9989 4.07238 18.1428 4.2499 18.1428H7.46418C7.6417 18.1428 7.78561 17.9989 7.78561 17.8214V14.6071C7.78561 14.4296 7.6417 14.2856 7.46418 14.2856Z" fill="white"/>
<path d="M12.6072 14.2856H9.39296C9.21544 14.2856 9.07153 14.4296 9.07153 14.6071V17.8214C9.07153 17.9989 9.21544 18.1428 9.39296 18.1428H12.6072C12.7848 18.1428 12.9287 17.9989 12.9287 17.8214V14.6071C12.9287 14.4296 12.7848 14.2856 12.6072 14.2856Z" fill="white"/>
<path d="M17.7501 14.2856H14.5358C14.3583 14.2856 14.2144 14.4296 14.2144 14.6071V17.8214C14.2144 17.9989 14.3583 18.1428 14.5358 18.1428H17.7501C17.9276 18.1428 18.0715 17.9989 18.0715 17.8214V14.6071C18.0715 14.4296 17.9276 14.2856 17.7501 14.2856Z" fill="white"/>
</svg>
