<svg width="20" height="20" viewBox="0 0 20 20" fill="none" xmlns="http://www.w3.org/2000/svg">
<rect width="20" height="20" rx="10" fill="white" fill-opacity="0.15"/>
<g clip-path="url(#clip0_2013_10519)">
<path d="M9.92813 9.81703C10.5899 9.81703 11.1629 9.57968 11.6312 9.11139C12.0994 8.64317 12.3367 8.07028 12.3367 7.40844C12.3367 6.74682 12.0994 6.17385 11.6311 5.70549C11.1628 5.23735 10.5898 5 9.92813 5C9.26628 5 8.69339 5.23735 8.22517 5.70556C7.75696 6.17378 7.51953 6.74674 7.51953 7.40844C7.51953 8.07028 7.75696 8.64325 8.22525 9.11146C8.69354 9.5796 9.26651 9.81703 9.92813 9.81703Z" fill="white"/>
<path d="M14.1431 12.6894C14.1296 12.4946 14.1023 12.282 14.0621 12.0576C14.0215 11.8314 13.9693 11.6177 13.9067 11.4223C13.8421 11.2203 13.7542 11.0209 13.6456 10.8298C13.5328 10.6314 13.4003 10.4587 13.2517 10.3165C13.0963 10.1678 12.906 10.0483 12.686 9.96109C12.4667 9.87434 12.2237 9.8304 11.9638 9.8304C11.8617 9.8304 11.763 9.87228 11.5723 9.99641C11.455 10.0729 11.3177 10.1614 11.1646 10.2593C11.0336 10.3428 10.8561 10.421 10.6369 10.4918C10.423 10.561 10.2059 10.5961 9.99161 10.5961C9.7773 10.5961 9.56024 10.561 9.34616 10.4918C9.1272 10.4211 8.94974 10.3429 8.81889 10.2594C8.66714 10.1624 8.52982 10.0739 8.41072 9.99634C8.22029 9.87221 8.12149 9.83032 8.01941 9.83032C7.7594 9.83032 7.51648 9.87434 7.29729 9.96117C7.07741 10.0482 6.88705 10.1678 6.73149 10.3166C6.58295 10.4588 6.45042 10.6315 6.33781 10.8298C6.22925 11.0209 6.14136 11.2202 6.07666 11.4223C6.01418 11.6177 5.96191 11.8314 5.92133 12.0576C5.88112 12.2817 5.85381 12.4943 5.8403 12.6897C5.82703 12.881 5.82031 13.0796 5.82031 13.2802C5.82031 13.8022 5.98625 14.2248 6.31348 14.5364C6.63666 14.844 7.06429 15 7.5843 15H12.3994C12.9194 15 13.3469 14.844 13.6701 14.5364C13.9974 14.225 14.1634 13.8023 14.1634 13.2801C14.1633 13.0786 14.1565 12.8799 14.1431 12.6894Z" fill="white"/>
</g>
<defs>
<clipPath id="clip0_2013_10519">
<rect width="10" height="10" fill="white" transform="translate(5 5)"/>
</clipPath>
</defs>
</svg>