<svg width="38" height="38" viewBox="0 0 38 38" fill="none" xmlns="http://www.w3.org/2000/svg">
<path d="M16.0575 1.82041L15.704 2.17396L16.0575 1.82041C15.6942 1.45706 15.2014 1.25293 14.6875 1.25293H3.1875C2.67364 1.25293 2.18083 1.45706 1.81748 1.82041C1.45413 2.18376 1.25 2.67657 1.25 3.19043V14.6876C1.25 15.2014 1.45413 15.6942 1.81748 16.0576C2.18083 16.4209 2.67364 16.6251 3.1875 16.6251H14.6875C15.2014 16.6251 15.6942 16.4209 16.0575 16.0576C16.4209 15.6942 16.625 15.2014 16.625 14.6876V3.19043C16.625 2.67657 16.4209 2.18376 16.0575 1.82041ZM1.81748 21.9425L2.1702 22.2953L1.81748 21.9425C1.45413 22.3059 1.25 22.7987 1.25 23.3126V34.8126C1.25 35.3264 1.45413 35.8192 1.81748 36.1826C2.18083 36.5459 2.67364 36.7501 3.1875 36.7501H14.6875C15.2014 36.7501 15.6942 36.5459 16.0575 36.1826C16.4209 35.8192 16.625 35.3264 16.625 34.8126V23.3126C16.625 22.7987 16.4209 22.3059 16.0575 21.9425C15.6942 21.5792 15.2014 21.3751 14.6875 21.3751H3.1875C2.67364 21.3751 2.18083 21.5792 1.81748 21.9425ZM21.9425 1.82041L22.2952 2.17313L21.9425 1.82041C21.5791 2.18376 21.375 2.67657 21.375 3.19043V14.6876C21.375 15.2014 21.5791 15.6942 21.9425 16.0576C22.3058 16.4209 22.7986 16.6251 23.3125 16.6251H34.8096C35.3235 16.6251 35.8163 16.4209 36.1796 16.0576C36.543 15.6942 36.7471 15.2014 36.7471 14.6876V3.19043C36.7471 2.67657 36.543 2.18376 36.1796 1.82041C35.8163 1.45706 35.3235 1.25293 34.8096 1.25293H23.3125C22.7986 1.25293 22.3058 1.45706 21.9425 1.82041ZM36.1796 36.1826L35.8261 35.829L36.1796 36.1826C36.543 35.8192 36.7471 35.3264 36.7471 34.8126V23.3126C36.7471 22.7987 36.543 22.3059 36.1796 21.9425C35.8163 21.5792 35.3235 21.3751 34.8096 21.3751H23.3125C22.7986 21.3751 22.3058 21.5792 21.9425 21.9425C21.5791 22.3059 21.375 22.7987 21.375 23.3126V34.8126C21.375 35.3264 21.5791 35.8192 21.9425 36.1826C22.3058 36.5459 22.7986 36.7501 23.3125 36.7501H34.8096C35.3235 36.7501 35.8163 36.5459 36.1796 36.1826Z" stroke="white" stroke-opacity="0.45"/>
</svg>
