<svg width="32" height="36" viewBox="0 0 32 36" fill="none" xmlns="http://www.w3.org/2000/svg">
<g filter="url(#filter0_d_2013_10529)">
<path d="M11.6559 17.9999V12.5142C11.6559 11.423 12.1136 10.3765 12.9283 9.60495C13.743 8.83337 14.8479 8.3999 16 8.3999C17.1522 8.3999 18.2571 8.83337 19.0718 9.60495C19.8865 10.3765 20.3442 11.423 20.3442 12.5142V17.9999C20.3442 19.0911 19.8865 20.1376 19.0718 20.9091C18.2571 21.6807 17.1522 22.1142 16 22.1142C14.8479 22.1142 13.743 21.6807 12.9283 20.9091C12.1136 20.1376 11.6559 19.0911 11.6559 17.9999ZM22.5525 18.0085C22.3631 17.9891 22.1732 18.0413 22.0242 18.1536C21.8751 18.2659 21.7787 18.4293 21.756 18.6085C21.597 19.9489 20.9222 21.1869 19.8604 22.0859C18.7986 22.9849 17.4243 23.4818 16 23.4818C14.5758 23.4818 13.2015 22.9849 12.1397 22.0859C11.0779 21.1869 10.4031 19.9489 10.2441 18.6085C10.2214 18.4293 10.125 18.2659 9.97593 18.1536C9.82685 18.0413 9.63704 17.9891 9.44765 18.0085C9.35272 18.017 9.26055 18.0434 9.17656 18.0861C9.09256 18.1289 9.01845 18.1871 8.95858 18.2574C8.8987 18.3277 8.85428 18.4086 8.82792 18.4954C8.80155 18.5822 8.79379 18.6731 8.80508 18.7628C8.99025 20.3186 9.73407 21.7669 10.912 22.8654C12.09 23.9639 13.6306 24.6458 15.276 24.797V26.9142C15.276 27.0961 15.3523 27.2705 15.4881 27.3991C15.6239 27.5277 15.808 27.5999 16 27.5999C16.1921 27.5999 16.3762 27.5277 16.512 27.3991C16.6478 27.2705 16.7241 27.0961 16.7241 26.9142V24.797C18.3695 24.6458 19.9101 23.9639 21.0881 22.8654C22.266 21.7669 23.0099 20.3186 23.195 18.7628C23.2063 18.6731 23.1985 18.5822 23.1722 18.4954C23.1458 18.4086 23.1014 18.3277 23.0415 18.2574C22.9816 18.1871 22.9075 18.1289 22.8235 18.0861C22.7396 18.0434 22.6474 18.017 22.5525 18.0085Z" fill="black"/>
</g>
<defs>
<filter id="filter0_d_2013_10529" x="0.800049" y="0.399902" width="30.3999" height="35.2002" filterUnits="userSpaceOnUse" color-interpolation-filters="sRGB">
<feFlood flood-opacity="0" result="BackgroundImageFix"/>
<feColorMatrix in="SourceAlpha" type="matrix" values="0 0 0 0 0 0 0 0 0 0 0 0 0 0 0 0 0 0 127 0" result="hardAlpha"/>
<feOffset/>
<feGaussianBlur stdDeviation="4"/>
<feComposite in2="hardAlpha" operator="out"/>
<feColorMatrix type="matrix" values="0 0 0 0 0 0 0 0 0 0 0 0 0 0 0 0 0 0 0.15 0"/>
<feBlend mode="normal" in2="BackgroundImageFix" result="effect1_dropShadow_2013_10529"/>
<feBlend mode="normal" in="SourceGraphic" in2="effect1_dropShadow_2013_10529" result="shape"/>
</filter>
</defs>
</svg>