<svg width="34" height="38" viewBox="0 0 34 38" fill="none" xmlns="http://www.w3.org/2000/svg">
<g id="ion:water" filter="url(#filter0_d_9009_60698)">
<path id="Vector" d="M17.3919 10.5833C17.3435 10.5268 17.2834 10.4814 17.2158 10.4503C17.1482 10.4192 17.0746 10.4031 17.0002 10.4031C16.9258 10.4031 16.8522 10.4192 16.7846 10.4503C16.717 10.4814 16.657 10.5268 16.6086 10.5833C15.2482 12.1745 10.8125 17.6753 10.8125 21.7501C10.8125 25.5472 13.2033 27.9376 17 27.9376C20.7967 27.9376 23.1875 25.5472 23.1875 21.7501C23.1875 17.6753 18.7518 12.1745 17.3919 10.5833ZM17.6875 25.7032C17.6049 25.7034 17.5235 25.6837 17.4501 25.6459C17.3767 25.608 17.3134 25.5531 17.2657 25.4857C17.2179 25.4183 17.1871 25.3405 17.1757 25.2587C17.1643 25.1769 17.1727 25.0935 17.2002 25.0157C17.2354 24.9141 17.3017 24.8262 17.3897 24.7645C17.4778 24.7027 17.583 24.6704 17.6905 24.6719C18.373 24.6705 19.0272 24.3987 19.5098 23.9161C19.9924 23.4335 20.2641 22.7793 20.2656 22.0968C20.2641 21.9893 20.2964 21.8841 20.3581 21.796C20.4199 21.708 20.5078 21.6417 20.6094 21.6065C20.6872 21.579 20.7706 21.5706 20.8524 21.582C20.9342 21.5934 21.012 21.6242 21.0794 21.672C21.1468 21.7197 21.2017 21.783 21.2396 21.8564C21.2774 21.9298 21.2971 22.0112 21.2969 22.0938C21.2959 23.0508 20.9153 23.9682 20.2386 24.6449C19.5619 25.3216 18.6445 25.7022 17.6875 25.7032Z" fill="white"/>
</g>
<defs>
<filter id="filter0_d_9009_60698" x="-4" y="-2" width="42" height="42" filterUnits="userSpaceOnUse" color-interpolation-filters="sRGB">
<feFlood flood-opacity="0" result="BackgroundImageFix"/>
<feColorMatrix in="SourceAlpha" type="matrix" values="0 0 0 0 0 0 0 0 0 0 0 0 0 0 0 0 0 0 127 0" result="hardAlpha"/>
<feOffset/>
<feGaussianBlur stdDeviation="5"/>
<feComposite in2="hardAlpha" operator="out"/>
<feColorMatrix type="matrix" values="0 0 0 0 1 0 0 0 0 1 0 0 0 0 1 0 0 0 0.25 0"/>
<feBlend mode="normal" in2="BackgroundImageFix" result="effect1_dropShadow_9009_60698"/>
<feBlend mode="normal" in="SourceGraphic" in2="effect1_dropShadow_9009_60698" result="shape"/>
</filter>
</defs>
</svg>
