<svg width="26" height="17" viewBox="0 0 26 17" fill="none" xmlns="http://www.w3.org/2000/svg">
<path d="M2.88889 0C1.29549 0 0 1.27057 0 2.83333V14.1667C0 15.7294 1.29549 17 2.88889 17H23.1111C24.7045 17 26 15.7294 26 14.1667V2.83333C26 1.27057 24.7045 0 23.1111 0H2.88889ZM3.61111 2.83333H5.05556C5.45278 2.83333 5.77778 3.15208 5.77778 3.54167V4.95833C5.77778 5.34792 5.45278 5.66667 5.05556 5.66667H3.61111C3.21389 5.66667 2.88889 5.34792 2.88889 4.95833V3.54167C2.88889 3.15208 3.21389 2.83333 3.61111 2.83333ZM2.88889 7.79167C2.88889 7.40208 3.21389 7.08333 3.61111 7.08333H5.05556C5.45278 7.08333 5.77778 7.40208 5.77778 7.79167V9.20833C5.77778 9.59792 5.45278 9.91667 5.05556 9.91667H3.61111C3.21389 9.91667 2.88889 9.59792 2.88889 9.20833V7.79167ZM3.61111 11.3333H5.05556C5.45278 11.3333 5.77778 11.6521 5.77778 12.0417V13.4583C5.77778 13.8479 5.45278 14.1667 5.05556 14.1667H3.61111C3.21389 14.1667 2.88889 13.8479 2.88889 13.4583V12.0417C2.88889 11.6521 3.21389 11.3333 3.61111 11.3333ZM7.22222 3.54167C7.22222 3.15208 7.54722 2.83333 7.94444 2.83333H9.38889C9.78611 2.83333 10.1111 3.15208 10.1111 3.54167V4.95833C10.1111 5.34792 9.78611 5.66667 9.38889 5.66667H7.94444C7.54722 5.66667 7.22222 5.34792 7.22222 4.95833V3.54167ZM7.94444 7.08333H9.38889C9.78611 7.08333 10.1111 7.40208 10.1111 7.79167V9.20833C10.1111 9.59792 9.78611 9.91667 9.38889 9.91667H7.94444C7.54722 9.91667 7.22222 9.59792 7.22222 9.20833V7.79167C7.22222 7.40208 7.54722 7.08333 7.94444 7.08333ZM7.22222 12.0417C7.22222 11.6521 7.54722 11.3333 7.94444 11.3333H18.0556C18.4528 11.3333 18.7778 11.6521 18.7778 12.0417V13.4583C18.7778 13.8479 18.4528 14.1667 18.0556 14.1667H7.94444C7.54722 14.1667 7.22222 13.8479 7.22222 13.4583V12.0417ZM12.2778 2.83333H13.7222C14.1194 2.83333 14.4444 3.15208 14.4444 3.54167V4.95833C14.4444 5.34792 14.1194 5.66667 13.7222 5.66667H12.2778C11.8806 5.66667 11.5556 5.34792 11.5556 4.95833V3.54167C11.5556 3.15208 11.8806 2.83333 12.2778 2.83333ZM11.5556 7.79167C11.5556 7.40208 11.8806 7.08333 12.2778 7.08333H13.7222C14.1194 7.08333 14.4444 7.40208 14.4444 7.79167V9.20833C14.4444 9.59792 14.1194 9.91667 13.7222 9.91667H12.2778C11.8806 9.91667 11.5556 9.59792 11.5556 9.20833V7.79167ZM16.6111 2.83333H18.0556C18.4528 2.83333 18.7778 3.15208 18.7778 3.54167V4.95833C18.7778 5.34792 18.4528 5.66667 18.0556 5.66667H16.6111C16.2139 5.66667 15.8889 5.34792 15.8889 4.95833V3.54167C15.8889 3.15208 16.2139 2.83333 16.6111 2.83333ZM15.8889 7.79167C15.8889 7.40208 16.2139 7.08333 16.6111 7.08333H18.0556C18.4528 7.08333 18.7778 7.40208 18.7778 7.79167V9.20833C18.7778 9.59792 18.4528 9.91667 18.0556 9.91667H16.6111C16.2139 9.91667 15.8889 9.59792 15.8889 9.20833V7.79167ZM20.9444 2.83333H22.3889C22.7861 2.83333 23.1111 3.15208 23.1111 3.54167V4.95833C23.1111 5.34792 22.7861 5.66667 22.3889 5.66667H20.9444C20.5472 5.66667 20.2222 5.34792 20.2222 4.95833V3.54167C20.2222 3.15208 20.5472 2.83333 20.9444 2.83333ZM20.2222 7.79167C20.2222 7.40208 20.5472 7.08333 20.9444 7.08333H22.3889C22.7861 7.08333 23.1111 7.40208 23.1111 7.79167V9.20833C23.1111 9.59792 22.7861 9.91667 22.3889 9.91667H20.9444C20.5472 9.91667 20.2222 9.59792 20.2222 9.20833V7.79167ZM20.9444 11.3333H22.3889C22.7861 11.3333 23.1111 11.6521 23.1111 12.0417V13.4583C23.1111 13.8479 22.7861 14.1667 22.3889 14.1667H20.9444C20.5472 14.1667 20.2222 13.8479 20.2222 13.4583V12.0417C20.2222 11.6521 20.5472 11.3333 20.9444 11.3333Z" fill="#6D7676"/>
</svg>
