<svg width="17" height="24" viewBox="0 0 17 24" fill="none" xmlns="http://www.w3.org/2000/svg">
<path d="M0 3C0 1.34531 1.38608 0 3.09091 0H13.9091C15.6139 0 17 1.34531 17 3V21C17 22.6547 15.6139 24 13.9091 24H3.09091C1.38608 24 0 22.6547 0 21V3ZM10.0455 21C10.0455 20.6022 9.88263 20.2206 9.5928 19.9393C9.30297 19.658 8.90988 19.5 8.5 19.5C8.09012 19.5 7.69703 19.658 7.4072 19.9393C7.11737 20.2206 6.95455 20.6022 6.95455 21C6.95455 21.3978 7.11737 21.7794 7.4072 22.0607C7.69703 22.342 8.09012 22.5 8.5 22.5C8.90988 22.5 9.30297 22.342 9.5928 22.0607C9.88263 21.7794 10.0455 21.3978 10.0455 21ZM13.9091 3H3.09091V18H13.9091V3Z" fill="#3CBE74"/>
</svg>
