<svg width="34" height="34" viewBox="0 0 34 34" fill="none" xmlns="http://www.w3.org/2000/svg">
<g clip-path="url(#clip0_837_4826)">
<path d="M31.1666 14.1666V24.0833C31.1666 25.2105 30.7188 26.2915 29.9218 27.0885C29.1248 27.8855 28.0438 28.3333 26.9166 28.3333H7.08325C5.95608 28.3333 4.87508 27.8855 4.07805 27.0885C3.28102 26.2915 2.83325 25.2105 2.83325 24.0833V14.1666H31.1666ZM25.4999 19.8333H21.2499C20.8742 19.8333 20.5139 19.9825 20.2482 20.2482C19.9825 20.5139 19.8333 20.8742 19.8333 21.25C19.8333 21.6257 19.9825 21.986 20.2482 22.2517C20.5139 22.5174 20.8742 22.6666 21.2499 22.6666H25.4999C25.8756 22.6666 26.236 22.5174 26.5017 22.2517C26.7673 21.986 26.9166 21.6257 26.9166 21.25C26.9166 20.8742 26.7673 20.5139 26.5017 20.2482C26.236 19.9825 25.8756 19.8333 25.4999 19.8333ZM26.9166 5.66663C28.0438 5.66663 29.1248 6.11439 29.9218 6.91142C30.7188 7.70845 31.1666 8.78946 31.1666 9.91663V11.3333H2.83325V9.91663C2.83325 8.78946 3.28102 7.70845 4.07805 6.91142C4.87508 6.11439 5.95608 5.66663 7.08325 5.66663H26.9166Z" fill="white" fill-opacity="0.65"/>
</g>
<defs>
<clipPath id="clip0_837_4826">
<rect width="34" height="34" fill="white"/>
</clipPath>
</defs>
</svg>