<svg width="44" height="44" viewBox="0 0 44 44" fill="none" xmlns="http://www.w3.org/2000/svg">
<g clip-path="url(#clip0_837_3632)">
<path d="M20.1666 29.2123C16.7125 28.744 13.5651 26.9815 11.3608 24.2812C9.15661 21.5809 8.06007 18.1442 8.29296 14.6663C8.52584 11.1884 10.0708 7.92863 12.6153 5.5463C15.1599 3.16398 18.5142 1.83684 22 1.83326C25.4899 1.82989 28.8506 3.15376 31.4007 5.53646C33.9507 7.91917 35.4993 11.1824 35.7325 14.6646C35.9657 18.1468 34.866 21.5873 32.6563 24.2888C30.4467 26.9902 27.2926 28.7503 23.8333 29.2123V32.9999H33V36.6666H23.8333V43.9999H20.1666V36.6666H11V32.9999H20.1666V29.2123ZM22 25.6666C24.6742 25.6666 27.239 24.6042 29.1299 22.7133C31.0209 20.8223 32.0833 18.2575 32.0833 15.5833C32.0833 12.909 31.0209 10.3443 29.1299 8.45327C27.239 6.56227 24.6742 5.49993 22 5.49993C19.3257 5.49993 16.7609 6.56227 14.87 8.45327C12.979 10.3443 11.9166 12.909 11.9166 15.5833C11.9166 18.2575 12.979 20.8223 14.87 22.7133C16.7609 24.6042 19.3257 25.6666 22 25.6666Z" fill="white"/>
</g>
<defs>
<clipPath id="clip0_837_3632">
<rect width="44" height="44" fill="white"/>
</clipPath>
</defs>
</svg>
