<svg width="34" height="34" viewBox="0 0 34 34" fill="none" xmlns="http://www.w3.org/2000/svg">
<path d="M21.3208 12.0941L26.3287 7.08333H19.8333V4.25H31.1666V15.5833H28.3333V9.0865L23.3225 14.0972C24.9572 16.24 25.7164 18.9238 25.4466 21.6053C25.1768 24.2869 23.8981 26.7656 21.8693 28.5398C19.8406 30.3139 17.2134 31.2508 14.5199 31.1607C11.8264 31.0706 9.26769 29.9603 7.362 28.0546C5.45631 26.1489 4.34601 23.5903 4.25594 20.8967C4.16587 18.2032 5.10275 15.576 6.87687 13.5473C8.65099 11.5186 11.1298 10.2398 13.8113 9.97C16.4928 9.70018 19.1766 10.4595 21.3194 12.0941H21.3208ZM14.875 28.3333C16.9414 28.3333 18.9233 27.5124 20.3845 26.0512C21.8457 24.59 22.6666 22.6081 22.6666 20.5417C22.6666 18.4752 21.8457 16.4933 20.3845 15.0321C18.9233 13.5709 16.9414 12.75 14.875 12.75C12.8085 12.75 10.8266 13.5709 9.36541 15.0321C7.90419 16.4933 7.08329 18.4752 7.08329 20.5417C7.08329 22.6081 7.90419 24.59 9.36541 26.0512C10.8266 27.5124 12.8085 28.3333 14.875 28.3333Z" fill="white" fill-opacity="1"/>
</svg>