<svg width="50" height="50" viewBox="0 0 50 50" fill="none" xmlns="http://www.w3.org/2000/svg">
<path d="M6.25 35.9375V43.75H14.0625L37.1042 20.7083L29.2917 12.8958L6.25 35.9375ZM43.1458 14.6666C43.339 14.4739 43.4922 14.245 43.5967 13.9929C43.7013 13.7409 43.7551 13.4707 43.7551 13.1979C43.7551 12.925 43.7013 12.6549 43.5967 12.4028C43.4922 12.1508 43.339 11.9219 43.1458 11.7291L38.2708 6.85413C38.0781 6.661 37.8492 6.50777 37.5971 6.40323C37.3451 6.29869 37.0749 6.24487 36.8021 6.24487C36.5292 6.24487 36.2591 6.29869 36.007 6.40323C35.755 6.50777 35.5261 6.661 35.3333 6.85413L31.5208 10.6666L39.3333 18.4791L43.1458 14.6666Z" fill="white"/>
</svg>