<svg width="26" height="26" viewBox="0 0 26 26" fill="none" xmlns="http://www.w3.org/2000/svg">
<g clip-path="url(#clip0_6985_53824)">
<g filter="url(#filter0_d_6985_53824)">
<path d="M21.0743 3.32702C21.8813 3.48886 22.5122 4.11972 22.6741 4.92673C22.7896 5.50497 22.7731 6.10183 22.6257 6.67279C22.4784 7.24375 22.204 7.77406 21.823 8.22415L18.794 11.8045L20.9344 19.6555C20.9983 19.8896 20.9992 20.1365 20.9369 20.371C20.8747 20.6055 20.7515 20.8194 20.5799 20.991L19.1464 22.4245C19.0246 22.5462 18.8763 22.6379 18.7131 22.6925C18.5499 22.7471 18.3762 22.7631 18.2057 22.7392C18.0353 22.7153 17.8727 22.6522 17.7308 22.5548C17.5889 22.4573 17.4716 22.3283 17.388 22.1779L14.0926 16.2469L10.5054 18.7296V19.5961C10.5054 19.9605 10.3601 20.3117 10.1025 20.5693L8.24942 22.4212C8.11538 22.5554 7.94924 22.6531 7.7668 22.7049C7.58436 22.7568 7.39168 22.7612 7.20708 22.7176C7.02247 22.674 6.85209 22.5839 6.71212 22.4559C6.57215 22.3279 6.46725 22.1663 6.40739 21.9863L5.80843 20.1906L4.01264 19.5917C3.83266 19.5318 3.67098 19.4269 3.54297 19.287C3.41496 19.147 3.32488 18.9766 3.2813 18.792C3.23771 18.6075 3.24207 18.4148 3.29396 18.2324C3.34584 18.0499 3.44353 17.8838 3.57773 17.7498L5.43077 15.8968C5.5586 15.769 5.71035 15.6677 5.87735 15.5985C6.04435 15.5294 6.22334 15.4938 6.40409 15.4939H7.2706L9.75344 11.9069L3.82216 8.61169C3.67169 8.52813 3.54266 8.41079 3.44525 8.2689C3.34784 8.12701 3.28469 7.96444 3.26078 7.794C3.23687 7.62356 3.25286 7.4499 3.30747 7.28669C3.36209 7.12347 3.45385 6.97516 3.57553 6.85344L5.00908 5.41997C5.18067 5.24839 5.39459 5.12522 5.62914 5.06296C5.86368 5.00071 6.11052 5.00157 6.34463 5.06546L14.195 7.20575L17.7767 4.17697C18.2268 3.79602 18.7571 3.52162 19.3281 3.37426C19.8991 3.2269 20.496 3.21148 21.0743 3.32702Z" fill="#37A1FF" fill-opacity="0.98" shape-rendering="crispEdges"/>
</g>
</g>
<defs>
<filter id="filter0_d_6985_53824" x="-0.75" y="-0.75" width="27.5" height="27.5" filterUnits="userSpaceOnUse" color-interpolation-filters="sRGB">
<feFlood flood-opacity="0" result="BackgroundImageFix"/>
<feColorMatrix in="SourceAlpha" type="matrix" values="0 0 0 0 0 0 0 0 0 0 0 0 0 0 0 0 0 0 127 0" result="hardAlpha"/>
<feOffset/>
<feGaussianBlur stdDeviation="2"/>
<feComposite in2="hardAlpha" operator="out"/>
<feColorMatrix type="matrix" values="0 0 0 0 0 0 0 0 0 0 0 0 0 0 0 0 0 0 0.7 0"/>
<feBlend mode="normal" in2="BackgroundImageFix" result="effect1_dropShadow_6985_53824"/>
<feBlend mode="normal" in="SourceGraphic" in2="effect1_dropShadow_6985_53824" result="shape"/>
</filter>
<clipPath id="clip0_6985_53824">
<rect width="26" height="26" fill="white"/>
</clipPath>
</defs>
</svg>
