<svg width="26" height="26" viewBox="0 0 26 26" fill="none" xmlns="http://www.w3.org/2000/svg">
<g clip-path="url(#clip0_6985_53815)">
<g filter="url(#filter0_d_6985_53815)">
<path d="M3.25 5.41602C3.25 4.55406 3.59241 3.72741 4.2019 3.11792C4.8114 2.50843 5.63805 2.16602 6.5 2.16602H17.3333C18.1953 2.16602 19.0219 2.50843 19.6314 3.11792C20.2409 3.72741 20.5833 4.55406 20.5833 5.41602H21.6667C22.2413 5.41602 22.7924 5.64429 23.1987 6.05062C23.6051 6.45695 23.8333 7.00805 23.8333 7.58268V9.07768C23.8333 10.421 23.3341 11.7164 22.4326 12.7123C21.5311 13.7083 20.2918 14.3337 18.9551 14.4673L13 15.0631V15.166C13.5746 15.166 14.1257 15.3943 14.5321 15.8006C14.9384 16.2069 15.1667 16.758 15.1667 17.3327V21.666C15.1667 22.2407 14.9384 22.7917 14.5321 23.1981C14.1257 23.6044 13.5746 23.8327 13 23.8327H10.8333C10.2587 23.8327 9.7076 23.6044 9.30127 23.1981C8.89494 22.7917 8.66667 22.2407 8.66667 21.666V17.3327C8.66667 16.758 8.89494 16.2069 9.30127 15.8006C9.7076 15.3943 10.2587 15.166 10.8333 15.166V15.0631C10.8334 14.5258 11.033 14.0077 11.3935 13.6093C11.7541 13.2109 12.2498 12.9607 12.7844 12.9073L18.7406 12.3114C19.5424 12.2311 20.2858 11.8558 20.8265 11.2582C21.3672 10.6607 21.6667 9.88354 21.6667 9.07768V7.58268H20.5833C20.5833 8.44464 20.2409 9.27129 19.6314 9.88078C19.0219 10.4903 18.1953 10.8327 17.3333 10.8327H6.5C5.63805 10.8327 4.8114 10.4903 4.2019 9.88078C3.59241 9.27129 3.25 8.44464 3.25 7.58268V5.41602Z" fill="#6E56CF"/>
</g>
</g>
<defs>
<filter id="filter0_d_6985_53815" x="-0.75" y="-1.83398" width="28.583" height="29.666" filterUnits="userSpaceOnUse" color-interpolation-filters="sRGB">
<feFlood flood-opacity="0" result="BackgroundImageFix"/>
<feColorMatrix in="SourceAlpha" type="matrix" values="0 0 0 0 0 0 0 0 0 0 0 0 0 0 0 0 0 0 127 0" result="hardAlpha"/>
<feOffset/>
<feGaussianBlur stdDeviation="2"/>
<feComposite in2="hardAlpha" operator="out"/>
<feColorMatrix type="matrix" values="0 0 0 0 0 0 0 0 0 0 0 0 0 0 0 0 0 0 0.7 0"/>
<feBlend mode="normal" in2="BackgroundImageFix" result="effect1_dropShadow_6985_53815"/>
<feBlend mode="normal" in="SourceGraphic" in2="effect1_dropShadow_6985_53815" result="shape"/>
</filter>
<clipPath id="clip0_6985_53815">
<rect width="26" height="26" fill="white"/>
</clipPath>
</defs>
</svg>
