<svg width="26" height="26" viewBox="0 0 26 26" fill="none" xmlns="http://www.w3.org/2000/svg">
<g clip-path="url(#clip0_6985_53817)">
<g filter="url(#filter0_d_6985_53817)">
<path fill-rule="evenodd" clip-rule="evenodd" d="M5.31691 6.23581C5.61385 5.66433 6.07023 5.18373 6.63491 4.84783C7.19959 4.51193 7.85028 4.33401 8.51409 4.33398H17.4848C18.1486 4.33401 18.7993 4.51193 19.3639 4.84783C19.9286 5.18373 20.385 5.66433 20.6819 6.23581L22.3336 9.41431C22.6243 9.2996 22.9103 9.17572 23.1915 9.04266C23.4744 8.90667 23.8018 8.88442 24.1017 8.98079C24.4016 9.07716 24.6495 9.28427 24.7907 9.55654C24.932 9.82882 24.9551 10.144 24.855 10.4326C24.7549 10.7213 24.5397 10.9599 24.2569 11.0959C23.9704 11.2186 23.6824 11.3379 23.3929 11.4538L24.5381 13.6596C24.7867 14.1378 24.916 14.6653 24.9158 15.2001V18.0987C24.9166 18.583 24.8108 19.0619 24.6054 19.504C24.4 19.946 24.0997 20.3412 23.7242 20.6635V22.1134C23.7242 22.5697 23.5359 23.0074 23.2007 23.33C22.8655 23.6527 22.4108 23.834 21.9367 23.834C21.4627 23.834 21.008 23.6527 20.6728 23.33C20.3376 23.0074 20.1493 22.5697 20.1493 22.1134V21.5399H5.84958V22.1134C5.84958 22.5697 5.66125 23.0074 5.32604 23.33C4.99083 23.6527 4.53618 23.834 4.06211 23.834C3.58805 23.834 3.1334 23.6527 2.79819 23.33C2.46297 23.0074 2.27465 22.5697 2.27465 22.1134V20.6635C1.54298 20.0326 1.08301 19.1173 1.08301 18.0987V15.1989C1.08323 14.6649 1.21256 14.1383 1.46076 13.6607L2.59639 11.4721C2.30921 11.3551 2.0244 11.2312 1.74437 11.097C1.46294 10.9593 1.24901 10.7206 1.14871 10.4324C1.0484 10.1443 1.06974 9.8297 1.20813 9.55654C1.27803 9.42168 1.37486 9.3014 1.49307 9.20258C1.61129 9.10376 1.74858 9.02833 1.89709 8.9806C2.04561 8.93288 2.20244 8.9138 2.35862 8.92444C2.5148 8.93509 2.66727 8.97526 2.80731 9.04266C3.08854 9.17687 3.37573 9.2996 3.6653 9.41431L5.31691 6.23581ZM9.4245 16.3781C9.4245 16.8344 9.23618 17.2721 8.90097 17.5947C8.56575 17.9174 8.1111 18.0987 7.63704 18.0987C7.16297 18.0987 6.70832 17.9174 6.37311 17.5947C6.0379 17.2721 5.84958 16.8344 5.84958 16.3781C5.84958 15.9218 6.0379 15.4841 6.37311 15.1615C6.70832 14.8388 7.16297 14.6575 7.63704 14.6575C8.1111 14.6575 8.56575 14.8388 8.90097 15.1615C9.23618 15.4841 9.4245 15.9218 9.4245 16.3781ZM18.3618 18.0987C18.8359 18.0987 19.2905 17.9174 19.6257 17.5947C19.961 17.2721 20.1493 16.8344 20.1493 16.3781C20.1493 15.9218 19.961 15.4841 19.6257 15.1615C19.2905 14.8388 18.8359 14.6575 18.3618 14.6575C17.8877 14.6575 17.4331 14.8388 17.0979 15.1615C16.7627 15.4841 16.5744 15.9218 16.5744 16.3781C16.5744 16.8344 16.7627 17.2721 17.0979 17.5947C17.4331 17.9174 17.8877 18.0987 18.3618 18.0987ZM7.44876 7.26243C7.54765 7.07192 7.69969 6.91168 7.88785 6.79965C8.076 6.68762 8.29284 6.62822 8.51409 6.6281H17.4848C17.706 6.62822 17.9228 6.68762 18.111 6.79965C18.2992 6.91168 18.4512 7.07192 18.5501 7.26243L20.0635 10.1737C18.2188 10.7059 15.7331 11.2163 12.9994 11.2163C10.2658 11.2163 7.78003 10.7059 5.93656 10.1725L7.44876 7.26243Z" fill="#52A9FF"/>
</g>
</g>
<defs>
<filter id="filter0_d_6985_53817" x="-2.91699" y="0.333984" width="31.833" height="27.5" filterUnits="userSpaceOnUse" color-interpolation-filters="sRGB">
<feFlood flood-opacity="0" result="BackgroundImageFix"/>
<feColorMatrix in="SourceAlpha" type="matrix" values="0 0 0 0 0 0 0 0 0 0 0 0 0 0 0 0 0 0 127 0" result="hardAlpha"/>
<feOffset/>
<feGaussianBlur stdDeviation="2"/>
<feComposite in2="hardAlpha" operator="out"/>
<feColorMatrix type="matrix" values="0 0 0 0 0 0 0 0 0 0 0 0 0 0 0 0 0 0 0.7 0"/>
<feBlend mode="normal" in2="BackgroundImageFix" result="effect1_dropShadow_6985_53817"/>
<feBlend mode="normal" in="SourceGraphic" in2="effect1_dropShadow_6985_53817" result="shape"/>
</filter>
<clipPath id="clip0_6985_53817">
<rect width="26" height="26" fill="white"/>
</clipPath>
</defs>
</svg>
