<svg width="26" height="26" viewBox="0 0 26 26" fill="none" xmlns="http://www.w3.org/2000/svg">
<g clip-path="url(#clip0_6985_53717)">
<g filter="url(#filter0_d_6985_53717)">
<path fill-rule="evenodd" clip-rule="evenodd" d="M12.9997 24.9173C19.5811 24.9173 24.9163 19.582 24.9163 13.0007C24.9163 6.41926 19.5811 1.08398 12.9997 1.08398C6.41828 1.08398 1.08301 6.41926 1.08301 13.0007C1.08301 19.582 6.41828 24.9173 12.9997 24.9173ZM13.9329 5.59055C15.9209 5.84255 17.7315 6.88788 18.9449 8.48388L20.5689 7.55055C19.8019 6.46921 18.8135 5.56366 17.6692 4.89418C16.525 4.2247 15.2513 3.80666 13.9329 3.66788V5.59055ZM5.4302 7.55055L7.0542 8.48388C7.65586 7.69318 8.40887 7.03014 9.26936 6.5334C10.1298 6.03665 11.0806 5.71614 12.0662 5.59055V3.66788C10.7478 3.80666 9.47407 4.2247 8.32984 4.89418C7.18561 5.56366 6.19713 6.46921 5.4302 7.55055ZM4.49687 16.8279L6.11154 15.8946C5.72802 14.9781 5.53053 13.9946 5.53053 13.0012C5.53053 12.0078 5.72802 11.0243 6.11154 10.1079L4.49687 9.17455C3.94799 10.3756 3.66391 11.6807 3.66391 13.0012C3.66391 14.3218 3.94799 15.6268 4.49687 16.8279ZM12.0662 20.4119C11.0806 20.2863 10.1298 19.9658 9.26936 19.469C8.40887 18.9723 7.65586 18.3093 7.0542 17.5186L5.4302 18.4519C6.19713 19.5332 7.18561 20.4388 8.32984 21.1083C9.47407 21.7777 10.7478 22.1958 12.0662 22.3346V20.4119ZM20.5689 18.4519L18.9449 17.5186C18.3432 18.3093 17.5902 18.9723 16.7297 19.469C15.8692 19.9658 14.9185 20.2863 13.9329 20.4119V22.2786C16.5929 22.0079 19.0102 20.6172 20.5689 18.4519ZM21.5022 9.17455L19.8875 10.1079C20.271 11.0243 20.4685 12.0078 20.4685 13.0012C20.4685 13.9946 20.271 14.9781 19.8875 15.8946L21.5022 16.8279C22.6129 14.4012 22.6129 11.6012 21.5022 9.17455ZM15.7995 13.0012L12.9995 8.33455L10.1995 13.0012L12.9995 17.6679L15.7995 13.0012Z" fill="#E5484D"/>
</g>
</g>
<defs>
<filter id="filter0_d_6985_53717" x="-2.91699" y="-2.91602" width="31.833" height="31.834" filterUnits="userSpaceOnUse" color-interpolation-filters="sRGB">
<feFlood flood-opacity="0" result="BackgroundImageFix"/>
<feColorMatrix in="SourceAlpha" type="matrix" values="0 0 0 0 0 0 0 0 0 0 0 0 0 0 0 0 0 0 127 0" result="hardAlpha"/>
<feOffset/>
<feGaussianBlur stdDeviation="2"/>
<feComposite in2="hardAlpha" operator="out"/>
<feColorMatrix type="matrix" values="0 0 0 0 0 0 0 0 0 0 0 0 0 0 0 0 0 0 0.7 0"/>
<feBlend mode="normal" in2="BackgroundImageFix" result="effect1_dropShadow_6985_53717"/>
<feBlend mode="normal" in="SourceGraphic" in2="effect1_dropShadow_6985_53717" result="shape"/>
</filter>
<clipPath id="clip0_6985_53717">
<rect width="26" height="26" fill="white"/>
</clipPath>
</defs>
</svg>
