<svg width="26" height="26" viewBox="0 0 26 26" fill="none" xmlns="http://www.w3.org/2000/svg">
<g clip-path="url(#clip0_6985_53822)">
<g filter="url(#filter0_d_6985_53822)">
<path d="M21.667 3.25C22.2136 3.24983 22.7401 3.45627 23.1409 3.82796C23.5417 4.19964 23.7872 4.70908 23.8282 5.25417L23.8337 5.41667V20.5833C23.8338 21.13 23.6274 21.6564 23.2557 22.0573C22.884 22.4581 22.3746 22.7036 21.8295 22.7446L21.667 22.75H4.33366C3.78703 22.7502 3.26055 22.5437 2.85973 22.172C2.45892 21.8004 2.21341 21.2909 2.17241 20.7458L2.16699 20.5833V5.41667C2.16682 4.87004 2.37327 4.34355 2.74495 3.94274C3.11663 3.54193 3.62607 3.29641 4.17116 3.25542L4.33366 3.25H21.667ZM21.667 18.4167H19.5003V20.5833H21.667V18.4167ZM6.50033 18.4167H4.33366V20.5833H6.50033V18.4167ZM21.667 14.0833H19.5003V16.25H21.667V14.0833ZM6.50033 14.0833H4.33366V16.25H6.50033V14.0833ZM21.667 9.75H19.5003V11.9167H21.667V9.75ZM6.50033 9.75H4.33366V11.9167H6.50033V9.75ZM21.667 5.41667H19.5003V7.58333H21.667V5.41667ZM6.50033 5.41667H4.33366V7.58333H6.50033V5.41667Z" fill="#E54D2E"/>
</g>
</g>
<defs>
<filter id="filter0_d_6985_53822" x="-1.83301" y="-0.75" width="29.667" height="27.5" filterUnits="userSpaceOnUse" color-interpolation-filters="sRGB">
<feFlood flood-opacity="0" result="BackgroundImageFix"/>
<feColorMatrix in="SourceAlpha" type="matrix" values="0 0 0 0 0 0 0 0 0 0 0 0 0 0 0 0 0 0 127 0" result="hardAlpha"/>
<feOffset/>
<feGaussianBlur stdDeviation="2"/>
<feComposite in2="hardAlpha" operator="out"/>
<feColorMatrix type="matrix" values="0 0 0 0 0 0 0 0 0 0 0 0 0 0 0 0 0 0 0.7 0"/>
<feBlend mode="normal" in2="BackgroundImageFix" result="effect1_dropShadow_6985_53822"/>
<feBlend mode="normal" in="SourceGraphic" in2="effect1_dropShadow_6985_53822" result="shape"/>
</filter>
<clipPath id="clip0_6985_53822">
<rect width="26" height="26" fill="white"/>
</clipPath>
</defs>
</svg>
