<svg width="26" height="26" viewBox="0 0 26 26" fill="none" xmlns="http://www.w3.org/2000/svg">
<g clip-path="url(#clip0_6985_53816)">
<g filter="url(#filter0_d_6985_53816)">
<path d="M21.0579 14.0972V16.0158C21.0579 18.0892 20.2088 20.0776 18.6975 21.5436C17.1861 23.0097 15.1362 23.8333 12.9988 23.8333C10.8614 23.8333 8.81154 23.0097 7.30017 21.5436C5.78879 20.0776 4.93971 18.0892 4.93971 16.0158V14.0972L12.2608 17.4554C12.4916 17.5612 12.7436 17.616 12.9988 17.616C13.254 17.616 13.5061 17.5612 13.7368 17.4554L21.0579 14.0972ZM13.7368 3.40954L24.1906 8.20502C25.0357 8.59143 25.1427 9.65908 24.5118 10.2186V14.899C24.5118 15.1952 24.3905 15.4793 24.1746 15.6887C23.9587 15.8982 23.6659 16.0158 23.3605 16.0158C23.0552 16.0158 22.7623 15.8982 22.5464 15.6887C22.3305 15.4793 22.2092 15.1952 22.2092 14.899V11.3365L13.7368 15.2229C13.5061 15.3287 13.254 15.3836 12.9988 15.3836C12.7436 15.3836 12.4916 15.3287 12.2608 15.2229L1.80703 10.4263C1.59041 10.3267 1.40738 10.1695 1.27921 9.97302C1.15104 9.77652 1.08301 9.54876 1.08301 9.31623C1.08301 9.08369 1.15104 8.85594 1.27921 8.65943C1.40738 8.46292 1.59041 8.30573 1.80703 8.20614L12.2608 3.41066C12.4916 3.30487 12.7436 3.25 12.9988 3.25C13.254 3.25 13.5061 3.30487 13.7368 3.41066V3.40954Z" fill="#3E63DD"/>
</g>
</g>
<defs>
<filter id="filter0_d_6985_53816" x="-2.91699" y="-0.75" width="31.833" height="28.584" filterUnits="userSpaceOnUse" color-interpolation-filters="sRGB">
<feFlood flood-opacity="0" result="BackgroundImageFix"/>
<feColorMatrix in="SourceAlpha" type="matrix" values="0 0 0 0 0 0 0 0 0 0 0 0 0 0 0 0 0 0 127 0" result="hardAlpha"/>
<feOffset/>
<feGaussianBlur stdDeviation="2"/>
<feComposite in2="hardAlpha" operator="out"/>
<feColorMatrix type="matrix" values="0 0 0 0 0 0 0 0 0 0 0 0 0 0 0 0 0 0 0.7 0"/>
<feBlend mode="normal" in2="BackgroundImageFix" result="effect1_dropShadow_6985_53816"/>
<feBlend mode="normal" in="SourceGraphic" in2="effect1_dropShadow_6985_53816" result="shape"/>
</filter>
<clipPath id="clip0_6985_53816">
<rect width="26" height="26" fill="white"/>
</clipPath>
</defs>
</svg>
