<svg width="26" height="26" viewBox="0 0 26 26" fill="none" xmlns="http://www.w3.org/2000/svg">
<g clip-path="url(#clip0_6985_53825)">
<g filter="url(#filter0_d_6985_53825)">
<path d="M18.8699 3.46984C19.1146 3.29528 19.4165 3.22046 19.7143 3.26059C20.0121 3.30073 20.2835 3.45281 20.4732 3.68591C20.6629 3.91901 20.7567 4.21562 20.7356 4.51543C20.7144 4.81524 20.5799 5.09573 20.3593 5.29987L20.2435 5.39326L17.76 7.16773C17.4034 7.42196 17.1261 7.7719 16.96 8.17711C16.7939 8.58232 16.7459 9.02626 16.8214 9.45763L16.8593 9.63732L20.8108 5.68526C21.0236 5.47324 21.309 5.35014 21.6092 5.34097C21.9094 5.33181 22.2018 5.43726 22.427 5.6359C22.6523 5.83455 22.7935 6.1115 22.822 6.4105C22.8505 6.70951 22.7641 7.00814 22.5804 7.24575L22.4823 7.35688L18.5307 11.3089C19.364 11.5217 20.286 11.2616 20.8782 10.5642L21 10.4081L22.7742 7.92433C22.9493 7.68062 23.2104 7.51259 23.5047 7.45432C23.799 7.39605 24.1045 7.45188 24.3592 7.61051C24.6139 7.76914 24.7987 8.01868 24.8762 8.30856C24.9537 8.59843 24.9181 8.90694 24.7766 9.17154L24.6974 9.29803L22.9244 11.783C22.2681 12.7014 21.3028 13.3523 20.2055 13.6164C19.1081 13.8804 17.9524 13.7399 16.9503 13.2205L16.7375 13.1023L14.0223 15.8166L18.9361 20.7322C19.1396 20.9357 19.2619 21.2066 19.28 21.4939C19.298 21.7812 19.2106 22.0652 19.0342 22.2927L18.9361 22.4038C18.7326 22.6073 18.4618 22.7296 18.1745 22.7477C17.8872 22.7657 17.6032 22.6783 17.3758 22.5019L17.2647 22.4038L12.3509 17.4882L7.43713 22.4038C7.23359 22.6073 6.96278 22.7296 6.67551 22.7477C6.38824 22.7657 6.10425 22.6783 5.87682 22.5019L5.76571 22.4038C5.56219 22.2002 5.43993 21.9294 5.42186 21.6421C5.4038 21.3548 5.49118 21.0707 5.6676 20.8433L5.76571 20.7322L10.6795 15.8166L8.77639 13.9133C8.27568 14.1838 7.73497 14.3726 7.17471 14.4725L6.8792 14.5162C6.17199 14.6055 5.45371 14.5291 4.78106 14.2932C4.1084 14.0573 3.49979 13.6682 3.00326 13.1567C1.90513 12.0573 1.27746 10.6753 1.12143 9.34768C0.967764 8.04136 1.26328 6.64165 2.22074 5.68526C3.17702 4.72769 4.57538 4.43214 5.88155 4.58583C7.20899 4.74306 8.59199 5.3708 9.69012 6.46905C10.2014 6.96552 10.5903 7.57401 10.8262 8.24652C11.0621 8.91903 11.1386 9.63716 11.0495 10.3443C10.9786 10.9413 10.8048 11.5075 10.5696 12.0005L10.4466 12.2417L12.3497 14.145L15.0661 11.4307C14.4968 10.4587 14.2963 9.31428 14.5012 8.20662C14.7061 7.09895 15.3027 6.10201 16.1819 5.39799L16.3853 5.2443L18.8699 3.46984Z" fill="#FFEF5C"/>
</g>
</g>
<defs>
<filter id="filter0_d_6985_53825" x="-2.91699" y="-0.75" width="31.833" height="27.5" filterUnits="userSpaceOnUse" color-interpolation-filters="sRGB">
<feFlood flood-opacity="0" result="BackgroundImageFix"/>
<feColorMatrix in="SourceAlpha" type="matrix" values="0 0 0 0 0 0 0 0 0 0 0 0 0 0 0 0 0 0 127 0" result="hardAlpha"/>
<feOffset/>
<feGaussianBlur stdDeviation="2"/>
<feComposite in2="hardAlpha" operator="out"/>
<feColorMatrix type="matrix" values="0 0 0 0 0 0 0 0 0 0 0 0 0 0 0 0 0 0 0.7 0"/>
<feBlend mode="normal" in2="BackgroundImageFix" result="effect1_dropShadow_6985_53825"/>
<feBlend mode="normal" in="SourceGraphic" in2="effect1_dropShadow_6985_53825" result="shape"/>
</filter>
<clipPath id="clip0_6985_53825">
<rect width="26" height="26" fill="white"/>
</clipPath>
</defs>
</svg>
