<svg width="26" height="26" viewBox="0 0 26 26" fill="none" xmlns="http://www.w3.org/2000/svg">
<g clip-path="url(#clip0_6985_53820)">
<g filter="url(#filter0_d_6985_53820)">
<path fill-rule="evenodd" clip-rule="evenodd" d="M6.15789 2.16602C5.59954 2.16602 5.06406 2.41965 4.66925 2.87113C4.27444 3.32261 4.05263 3.93494 4.05263 4.57342V21.4253C3.77346 21.4253 3.50572 21.5521 3.30831 21.7778C3.1109 22.0036 3 22.3097 3 22.629C3 22.9482 3.1109 23.2544 3.30831 23.4801C3.50572 23.7059 3.77346 23.8327 4.05263 23.8327H16.6842C16.9634 23.8327 17.2311 23.7059 17.4285 23.4801C17.6259 23.2544 17.7368 22.9482 17.7368 22.629C17.7368 22.3097 17.6259 22.0036 17.4285 21.7778C17.2311 21.5521 16.9634 21.4253 16.6842 21.4253V15.4068H17.7368V18.416C17.7368 19.2141 18.0141 19.9795 18.5076 20.5439C19.0011 21.1082 19.6705 21.4253 20.3684 21.4253C21.0664 21.4253 21.7357 21.1082 22.2292 20.5439C22.7227 19.9795 23 19.2141 23 18.416V11.0903C22.9999 10.4518 22.778 9.83961 22.3832 9.38824L19.5337 6.12981C19.4366 6.01485 19.3204 5.92315 19.192 5.86006C19.0636 5.79698 18.9255 5.76377 18.7857 5.76238C18.6459 5.76099 18.5073 5.79145 18.3779 5.85197C18.2486 5.91249 18.1311 6.00187 18.0322 6.11489C17.9334 6.22791 17.8552 6.36231 17.8023 6.51024C17.7494 6.65817 17.7227 6.81667 17.7239 6.9765C17.7252 7.13633 17.7542 7.29427 17.8094 7.44113C17.8645 7.58799 17.9447 7.72081 18.0453 7.83185L19.2032 9.15713C18.9702 9.51528 18.829 9.94046 18.7952 10.3851C18.7615 10.8298 18.8366 11.2765 19.0121 11.6752C19.1876 12.0738 19.4567 12.4088 19.7891 12.6427C20.1216 12.8765 20.5044 13 20.8947 12.9993L20.8958 18.416C20.8958 18.5756 20.8403 18.7287 20.7416 18.8416C20.6429 18.9545 20.5091 19.0179 20.3695 19.0179C20.2299 19.0179 20.096 18.9545 19.9973 18.8416C19.8986 18.7287 19.8432 18.5756 19.8432 18.416V15.4068C19.8432 14.7683 19.6214 14.1559 19.2265 13.7045C18.8317 13.253 18.2962 12.9993 17.7379 12.9993H16.6853V4.57342C16.6853 3.93494 16.4635 3.32261 16.0686 2.87113C15.6738 2.41965 15.1384 2.16602 14.58 2.16602H6.15789ZM14.5789 10.5919V4.57342H6.15789V10.5919H14.5789Z" fill="#0AC5B3"/>
</g>
</g>
<defs>
<filter id="filter0_d_6985_53820" x="-1" y="-1.83398" width="28" height="29.666" filterUnits="userSpaceOnUse" color-interpolation-filters="sRGB">
<feFlood flood-opacity="0" result="BackgroundImageFix"/>
<feColorMatrix in="SourceAlpha" type="matrix" values="0 0 0 0 0 0 0 0 0 0 0 0 0 0 0 0 0 0 127 0" result="hardAlpha"/>
<feOffset/>
<feGaussianBlur stdDeviation="2"/>
<feComposite in2="hardAlpha" operator="out"/>
<feColorMatrix type="matrix" values="0 0 0 0 0 0 0 0 0 0 0 0 0 0 0 0 0 0 0.7 0"/>
<feBlend mode="normal" in2="BackgroundImageFix" result="effect1_dropShadow_6985_53820"/>
<feBlend mode="normal" in="SourceGraphic" in2="effect1_dropShadow_6985_53820" result="shape"/>
</filter>
<clipPath id="clip0_6985_53820">
<rect width="26" height="26" fill="white"/>
</clipPath>
</defs>
</svg>
