<svg width="26" height="26" viewBox="0 0 26 26" fill="none" xmlns="http://www.w3.org/2000/svg">
<g clip-path="url(#clip0_6985_53832)">
<g filter="url(#filter0_d_6985_53832)">
<path d="M23.8333 3.32673C23.8333 2.6835 23.3503 2.16602 22.75 2.16602C22.1497 2.16602 21.6667 2.6835 21.6667 3.32673V3.71363H1.44444C0.645486 3.71363 0 4.40523 0 5.26125V10.6779C0 11.5339 0.645486 12.2255 1.44444 12.2255H1.89583C2.83472 12.2255 3.52535 13.1735 3.29514 14.1504L1.48958 21.9078C1.38125 22.3721 1.48056 22.8606 1.75139 23.2378C2.02222 23.615 2.44201 23.8327 2.88889 23.8327H7.22222C7.88576 23.8327 8.46354 23.3491 8.62153 22.6623L9.79514 17.6422H14.5076C15.5774 17.6422 16.5299 16.9216 16.8865 15.8431L18.0962 12.2255H19.5C19.8837 12.2255 20.2493 12.0611 20.5201 11.7709L21.5448 10.6779H24.5556C25.3545 10.6779 26 9.98633 26 9.1303V5.26125C26 4.40523 25.3545 3.71363 24.5556 3.71363H23.8333V3.32673ZM14.5076 15.3208H10.3368L11.059 12.2255H15.7986L14.8507 15.0645C14.801 15.2192 14.6611 15.3208 14.5122 15.3208H14.5076ZM3.61111 6.80887H20.9444C21.3417 6.80887 21.6667 7.15709 21.6667 7.58268C21.6667 8.00828 21.3417 8.35649 20.9444 8.35649H3.61111C3.21389 8.35649 2.88889 8.00828 2.88889 7.58268C2.88889 7.15709 3.21389 6.80887 3.61111 6.80887Z" fill="#E5484D"/>
</g>
</g>
<defs>
<filter id="filter0_d_6985_53832" x="-4" y="-1.83398" width="34" height="29.666" filterUnits="userSpaceOnUse" color-interpolation-filters="sRGB">
<feFlood flood-opacity="0" result="BackgroundImageFix"/>
<feColorMatrix in="SourceAlpha" type="matrix" values="0 0 0 0 0 0 0 0 0 0 0 0 0 0 0 0 0 0 127 0" result="hardAlpha"/>
<feOffset/>
<feGaussianBlur stdDeviation="2"/>
<feComposite in2="hardAlpha" operator="out"/>
<feColorMatrix type="matrix" values="0 0 0 0 0 0 0 0 0 0 0 0 0 0 0 0 0 0 0.7 0"/>
<feBlend mode="normal" in2="BackgroundImageFix" result="effect1_dropShadow_6985_53832"/>
<feBlend mode="normal" in="SourceGraphic" in2="effect1_dropShadow_6985_53832" result="shape"/>
</filter>
<clipPath id="clip0_6985_53832">
<rect width="26" height="26" fill="white"/>
</clipPath>
</defs>
</svg>
