<svg width="34" height="26" viewBox="0 0 34 26" fill="none" xmlns="http://www.w3.org/2000/svg">
<g filter="url(#filter0_d_6985_53741)">
<path fill-rule="evenodd" clip-rule="evenodd" d="M5.3 4C5.61841 4.00004 5.92574 4.11567 6.16368 4.32495C6.40163 4.53422 6.55365 4.8226 6.5909 5.13538L6.6 5.28582V14.2865H15.7V7.85745C15.7 7.54251 15.8169 7.23854 16.0285 7.00319C16.2401 6.76784 16.5317 6.61748 16.8479 6.58063L17 6.57163H26.1C27.0948 6.57158 28.052 6.94751 28.7757 7.62251C29.4995 8.29751 29.9351 9.22055 29.9935 10.2028L30 10.4291V20.7156C29.9996 21.0433 29.8728 21.3586 29.6453 21.5969C29.4178 21.8352 29.107 21.9786 28.7762 21.9978C28.4454 22.017 28.1197 21.9106 27.8656 21.7002C27.6115 21.4899 27.4482 21.1915 27.4091 20.8661L27.4 20.7156V16.8582H6.6V20.7156C6.59963 21.0433 6.47276 21.3586 6.2453 21.5969C6.01784 21.8352 5.70696 21.9786 5.37619 21.9978C5.04541 22.017 4.71971 21.9106 4.46562 21.7002C4.21153 21.4899 4.04823 21.1915 4.0091 20.8661L4 20.7156V5.28582C4 4.9448 4.13696 4.61774 4.38076 4.37661C4.62456 4.13547 4.95522 4 5.3 4ZM11.15 6.57163C12.012 6.57163 12.8386 6.91031 13.4481 7.51315C14.0576 8.11599 14.4 8.93362 14.4 9.78617C14.4 10.6387 14.0576 11.4564 13.4481 12.0592C12.8386 12.662 12.012 13.0007 11.15 13.0007C10.288 13.0007 9.4614 12.662 8.8519 12.0592C8.24241 11.4564 7.9 10.6387 7.9 9.78617C7.9 8.93362 8.24241 8.11599 8.8519 7.51315C9.4614 6.91031 10.288 6.57163 11.15 6.57163Z" fill="#4CC38A"/>
</g>
<defs>
<filter id="filter0_d_6985_53741" x="0" y="0" width="34" height="26" filterUnits="userSpaceOnUse" color-interpolation-filters="sRGB">
<feFlood flood-opacity="0" result="BackgroundImageFix"/>
<feColorMatrix in="SourceAlpha" type="matrix" values="0 0 0 0 0 0 0 0 0 0 0 0 0 0 0 0 0 0 127 0" result="hardAlpha"/>
<feOffset/>
<feGaussianBlur stdDeviation="2"/>
<feComposite in2="hardAlpha" operator="out"/>
<feColorMatrix type="matrix" values="0 0 0 0 0 0 0 0 0 0 0 0 0 0 0 0 0 0 0.7 0"/>
<feBlend mode="normal" in2="BackgroundImageFix" result="effect1_dropShadow_6985_53741"/>
<feBlend mode="normal" in="SourceGraphic" in2="effect1_dropShadow_6985_53741" result="shape"/>
</filter>
</defs>
</svg>
