<svg width="26" height="26" viewBox="0 0 26 26" fill="none" xmlns="http://www.w3.org/2000/svg">
<g clip-path="url(#clip0_6985_53845)">
<g filter="url(#filter0_d_6985_53845)">
<path fill-rule="evenodd" clip-rule="evenodd" d="M10.2913 4.33268H15.708C15.8517 4.33268 15.9894 4.38975 16.091 4.49133C16.1926 4.59292 16.2497 4.73069 16.2497 4.87435V7.33203H9.74967V4.87435C9.74967 4.73069 9.80674 4.59292 9.90833 4.49133C10.0099 4.38975 10.1477 4.33268 10.2913 4.33268ZM18.4163 4.87435V7.33203H21.6667C23.3005 7.33203 24.625 8.65652 24.625 10.2904V21.1237C24.625 22.7575 23.3005 24.082 21.6667 24.082H4.33333C2.69949 24.082 1.375 22.7575 1.375 21.1237V10.2904C1.375 8.65652 2.69949 7.33203 4.33333 7.33203H7.58301V4.87435C7.58301 4.15605 7.86835 3.46718 8.37626 2.95927C8.88417 2.45136 9.57305 2.16602 10.2913 2.16602H15.708C16.4263 2.16602 17.1152 2.45136 17.6231 2.95927C18.131 3.46718 18.4163 4.15605 18.4163 4.87435ZM13.0003 11.125C13.7367 11.125 14.3337 11.722 14.3337 12.4583V14.375H16.2503C16.9867 14.375 17.5837 14.972 17.5837 15.7083C17.5837 16.4447 16.9867 17.0417 16.2503 17.0417H14.3337V18.9583C14.3337 19.6947 13.7367 20.2917 13.0003 20.2917C12.2639 20.2917 11.667 19.6947 11.667 18.9583V17.0417H9.75033C9.01395 17.0417 8.41699 16.4447 8.41699 15.7083C8.41699 14.972 9.01395 14.375 9.75033 14.375H11.667V12.4583C11.667 11.722 12.2639 11.125 13.0003 11.125Z" fill="#63C174"/>
</g>
</g>
<defs>
<filter id="filter0_d_6985_53845" x="-2.625" y="-1.83398" width="31.25" height="29.916" filterUnits="userSpaceOnUse" color-interpolation-filters="sRGB">
<feFlood flood-opacity="0" result="BackgroundImageFix"/>
<feColorMatrix in="SourceAlpha" type="matrix" values="0 0 0 0 0 0 0 0 0 0 0 0 0 0 0 0 0 0 127 0" result="hardAlpha"/>
<feOffset/>
<feGaussianBlur stdDeviation="2"/>
<feComposite in2="hardAlpha" operator="out"/>
<feColorMatrix type="matrix" values="0 0 0 0 0 0 0 0 0 0 0 0 0 0 0 0 0 0 0.7 0"/>
<feBlend mode="normal" in2="BackgroundImageFix" result="effect1_dropShadow_6985_53845"/>
<feBlend mode="normal" in="SourceGraphic" in2="effect1_dropShadow_6985_53845" result="shape"/>
</filter>
<clipPath id="clip0_6985_53845">
<rect width="26" height="26" fill="white"/>
</clipPath>
</defs>
</svg>
