<svg width="26" height="26" viewBox="0 0 26 26" fill="none" xmlns="http://www.w3.org/2000/svg">
<g clip-path="url(#clip0_6985_53818)">
<g filter="url(#filter0_d_6985_53818)">
<path d="M13.7661 2.4832C13.5629 2.28011 13.2874 2.16602 13.0001 2.16602C12.7129 2.16602 12.4374 2.28011 12.2342 2.4832L7.90089 6.81653C7.73664 6.98081 7.62955 7.19354 7.59541 7.42332C7.56127 7.6531 7.60191 7.88777 7.71131 8.0927C7.97889 8.59428 8.39706 8.93228 8.80548 9.16195L5.73423 12.2332C5.53113 12.4364 5.41704 12.7119 5.41704 12.9991C5.41704 13.2864 5.53113 13.5619 5.73423 13.765C6.25206 14.2829 6.90639 14.5992 7.50439 14.7964L4.65089 17.6499C4.52009 17.7808 4.42502 17.9431 4.37473 18.1212C4.32445 18.2993 4.32064 18.4873 4.36366 18.6673C4.40667 18.8473 4.49509 19.0133 4.62047 19.1494C4.74586 19.2856 4.90402 19.3873 5.07989 19.445C5.82739 19.6909 6.59981 19.8653 7.37114 20.0191C8.21614 20.1892 9.26264 20.3571 10.4532 20.4655L9.80539 22.4068C9.75115 22.5696 9.73638 22.7431 9.76231 22.9128C9.78824 23.0824 9.85412 23.2435 9.95452 23.3828C10.0549 23.522 10.187 23.6354 10.3398 23.7136C10.4926 23.7917 10.6618 23.8325 10.8335 23.8325H15.1668C15.3385 23.8325 15.5077 23.7917 15.6605 23.7136C15.8133 23.6354 15.9454 23.522 16.0458 23.3828C16.1462 23.2435 16.212 23.0824 16.238 22.9128C16.2639 22.7431 16.2491 22.5696 16.1949 22.4068L15.5471 20.4655C16.7387 20.3571 17.7852 20.1892 18.6291 20.0202C19.4005 19.8653 20.1783 19.6909 20.9258 19.4439C21.101 19.3855 21.2585 19.2833 21.3831 19.147C21.5077 19.0107 21.5954 18.8447 21.6378 18.665C21.6803 18.4852 21.6761 18.2976 21.6256 18.1199C21.5751 17.9423 21.48 17.7804 21.3494 17.6499L18.4959 14.7964C19.0939 14.6003 19.7482 14.2829 20.2661 13.765C20.4692 13.5619 20.5832 13.2864 20.5832 12.9991C20.5832 12.7119 20.4692 12.4364 20.2661 12.2332L17.1948 9.16195C17.6032 8.93228 18.0214 8.59428 18.289 8.0927C18.3984 7.88777 18.439 7.6531 18.4049 7.42332C18.3707 7.19354 18.2636 6.98081 18.0994 6.81653L13.7661 2.4832Z" fill="#46A758"/>
</g>
</g>
<defs>
<filter id="filter0_d_6985_53818" x="0.333984" y="-1.83398" width="25.333" height="29.666" filterUnits="userSpaceOnUse" color-interpolation-filters="sRGB">
<feFlood flood-opacity="0" result="BackgroundImageFix"/>
<feColorMatrix in="SourceAlpha" type="matrix" values="0 0 0 0 0 0 0 0 0 0 0 0 0 0 0 0 0 0 127 0" result="hardAlpha"/>
<feOffset/>
<feGaussianBlur stdDeviation="2"/>
<feComposite in2="hardAlpha" operator="out"/>
<feColorMatrix type="matrix" values="0 0 0 0 0 0 0 0 0 0 0 0 0 0 0 0 0 0 0.7 0"/>
<feBlend mode="normal" in2="BackgroundImageFix" result="effect1_dropShadow_6985_53818"/>
<feBlend mode="normal" in="SourceGraphic" in2="effect1_dropShadow_6985_53818" result="shape"/>
</filter>
<clipPath id="clip0_6985_53818">
<rect width="26" height="26" fill="white"/>
</clipPath>
</defs>
</svg>
