<svg width="26" height="26" viewBox="0 0 26 26" fill="none" xmlns="http://www.w3.org/2000/svg">
<g clip-path="url(#clip0_6985_53823)">
<g filter="url(#filter0_d_6985_53823)">
<path fill-rule="evenodd" clip-rule="evenodd" d="M11.375 11.0977C10.2923 10.7128 9.38021 9.95806 8.79962 8.96645C8.21902 7.97484 8.00719 6.81008 8.20147 5.67755C8.39575 4.54501 8.98367 3.51745 9.86156 2.77603C10.7394 2.03462 11.8509 1.62699 13 1.625C14.1507 1.62402 15.2647 2.03013 16.1448 2.77147C17.0249 3.51281 17.6144 4.54159 17.809 5.67575C18.0036 6.80992 17.7906 7.97634 17.2079 8.96863C16.6252 9.96091 15.7103 10.7151 14.625 11.0977V20.9625C16.1859 20.6429 17.6186 19.8719 18.7453 18.7453C19.8719 17.6186 20.6429 16.1859 20.9625 14.625H19.5C19.069 14.625 18.6557 14.4538 18.351 14.1491C18.0462 13.8443 17.875 13.431 17.875 13C17.875 12.569 18.0462 12.1557 18.351 11.851C18.6557 11.5462 19.069 11.375 19.5 11.375H22.75C23.181 11.375 23.5943 11.5462 23.899 11.851C24.2038 12.1557 24.375 12.569 24.375 13C24.375 19.2823 19.2823 24.375 13 24.375C6.71775 24.375 1.625 19.2823 1.625 13C1.625 12.569 1.7962 12.1557 2.10095 11.851C2.4057 11.5462 2.81902 11.375 3.25 11.375H6.5C6.93098 11.375 7.3443 11.5462 7.64905 11.851C7.9538 12.1557 8.125 12.569 8.125 13C8.125 13.431 7.9538 13.8443 7.64905 14.1491C7.3443 14.4538 6.93098 14.625 6.5 14.625H5.0375C5.35713 16.1859 6.12811 17.6186 7.25475 18.7453C8.38139 19.8719 9.81408 20.6429 11.375 20.9625V11.0977ZM13 4.875C12.569 4.875 12.1557 5.04621 11.851 5.35095C11.5462 5.6557 11.375 6.06903 11.375 6.5C11.375 6.93098 11.5462 7.3443 11.851 7.64905C12.1557 7.9538 12.569 8.125 13 8.125C13.431 8.125 13.8443 7.9538 14.149 7.64905C14.4538 7.3443 14.625 6.93098 14.625 6.5C14.625 6.06903 14.4538 5.6557 14.149 5.35095C13.8443 5.04621 13.431 4.875 13 4.875Z" fill="#52A9FF"/>
</g>
</g>
<defs>
<filter id="filter0_d_6985_53823" x="-2.375" y="-2.375" width="30.75" height="30.75" filterUnits="userSpaceOnUse" color-interpolation-filters="sRGB">
<feFlood flood-opacity="0" result="BackgroundImageFix"/>
<feColorMatrix in="SourceAlpha" type="matrix" values="0 0 0 0 0 0 0 0 0 0 0 0 0 0 0 0 0 0 127 0" result="hardAlpha"/>
<feOffset/>
<feGaussianBlur stdDeviation="2"/>
<feComposite in2="hardAlpha" operator="out"/>
<feColorMatrix type="matrix" values="0 0 0 0 0 0 0 0 0 0 0 0 0 0 0 0 0 0 0.7 0"/>
<feBlend mode="normal" in2="BackgroundImageFix" result="effect1_dropShadow_6985_53823"/>
<feBlend mode="normal" in="SourceGraphic" in2="effect1_dropShadow_6985_53823" result="shape"/>
</filter>
<clipPath id="clip0_6985_53823">
<rect width="26" height="26" fill="white"/>
</clipPath>
</defs>
</svg>
