<svg width="26" height="26" viewBox="0 0 26 26" fill="none" xmlns="http://www.w3.org/2000/svg">
<g clip-path="url(#clip0_6985_53813)">
<g filter="url(#filter0_d_6985_53813)">
<path fill-rule="evenodd" clip-rule="evenodd" d="M8.15456 2.87853C9.50864 2.52965 10.9328 2.5619 12.2697 2.97172C13.6066 3.38153 14.8042 4.15296 15.7301 5.20075C16.6561 6.24855 17.2743 7.53193 17.5166 8.90908C17.7589 10.2862 17.6157 11.7036 17.1029 13.0044L22.0851 17.2219C22.463 17.5412 22.7705 17.9355 22.9881 18.3797C23.2057 18.824 23.3288 19.3086 23.3495 19.8029C23.3702 20.2972 23.288 20.7904 23.1083 21.2513C22.9285 21.7122 22.6551 22.1308 22.3052 22.4806C21.9554 22.8304 21.5367 23.1037 21.0758 23.2834C20.6148 23.463 20.1216 23.545 19.6273 23.5242C19.1331 23.5035 18.6485 23.3803 18.2042 23.1626C17.76 22.9448 17.3658 22.6373 17.0466 22.2594L12.8313 17.2793C11.5303 17.7929 10.1125 17.9367 8.73484 17.6949C7.35715 17.453 6.07319 16.8348 5.0249 15.9088C3.97661 14.9827 3.20485 13.7847 2.79492 12.4474C2.385 11.1101 2.35289 9.6854 2.70214 8.33095C2.75139 8.14063 2.85099 7.9671 2.99049 7.82859C3.12999 7.69009 3.30423 7.59172 3.49489 7.54383C3.68555 7.49595 3.88559 7.50031 4.07398 7.55646C4.26237 7.61262 4.43215 7.71849 4.56547 7.86295L7.86422 11.4455L10.3526 10.5301L11.2702 8.03845L7.68547 4.74511C7.54015 4.61183 7.43355 4.44175 7.37694 4.25287C7.32032 4.06398 7.31581 3.8633 7.36387 3.67206C7.41193 3.48082 7.51078 3.30612 7.64996 3.16643C7.78914 3.02675 7.96349 2.92728 8.15456 2.87853Z" fill="#8AE8FF"/>
</g>
</g>
<defs>
<filter id="filter0_d_6985_53813" x="-1.53809" y="-1.36133" width="28.8906" height="28.8887" filterUnits="userSpaceOnUse" color-interpolation-filters="sRGB">
<feFlood flood-opacity="0" result="BackgroundImageFix"/>
<feColorMatrix in="SourceAlpha" type="matrix" values="0 0 0 0 0 0 0 0 0 0 0 0 0 0 0 0 0 0 127 0" result="hardAlpha"/>
<feOffset/>
<feGaussianBlur stdDeviation="2"/>
<feComposite in2="hardAlpha" operator="out"/>
<feColorMatrix type="matrix" values="0 0 0 0 0 0 0 0 0 0 0 0 0 0 0 0 0 0 0.7 0"/>
<feBlend mode="normal" in2="BackgroundImageFix" result="effect1_dropShadow_6985_53813"/>
<feBlend mode="normal" in="SourceGraphic" in2="effect1_dropShadow_6985_53813" result="shape"/>
</filter>
<clipPath id="clip0_6985_53813">
<rect width="26" height="26" fill="white"/>
</clipPath>
</defs>
</svg>
