<svg width="26" height="26" viewBox="0 0 26 26" fill="none" xmlns="http://www.w3.org/2000/svg">
<g clip-path="url(#clip0_6985_53701)">
<g filter="url(#filter0_d_6985_53701)">
<path d="M8.25105 24.663C7.60633 24.663 7.05422 24.4333 6.59471 23.9737C6.13521 23.5142 5.90584 22.9625 5.90662 22.3186C5.90662 21.6739 6.13638 21.1218 6.59589 20.6622C7.05539 20.2027 7.60711 19.9734 8.25105 19.9742C8.89577 19.9742 9.44788 20.2039 9.90739 20.6634C10.3669 21.1229 10.5963 21.6746 10.5955 22.3186C10.5955 22.9633 10.3657 23.5154 9.90621 23.9749C9.44671 24.4344 8.89499 24.6638 8.25105 24.663ZM19.9732 24.663C19.3285 24.663 18.7764 24.4333 18.3168 23.9737C17.8573 23.5142 17.628 22.9625 17.6288 22.3186C17.6288 21.6739 17.8585 21.1218 18.318 20.6622C18.7775 20.2027 19.3292 19.9734 19.9732 19.9742C20.6179 19.9742 21.17 20.2039 21.6295 20.6634C22.089 21.1229 22.3184 21.6746 22.3176 22.3186C22.3176 22.9633 22.0879 23.5154 21.6283 23.9749C21.1688 24.4344 20.6171 24.6638 19.9732 24.663ZM6.14107 3.56318H23.4312C23.8806 3.56318 24.2225 3.76362 24.4569 4.16452C24.6913 4.56542 24.7011 4.97061 24.4862 5.38011L20.3248 12.8823C20.1099 13.273 19.8216 13.5758 19.4597 13.7907C19.0979 14.0056 18.7025 14.1131 18.2735 14.1131H9.54049L8.25105 16.4575H22.3176V18.8019H8.25105C7.37189 18.8019 6.70764 18.4159 6.25829 17.6438C5.80894 16.8717 5.7894 16.1051 6.19968 15.3439L7.78217 12.472L3.5622 3.56318H1.21777V1.21875H5.02747L6.14107 3.56318Z" fill="#4CC38A"/>
</g>
</g>
<defs>
<filter id="filter0_d_6985_53701" x="-2.78223" y="-2.78125" width="31.4229" height="31.4434" filterUnits="userSpaceOnUse" color-interpolation-filters="sRGB">
<feFlood flood-opacity="0" result="BackgroundImageFix"/>
<feColorMatrix in="SourceAlpha" type="matrix" values="0 0 0 0 0 0 0 0 0 0 0 0 0 0 0 0 0 0 127 0" result="hardAlpha"/>
<feOffset/>
<feGaussianBlur stdDeviation="2"/>
<feComposite in2="hardAlpha" operator="out"/>
<feColorMatrix type="matrix" values="0 0 0 0 0 0 0 0 0 0 0 0 0 0 0 0 0 0 0.7 0"/>
<feBlend mode="normal" in2="BackgroundImageFix" result="effect1_dropShadow_6985_53701"/>
<feBlend mode="normal" in="SourceGraphic" in2="effect1_dropShadow_6985_53701" result="shape"/>
</filter>
<clipPath id="clip0_6985_53701">
<rect width="26" height="26" fill="white"/>
</clipPath>
</defs>
</svg>
