<svg width="26" height="26" viewBox="0 0 26 26" fill="none" xmlns="http://www.w3.org/2000/svg">
<g clip-path="url(#clip0_6985_53819)">
<g filter="url(#filter0_d_6985_53819)">
<path d="M18.4167 2.16602C19.5659 2.16602 20.6681 2.62256 21.4808 3.43522C22.2935 4.24788 22.75 5.35008 22.75 6.49935V16.2493C22.7497 17.2343 22.4141 18.1897 21.7983 18.9585C21.1826 19.7272 20.3235 20.2633 19.3624 20.4787L21.2333 21.8827C21.3471 21.968 21.443 22.075 21.5155 22.1974C21.588 22.3198 21.6357 22.4553 21.6558 22.5961C21.6759 22.737 21.6681 22.8804 21.6328 23.0182C21.5975 23.156 21.5354 23.2855 21.45 23.3993C21.3646 23.5132 21.2577 23.609 21.1353 23.6815C21.0129 23.754 20.8774 23.8017 20.7365 23.8218C20.5957 23.8419 20.4523 23.8341 20.3145 23.7988C20.1767 23.7635 20.0471 23.7014 19.9333 23.616L15.8892 20.5827H10.1108L6.06667 23.616C5.95285 23.7014 5.82334 23.7635 5.68553 23.7988C5.54771 23.8341 5.4043 23.8419 5.26346 23.8218C4.97903 23.7812 4.72239 23.6292 4.55 23.3993C4.37761 23.1695 4.30359 22.8806 4.34422 22.5961C4.38485 22.3117 4.53681 22.0551 4.76667 21.8827L6.63758 20.4787C5.6764 20.2635 4.81717 19.7274 4.20141 18.9586C3.58565 18.1899 3.25009 17.2343 3.25 16.2493V6.49935C3.25 5.35008 3.70655 4.24788 4.5192 3.43522C5.33186 2.62256 6.43406 2.16602 7.58333 2.16602H18.4167ZM8.9375 14.3535C8.57835 14.3535 8.23392 14.4962 7.97996 14.7501C7.726 15.0041 7.58333 15.3485 7.58333 15.7077C7.58333 16.0668 7.726 16.4113 7.97996 16.6652C8.23392 16.9192 8.57835 17.0618 8.9375 17.0618C9.29665 17.0618 9.64109 16.9192 9.89504 16.6652C10.149 16.4113 10.2917 16.0668 10.2917 15.7077C10.2917 15.3485 10.149 15.0041 9.89504 14.7501C9.64109 14.4962 9.29665 14.3535 8.9375 14.3535ZM17.0625 14.3535C16.7034 14.3535 16.3589 14.4962 16.105 14.7501C15.851 15.0041 15.7083 15.3485 15.7083 15.7077C15.7083 16.0668 15.851 16.4113 16.105 16.6652C16.3589 16.9192 16.7034 17.0618 17.0625 17.0618C17.4216 17.0618 17.7661 16.9192 18.02 16.6652C18.274 16.4113 18.4167 16.0668 18.4167 15.7077C18.4167 15.3485 18.274 15.0041 18.02 14.7501C17.7661 14.4962 17.4216 14.3535 17.0625 14.3535ZM17.875 5.41602H8.125C7.72104 5.41603 7.33158 5.56651 7.03255 5.8381C6.73352 6.10969 6.54636 6.48292 6.50758 6.88502L6.5 7.04102V10.291C6.50002 10.695 6.6505 11.0844 6.92209 11.3835C7.19368 11.6825 7.56691 11.8697 7.969 11.9084L8.125 11.916H17.875C18.279 11.916 18.6684 11.7655 18.9675 11.4939C19.2665 11.2223 19.4536 10.8491 19.4924 10.447L19.5 10.291V7.04102C19.5 6.63706 19.3495 6.24759 19.0779 5.94856C18.8063 5.64953 18.4331 5.46238 18.031 5.4236L17.875 5.41602ZM17.3333 7.58268V9.74935H8.66667V7.58268H17.3333Z" fill="#369EFF"/>
</g>
</g>
<defs>
<filter id="filter0_d_6985_53819" x="-0.75" y="-1.83398" width="27.5" height="29.666" filterUnits="userSpaceOnUse" color-interpolation-filters="sRGB">
<feFlood flood-opacity="0" result="BackgroundImageFix"/>
<feColorMatrix in="SourceAlpha" type="matrix" values="0 0 0 0 0 0 0 0 0 0 0 0 0 0 0 0 0 0 127 0" result="hardAlpha"/>
<feOffset/>
<feGaussianBlur stdDeviation="2"/>
<feComposite in2="hardAlpha" operator="out"/>
<feColorMatrix type="matrix" values="0 0 0 0 0 0 0 0 0 0 0 0 0 0 0 0 0 0 0.7 0"/>
<feBlend mode="normal" in2="BackgroundImageFix" result="effect1_dropShadow_6985_53819"/>
<feBlend mode="normal" in="SourceGraphic" in2="effect1_dropShadow_6985_53819" result="shape"/>
</filter>
<clipPath id="clip0_6985_53819">
<rect width="26" height="26" fill="white"/>
</clipPath>
</defs>
</svg>
