<svg width="32" height="36" viewBox="0 0 32 36" fill="none" xmlns="http://www.w3.org/2000/svg">
<g filter="url(#filter0_d_7021_53671)">
<path d="M16 4.66602C19.1826 4.66602 22.2348 5.9303 24.4853 8.18073C26.7357 10.4312 28 13.4834 28 16.666C28 20.7647 25.7653 24.1194 23.4107 26.526C22.234 27.7152 20.9504 28.7935 19.576 29.7474L19.008 30.134L18.7413 30.3113L18.2387 30.6314L17.7907 30.9047L17.236 31.2273C16.8593 31.4417 16.4334 31.5545 16 31.5545C15.5666 31.5545 15.1407 31.4417 14.764 31.2273L14.2093 30.9047L13.516 30.478L13.26 30.3113L12.7133 29.9473C11.2306 28.9438 9.84942 27.7979 8.58933 26.526C6.23467 24.1167 4 20.7647 4 16.666C4 13.4834 5.26428 10.4312 7.51472 8.18073C9.76515 5.9303 12.8174 4.66602 16 4.66602ZM16 12.666C15.4747 12.666 14.9546 12.7695 14.4693 12.9705C13.984 13.1715 13.543 13.4662 13.1716 13.8376C12.8001 14.209 12.5055 14.65 12.3045 15.1353C12.1035 15.6206 12 16.1407 12 16.666C12 17.1913 12.1035 17.7114 12.3045 18.1967C12.5055 18.6821 12.8001 19.123 13.1716 19.4944C13.543 19.8659 13.984 20.1605 14.4693 20.3615C14.9546 20.5626 15.4747 20.666 16 20.666C17.0609 20.666 18.0783 20.2446 18.8284 19.4944C19.5786 18.7443 20 17.7269 20 16.666C20 15.6052 19.5786 14.5877 18.8284 13.8376C18.0783 13.0874 17.0609 12.666 16 12.666Z" fill="#57FFAF"/>
</g>
<defs>
<filter id="filter0_d_7021_53671" x="0" y="0.666016" width="32" height="34.8887" filterUnits="userSpaceOnUse" color-interpolation-filters="sRGB">
<feFlood flood-opacity="0" result="BackgroundImageFix"/>
<feColorMatrix in="SourceAlpha" type="matrix" values="0 0 0 0 0 0 0 0 0 0 0 0 0 0 0 0 0 0 127 0" result="hardAlpha"/>
<feOffset/>
<feGaussianBlur stdDeviation="2"/>
<feComposite in2="hardAlpha" operator="out"/>
<feColorMatrix type="matrix" values="0 0 0 0 0 0 0 0 0 0 0 0 0 0 0 0 0 0 0.7 0"/>
<feBlend mode="normal" in2="BackgroundImageFix" result="effect1_dropShadow_7021_53671"/>
<feBlend mode="normal" in="SourceGraphic" in2="effect1_dropShadow_7021_53671" result="shape"/>
</filter>
</defs>
</svg>
