<svg width="54" height="52" viewBox="0 0 54 52" fill="none" xmlns="http://www.w3.org/2000/svg">
<g opacity="0.15" clip-path="url(#clip0_305_272)">
<path opacity="0.5" d="M39.8927 8.99109C39.8927 8.99109 36.1557 4.07843 31.4844 2.31729C31.4844 2.31729 26.5329 7.04456 24.1972 7.60071C21.8616 8.15686 18.872 8.34225 14.481 9.63993C10.09 10.9376 8.87543 12.6988 4.95155 14.2745C1.02768 15.8503 1.1211 16.7772 2.42906 17.7041C3.73702 18.631 6.07266 18.3529 8.12802 17.7041C12.0519 16.3137 14.3875 14.8307 14.2007 16.3137C14.0138 17.7968 9.43598 22.7094 6.82006 25.3048C4.20415 27.8075 -0.747411 33.9251 0.0934193 35.8717C0.747399 36.6132 2.42906 36.057 3.92387 34.2032C5.41868 32.3494 10.1834 26.9733 11.2111 27.5294C12.3322 28.0856 7.56747 31.6078 6.25951 33.4617C5.04498 35.1301 1.4948 38.467 1.40138 40.7843C1.40138 41.1551 1.77508 41.5258 2.14878 41.6185C3.45674 41.9893 4.85813 40.5989 6.72664 38.3743C9.90311 34.7594 11.865 32.2567 12.519 32.9055C13.173 33.5544 8.68857 37.5401 6.72664 39.8574C4.85813 42.1747 4.29757 43.9358 6.25951 43.6578C8.22145 43.3797 12.1453 39.672 12.1453 39.672C12.1453 39.672 11.5848 41.2478 12.2387 41.7112C12.8927 42.1747 15.1349 42.3601 21.301 34.9447C27.4671 27.5294 39.8927 8.99109 39.8927 8.99109Z" fill="white"/>
<path d="M40.2664 0C40.2664 0 37.5571 5.09804 35.6886 6.95187C33.7266 8.8984 32.7924 8.71301 28.6817 10.3815C24.1038 12.2353 19.6194 16.4064 18.4983 17.148C17.4706 17.8895 16.0692 20.6702 14.5744 23.9144C13.7336 25.7683 14.481 27.4367 17.2837 26.2317C20.0865 25.0267 21.7682 22.0606 22.8893 20.4848C24.1038 18.7237 25.0381 19.9287 24.0104 21.5971C23.4498 22.5241 21.4879 24.8414 20.8339 26.4171C18.4983 31.7932 15.2284 37.262 14.3875 40.4135C13.5467 43.5651 13.3599 44.7701 14.5744 45.5116C15.5086 46.0677 17.2837 44.5847 19.2457 41.2478C21.7682 36.7986 23.4498 31.5152 24.5709 31.5152C26.346 31.4225 23.3564 36.4278 19.8062 43.1016C16.2561 49.7754 18.872 51.0731 20.0865 50.2389C21.5813 49.2193 22.5156 47.5508 24.9446 42.1747C27.3737 36.8913 29.1488 33.0909 29.9896 33.7398C31.1107 34.4813 24.2907 46.4385 23.6367 48.7558C22.9827 51.0731 24.4775 53.8538 26.9066 50.8877C29.3356 47.9216 32.1384 41.3405 33.3529 38.9305C34.5675 36.5205 35.128 35.6863 35.782 35.8717C36.436 36.057 35.2215 38.7451 33.8201 42.9162C32.6055 46.5312 29.9896 50.1462 32.3253 51.0731C34.474 51.9073 37.09 46.6239 38.9585 42.4528C41.3875 36.984 41.8547 35.5936 41.8547 35.5936C41.8547 35.5936 45.0311 33.7398 48.0208 26.139C51.0104 18.5383 49.9827 17.7968 51.4775 13.0695C52.9723 8.34225 54 6.76649 54 6.76649C54 6.76649 46.9931 5.83957 40.2664 0Z" fill="white"/>
</g>
<defs>
<clipPath id="clip0_305_272">
<rect width="54" height="52" fill="white"/>
</clipPath>
</defs>
</svg>
