<svg width="24" height="16" viewBox="0 0 24 16" fill="none" xmlns="http://www.w3.org/2000/svg">
	<g clip-path="url(#clip0_318_419)">
		<path d="M24 0.513369C24 0.213904 23.7387 0 23.4338 0H23.0853H2.56988H2.43921C2.13431 0 1.91652 0.256684 1.91652 0.55615V2.35294L1.87297 2.56684C1.87297 2.56684 1.52451 2.78075 1.52451 3.12299C1.52451 3.46524 1.74229 3.72193 2.04719 3.76471C2.3521 3.76471 2.87478 3.67914 3.48458 4.40642C4.09438 5.17647 3.83304 6.41711 2.52632 9.02674C1.21961 11.6364 0.522694 12.4492 0.13068 13.9037C-0.261335 15.3583 0.304908 15.9572 1.35028 15.9572C2.43921 15.9572 3.78948 15.9572 5.66244 15.9572C5.79311 15.9572 5.96734 15.9572 6.05445 15.9144C6.40291 15.9144 6.79493 15.8289 7.14338 15.615C7.57896 15.3583 7.57896 14.8449 7.57896 14.631C7.70963 12.1925 9.53903 8.59893 9.58259 8.47059C9.58259 8.47059 9.84393 7.87166 10.2795 7.82888C10.7151 7.7861 10.8457 8.08556 12.0218 8.17112C12.7187 8.2139 15.637 8.2139 16.2904 8.2139C16.9437 8.2139 16.9873 8.04278 16.8131 7.7861C16.6388 7.52941 16.5517 7.27273 16.5517 6.97326C16.5517 6.6738 16.5517 6.80214 16.5517 5.9893C16.5517 5.17647 17.118 4.53476 18.0762 4.53476C18.1633 4.53476 18.2069 4.53476 18.294 4.53476H18.8167C19.9492 4.49198 19.6878 4.49198 20.6897 4.4492H21.4737C22.2577 4.4492 22.9546 4.40642 23.3466 4.40642C23.6516 4.40642 23.8693 4.19251 23.8693 3.89305L24 0.513369ZM14.6788 7.70053C13.5027 7.7861 12.7623 7.7861 12.1089 7.74332C11.4555 7.70053 10.7586 7.57219 10.7151 6.37433C10.7151 6.20321 10.7151 6.07487 10.7586 5.90374C11.02 6.11765 11.5427 6.24599 11.5427 6.24599C11.804 6.84492 12.2831 7.22995 12.4574 7.35829C12.5009 7.40107 12.5445 7.40107 12.588 7.35829L12.7187 7.27273C12.7623 7.22995 12.7623 7.18717 12.7187 7.14439C12.6316 7.05882 12.5445 6.84492 12.4574 6.45989C12.3267 5.94652 12.5009 5.13369 12.5445 4.87701C12.588 4.87701 12.588 4.87701 12.6316 4.87701C13.9383 4.74866 14.8966 4.53476 15.4192 4.91979C15.8113 5.21925 15.9419 5.51872 15.9419 6.24599C15.9419 6.93048 15.8548 7.61497 14.6788 7.70053Z" fill="white" />
	</g>
	<defs>
		<clipPath id="clip0_318_419">
			<rect width="24" height="16" fill="white" />
		</clipPath>
	</defs>
</svg>
