<svg width="55" height="43" viewBox="0 0 55 43" fill="none" xmlns="http://www.w3.org/2000/svg">
<g opacity="0.15" clip-path="url(#clip0_305_245)">
<path d="M34.4 3C35.2 2.8 35.8 2.2 35.8 1.6C35.8 0.7 34.8 0 33.5 0C32.2 0 31.2 0.7 31.2 1.5C21.4 2.2 14.2 6 13.7 11.7C13.2 18.1 12.8 27.5 12.8 27.5C12.8 27.5 14 34 33.6 34.3C33.7 34.3 33.9 34.3 34 34.3H34.1C36.5 34.3 38.6 34.2 40.4 33.9C40.4 31.9 40.4 22.2 40.4 17.8C40.4 13.1 39.5 8.9 34.4 3Z" fill="white"/>
<path opacity="0.5" d="M53.9 16.3C52.8 7.1 45.9 2.1 35.8 1.5V1.6C35.8 2.2 35.2 2.8 34.4 3C37.6 6.7 39.2 9.7 39.9 12.6C40 12.9 40 13.2 40.1 13.4C40.1 13.4 40.1 13.4 40.1 13.5C40.2 13.8 40.2 14 40.2 14.3V14.4C40.2 14.7 40.3 14.9 40.3 15.2C40.3 15.3 40.3 15.3 40.3 15.4C40.3 15.6 40.3 15.8 40.4 16.1C40.4 16.2 40.4 16.3 40.4 16.5C40.4 16.7 40.4 16.8 40.4 17C40.4 17.3 40.4 17.6 40.4 17.9C40.4 22.2 40.4 31.9 40.4 34C38.6 34.2 36.5 34.4 34.1 34.4H34C33.9 34.4 33.7 34.4 33.6 34.4C14 34 12.8 27.5 12.8 27.5C12.8 27.5 12.8 27.3 12.8 27C12.8 26.7 12.8 26.4 12.8 26V25.9C12.8 25.2 12.9 24.4 12.9 23.4C10.5 24.5 3.5 27.9 1.3 30.3C-1.1 32.9 -1.4 37.2 10 40.5C21.4 43.7 28.8 43.6 38.9 38C41.8 36.4 43.6 34.6 44.8 33.1C52.7 31.1 54 27.1 54 27.1C54 27.1 54.3 20.1 53.9 16.3Z" fill="white"/>
</g>
<defs>
<clipPath id="clip0_305_245">
<rect width="54.1" height="42.6" fill="white"/>
</clipPath>
</defs>
</svg>
