<svg width="20" height="27" viewBox="0 0 20 27" fill="none" xmlns="http://www.w3.org/2000/svg">
<path d="M2.5 26.5C1.8125 26.5 1.22417 26.2554 0.735 25.7663C0.245 25.2763 0 24.6875 0 24V11.5C0 10.8125 0.245 10.2237 0.735 9.73375C1.22417 9.24458 1.8125 9 2.5 9H3.75V6.5C3.75 4.77083 4.35958 3.29667 5.57875 2.0775C6.79708 0.859167 8.27083 0.25 10 0.25C11.7292 0.25 13.2033 0.859167 14.4225 2.0775C15.6408 3.29667 16.25 4.77083 16.25 6.5V9H17.5C18.1875 9 18.7763 9.24458 19.2663 9.73375C19.7554 10.2237 20 10.8125 20 11.5V24C20 24.6875 19.7554 25.2763 19.2663 25.7663C18.7763 26.2554 18.1875 26.5 17.5 26.5H2.5ZM10 20.25C10.6875 20.25 11.2763 20.0054 11.7663 19.5163C12.2554 19.0263 12.5 18.4375 12.5 17.75C12.5 17.0625 12.2554 16.4737 11.7663 15.9837C11.2763 15.4946 10.6875 15.25 10 15.25C9.3125 15.25 8.72417 15.4946 8.235 15.9837C7.745 16.4737 7.5 17.0625 7.5 17.75C7.5 18.4375 7.745 19.0263 8.235 19.5163C8.72417 20.0054 9.3125 20.25 10 20.25ZM6.25 9H13.75V6.5C13.75 5.45833 13.3854 4.57292 12.6562 3.84375C11.9271 3.11458 11.0417 2.75 10 2.75C8.95833 2.75 8.07292 3.11458 7.34375 3.84375C6.61458 4.57292 6.25 5.45833 6.25 6.5V9Z" fill="white" fill-opacity="0.1"/>
</svg>