<svg width="265" height="628" viewBox="0 0 265 628" fill="none" xmlns="http://www.w3.org/2000/svg">
	<g opacity="0.1">
		<mask id="mask0_313_350" style="mask-type:alpha" maskUnits="userSpaceOnUse" x="-1" y="0" width="266" height="629">
			<path d="M259.702 361.168C259.702 361.168 262.018 300.772 260.629 275.569C259.239 250.365 252.289 250.829 250.205 238.17C244.993 207.391 237.348 193.221 237.348 193.221C237.348 193.221 238.854 169.992 232.716 153.267C222.407 130.038 201.096 128.644 186.155 125.624C171.214 122.605 159.053 112.848 157.431 108.319C156.157 104.486 156.968 84.6249 157.316 78.3531C158.011 76.727 158.59 74.9848 159.169 73.3588C159.4 72.5458 160.327 72.0812 161.138 72.1973C162.528 72.5458 164.497 71.5005 166.35 68.3645C169.709 62.7895 172.604 50.2458 169.94 48.1552C168.087 46.6453 165.076 49.2005 163.57 50.7104C164.265 43.9739 164.381 37.9343 164.381 33.5208C164.381 15.6344 149.903 1 132.182 1C132.182 1 132.182 1 132.067 1C132.067 1 132.067 1 131.951 1C114.114 1 99.7523 15.6344 99.7523 33.5208C99.7523 37.9343 99.8681 43.9739 100.563 50.7104C99.0573 49.2005 96.1618 46.5291 94.1928 48.1552C91.6447 50.2458 94.4245 62.9057 97.7833 68.3645C99.6364 71.5005 101.605 72.5458 102.995 72.1973C103.806 71.965 104.617 72.5458 104.964 73.3588C105.543 75.101 106.122 76.727 106.817 78.3531C107.165 84.5088 107.976 104.486 106.702 108.319C105.196 112.848 92.9188 122.605 77.9778 125.624C63.0368 128.644 41.7256 130.038 31.4175 153.267C25.2789 169.992 26.7846 193.221 26.7846 193.221C26.7846 193.221 19.0246 207.391 13.9284 238.17C11.8436 250.829 4.89431 250.481 3.50445 275.569C2.11459 300.772 4.43102 361.168 4.43102 361.168C4.66266 370.111 -0.433491 390.088 0.0297955 397.638C0.377261 405.303 9.29553 424.119 29.4485 432.249C33.2706 433.759 33.039 428.3 26.4371 423.654C19.8353 419.008 14.6233 409.02 14.6233 399.961C14.6233 390.901 15.8974 390.785 17.6347 390.088C19.2562 389.275 26.2055 409.833 32.8073 408.091C39.4092 406.349 29.4485 395.082 28.4061 387.301C27.4795 379.519 26.4371 372.434 22.2676 367.904C19.1404 364.536 19.1404 358.148 22.615 350.018C26.0897 341.888 42.6522 300.308 42.768 272.549C42.9996 244.906 47.7483 244.906 53.5394 229.923C59.3305 215.057 59.9096 211.34 59.9096 211.34C59.9096 211.34 64.8899 233.988 71.2601 250.481C77.6303 266.974 74.9664 286.254 73.3449 294.965C71.8392 303.676 72.1867 314.361 74.8506 318.194C74.8506 318.194 70.2177 322.027 69.0595 334.222C67.9013 346.417 66.3956 356.987 63.8475 373.944C61.2995 390.901 57.2457 439.102 70.7968 510.996C74.0399 528.069 70.1019 523.54 72.4183 543.168C74.2715 552.46 74.8506 557.222 74.8506 557.222C74.8506 557.222 70.2177 585.329 75.893 627.955H109.597C109.597 627.955 116.083 603.216 114.462 584.284C112.956 565.468 108.323 561.287 112.608 535.503C116.894 509.718 113.419 488.58 120.021 460.705C126.739 432.83 125.465 399.031 125.465 399.031L131.487 398.915L137.51 399.031C137.51 399.031 136.236 432.83 142.954 460.705C149.671 488.58 146.081 509.718 150.366 535.503C154.768 561.287 150.135 565.468 148.513 584.284C147.008 603.099 153.378 627.955 153.378 627.955H187.082C192.757 585.329 188.124 557.222 188.124 557.222C188.124 557.222 188.819 552.46 190.556 543.168C192.873 523.54 189.051 528.069 192.178 510.996C205.729 439.102 201.675 390.901 199.127 373.944C196.579 356.987 195.074 346.417 193.915 334.222C192.757 322.027 188.124 318.194 188.124 318.194C190.788 314.361 191.251 303.676 189.63 294.965C188.124 286.254 185.344 266.858 191.715 250.481C198.085 233.988 203.065 211.34 203.065 211.34C203.065 211.34 203.644 215.057 209.435 229.923C215.226 244.79 220.091 244.79 220.207 272.549C220.438 300.191 236.885 341.888 240.36 350.018C243.834 358.148 243.834 364.652 240.707 367.904C236.538 372.434 235.495 379.519 234.569 387.301C233.642 395.082 223.566 406.349 230.167 408.091C236.769 409.833 243.719 389.391 245.34 390.088C246.962 390.901 248.351 390.901 248.351 399.961C248.351 409.02 243.14 419.008 236.538 423.654C229.936 428.3 229.704 433.759 233.526 432.249C253.679 424.119 262.598 405.303 262.945 397.638C264.567 390.088 259.47 370.111 259.702 361.168Z" stroke="white" stroke-width="2" stroke-miterlimit="10" />
		</mask>
		<g mask="url(#mask0_313_350)">
			<path d="M366.682 -3.46466L129.682 -3.46484L106.182 482.535H53.6823V522.535L366.682 522.536V-3.46466Z" fill="white" />
		</g>
	</g>
</svg>
