<svg width="55" height="54" viewBox="0 0 55 54" fill="none" xmlns="http://www.w3.org/2000/svg">
<g opacity="0.15" clip-path="url(#clip0_312_332)">
<path d="M20.9524 6.75C16.9787 5.13 12.0115 8.1 9.93433 13.32C7.85715 18.54 9.39245 24.03 13.3662 25.65C17.3399 27.27 22.3071 24.3 24.3842 19.08C26.4614 13.86 24.9261 8.28 20.9524 6.75ZM22.3071 18.27C20.5911 22.59 16.7077 25.2 13.6371 23.94C10.6568 22.77 9.57308 18.18 11.3793 13.86C13.1856 9.54 16.9787 6.93 20.0493 8.19C23.0296 9.36 24.023 13.86 22.3071 18.27Z" fill="white"/>
<path d="M0.180633 34.56L8.39902 32.22C8.39902 32.22 9.21183 31.95 10.4762 35.55C11.7406 39.15 14.179 46.98 14.3596 50.13C14.4499 51.12 14.4499 51.48 13.5468 51.75C12.5534 52.02 7.13466 53.64 6.50247 53.82C5.87029 54 5.59935 54 4.96717 52.56C4.33498 51.3 1.26438 42.57 0.270945 37.62C-0.270927 34.65 0.180633 34.56 0.180633 34.56Z" fill="white"/>
<path d="M54.8194 34.56L46.601 32.22C46.601 32.22 45.7882 31.95 44.5238 35.55C43.2595 39.15 40.7307 47.07 40.6404 50.22C40.5501 51.21 40.5501 51.57 41.4532 51.84C42.3563 52.11 47.8654 53.73 48.4976 53.91C49.1297 54.09 49.4007 54.09 50.0329 52.65C50.5747 51.3 53.7357 42.48 54.6388 37.62C55.271 34.65 54.8194 34.56 54.8194 34.56Z" fill="white"/>
<path d="M30.2545 19.08C32.3317 24.3 37.2989 27.27 41.2726 25.65C45.2463 24.03 46.7816 18.54 44.7044 13.32C42.6273 8.1 37.6601 5.13 33.6864 6.75C29.7126 8.28 28.1773 13.86 30.2545 19.08ZM34.5895 8.19C37.5698 7.02 41.4532 9.54 43.2594 13.86C44.9754 18.18 43.9819 22.77 41.0016 23.94C38.0213 25.11 34.1379 22.59 32.3317 18.27C30.5255 13.86 31.6092 9.36 34.5895 8.19Z" fill="white"/>
<path d="M27.4548 25.92C21.8555 25.92 17.3399 30.42 17.3399 36C17.3399 41.58 21.8555 46.08 27.4548 46.08C33.0542 46.08 37.5698 41.58 37.5698 36C37.5698 30.42 33.0542 25.92 27.4548 25.92ZM27.4548 27.54C30.5255 27.54 33.3251 29.25 34.7701 31.68L31.0673 33.84C30.3448 32.67 28.9902 31.86 27.5452 31.86C26.0099 31.86 24.7455 32.67 24.023 33.84L20.3202 31.68C21.6749 29.25 24.3842 27.54 27.4548 27.54ZM27.4548 38.07C26.3711 38.07 25.3777 37.17 25.3777 36C25.3777 34.92 26.2808 33.93 27.4548 33.93C28.5386 33.93 29.532 34.83 29.532 36C29.532 37.08 28.6289 38.07 27.4548 38.07ZM19.0558 36C19.0558 34.74 19.3268 33.57 19.7783 32.49L23.5714 34.65C23.3908 35.1 23.3908 35.46 23.3908 35.91C23.3908 38.07 25.0164 39.78 27.0936 40.05V44.37C22.578 44.19 19.0558 40.5 19.0558 36ZM27.9064 44.46V40.14C29.9836 39.87 31.6092 38.16 31.6092 36C31.6092 35.55 31.5189 35.1 31.4286 34.74L35.2217 32.58C35.6732 33.66 35.9442 34.83 35.9442 36.09C35.9442 40.5 32.422 44.19 27.9064 44.46Z" fill="white"/>
<path opacity="0.5" d="M41.092 33.75C40.2792 32.85 42.0854 26.37 43.3498 24.12C43.3498 24.12 47.1429 20.34 44.4335 12.96C43.711 10.98 42.537 9.63 42.537 9.63C42.537 9.63 41.8145 5.94 36.6667 3.6C36.6667 3.6 34.2283 0.36 27.5452 0H27.2742C20.5008 0.36 18.0624 3.6 18.0624 3.6C12.9146 5.94 12.1921 9.63 12.1921 9.63C12.1921 9.63 11.0181 10.98 10.2956 12.96C7.67653 20.25 11.3793 24.12 11.3793 24.12C12.6437 26.46 14.5402 32.94 13.6371 33.75C12.2824 35.19 12.2824 36 12.2824 36L10.6568 36.81L13.4565 46.17L15.2627 45.63L16.3465 46.26C16.7077 46.53 17.2496 46.62 17.7012 46.53C18.4237 46.44 19.5977 46.35 20.3202 46.35C22.8489 46.53 23.7521 48.06 27.3645 48.15C27.3645 48.15 27.4549 48.15 27.5452 48.15C27.6355 48.15 27.7258 48.15 27.7258 48.15C31.3383 48.06 32.2414 46.62 34.7701 46.35C35.4926 46.26 36.6667 46.44 37.3892 46.53C37.8407 46.62 38.2923 46.53 38.7439 46.26L39.8276 45.63L41.6338 46.17L44.4335 36.81L42.8079 36C42.3563 36.09 42.4466 35.19 41.092 33.75ZM22.3071 19.53C20.7718 23.94 18.6043 26.37 17.4302 24.84C16.2562 23.4 16.4368 18.54 17.9721 14.13C19.5074 9.72 21.6749 7.29 22.8489 8.82C24.1133 10.35 23.8424 15.12 22.3071 19.53ZM37.5698 24.84C36.3957 26.28 34.1379 23.94 32.693 19.53C31.1576 15.12 30.8867 10.35 32.1511 8.82C33.3251 7.38 35.5829 9.72 37.0279 14.13C38.5632 18.63 38.8342 23.4 37.5698 24.84Z" fill="white"/>
</g>
<defs>
<clipPath id="clip0_312_332">
<rect width="55" height="54" fill="white"/>
</clipPath>
</defs>
</svg>
