<svg width="60" height="57" viewBox="0 0 60 57" fill="none" xmlns="http://www.w3.org/2000/svg">
<g opacity="0.15" clip-path="url(#clip0_305_240)">
<path d="M19.5 37.6L19.3 37.5L19.5 37.6Z" fill="white"/>
<path d="M58 5.9C57.9 5.9 57.9 5.8 57.9 5.7C57.9 5.6 57.9 5.5 58 5.5C58 5.5 59.2 4.4 59.2 3.2C59.2 2 57.9 1.6 57.8 1.6C57.7 1.6 57.7 1.6 57.7 1.5L57.5 1.2C56.5 2.98023e-06 55.1 -0.199997 53.5 0.700003C52 1.6 52.6 3.9 52.6 3.9C52.6 4 52.6 4.1 52.5 4.2C51 5.6 51.2 6.8 51.2 6.8C51.2 6.9 51.2 7 51.1 7C51 7.1 51 7.1 50.9 7.1C50.9 7.1 50.3 7.1 49 8.2C47.8 9.2 48.2 10.4 48.2 10.5C48.3 10.6 48.2 10.8 48.1 10.9C48.1 10.9 47.3 11.4 46.3 12.4C45.5 13.3 45.8 13.8 45.8 13.9C45.8 14 45.9 14.1 45.8 14.1C45.8 14.2 45.7 14.2 45.7 14.3C45.7 14.3 45 14.6 44.4 15.1C42.7 16.2 43 17.2 43 17.2C43 17.4 42.9 17.5 42.8 17.5C40.2 18.2 40.1 19.7 40.1 19.8C40.1 19.9 40 20.1 39.8 20.1C37.3 20.2 36.7 22 36.7 22C36.7 22.1 36.5 22.2 36.4 22.2C33.9 21.9 33 23.3 32.9 23.4C32.8 23.5 32.7 23.5 32.6 23.5C30.1 22.9 29.2 24 29.2 24C29.1 24.1 29 24.1 28.8 24.1C27 23 25.1 23.7 25.1 23.7C25 23.7 24.9 23.7 24.8 23.6C23.3 21.9 21.6 22.4 21.5 22.4C21.4 22.4 21.2 22.4 21.2 22.3C20.2 20.4 18.3 20.5 18.2 20.5C18.1 20.5 18 20.4 17.9 20.3C16.9 18.1 15 18 15 18C14.9 18 14.8 17.9 14.7 17.8C14 15.1 12.2 15 12.1 15C12 15 11.8 14.9 11.8 14.7C11.5 12.4 9.59999 11.8 9.49999 11.8C9.39999 11.8 9.39999 11.7 9.29999 11.7C9.29999 11.6 9.29999 11.6 9.29999 11.5C10.2 8.5 7.99999 7.6 7.89999 7.6C7.79999 7.6 7.69999 7.4 7.69999 7.3C7.99999 3.8 5.79999 3.5 5.79999 3.5C5.69999 3.5 5.69999 3.5 5.59999 3.4C5.59999 3.3 5.49999 3.3 5.49999 3.2C5.69999 2.2 5.29999 1.2 4.49999 0.600003C3.69999 -0.0999969 2.69999 -0.199997 1.79999 0.300003C1.49999 0.400003 1.29999 0.900003 1.29999 1.1C1.29999 1.2 1.19999 1.3 0.999994 1.3C0.999994 1.3 0.699994 1.3 0.399994 1.8C-0.700006 3.2 0.699994 4.9 0.699994 5C0.799994 5.1 0.799994 5.2 0.699994 5.3C-0.800006 7.5 0.899994 9.5 0.999994 9.6C0.999994 9.6 0.999994 9.7 0.999994 9.8C0.399994 12.1 1.79999 14 1.79999 14C1.79999 14.1 1.89999 14.1 1.89999 14.2C1.49999 16.8 2.69999 18.2 2.69999 18.2C2.79999 18.3 2.79999 18.3 2.79999 18.4C2.39999 21.1 3.89999 22.3 3.89999 22.3C3.89999 22.5 3.99999 22.6 3.99999 22.7C3.69999 25.7 5.19999 26.8 5.19999 26.8C5.29999 26.9 5.29999 27 5.29999 27.1C5.09999 29.6 6.59999 30.9 6.69999 31C6.79999 31.1 6.79999 31.1 6.79999 31.2C6.79999 33.6 8.39999 35 8.39999 35C8.49999 35 8.49999 35.1 8.49999 35.2C8.89999 38.2 10.3 38.9 10.4 38.9C10.5 38.9 10.6 39 10.6 39.1C10.8 42 12.3 42.5 12.3 42.5C12.4 42.5 12.5 42.6 12.5 42.7C13 45.6 14.7 46.3 14.8 46.3C14.9 46.3 15 46.4 15 46.5C15.2 48.9 17.5 49.7 17.5 49.7C17.6 49.7 17.6 49.8 17.7 49.8C18.9 52.4 20.8 52.6 20.9 52.6C21 52.6 21.1 52.7 21.1 52.8C22.5 55.4 24.8 55 24.8 55C24.9 55 25 55 25.1 55.1C26.8 57 29.3 56 29.4 55.9H29.5H29.6C32.3 57.2 34 55.6 34 55.6C34.1 55.5 34.1 55.5 34.2 55.5C37.5 55.6 38.2 53.6 38.2 53.5C38.2 53.4 38.3 53.3 38.4 53.3C40.9 52.8 41.5 51.1 41.6 51C41.6 50.9 41.7 50.8 41.8 50.8C44.4 50 44.4 47.8 44.4 47.7C44.4 47.6 44.5 47.5 44.6 47.4C47.3 46.4 47 44.1 47 44C47 43.9 47 43.7 47.2 43.7C49.7 42.6 49.4 40.2 49.4 40.1C49.4 40 49.4 39.9 49.5 39.8C51.1 38.9 50.9 36.3 50.9 36.2C50.9 36.1 50.9 36 51 35.9C52.9 34.5 52.6 32.2 52.6 32.2C52.6 32.1 52.6 32 52.7 31.9C54.4 30.6 53.9 28 53.9 27.9C53.9 27.8 53.9 27.7 54 27.6C55.6 26.4 55.2 23.5 55.2 23.4C55.2 23.3 55.2 23.2 55.3 23.1C56.7 21.9 56.3 19.1 56.3 19.1C56.3 19 56.3 18.9 56.4 18.9C58.1 17 57.2 14.7 57.2 14.7C57.2 14.6 57.2 14.5 57.2 14.4C57.2 14.4 58 13.5 58.3 12.3C58.7 11.2 58.2 10.5 58.2 10.5C58.1 10.4 58.1 10.3 58.2 10.2C58.6 9.4 58.8 8.5 59 7.5C59 6.7 58.1 6 58 5.9ZM53.6 2.2C53.8 1.6 54.5 1.2 55.1 1.2C55.2 1.2 55.3 1.3 55.3 1.4C55.3 1.5 55.3 1.6 55.3 1.7C54.8 2.3 54.6 2.9 54.5 3.7V3.8C54.5 3.9 54.4 4 54.3 4H54.2C54.1 4 54.1 4 54 3.9C53.5 3.5 53.4 2.8 53.6 2.2ZM51.8 11.7C52 11.4 52.2 11.2 52.4 11C52.5 10.9 52.7 10.7 52.9 10.6C53.1 10.5 53.4 10.4 53.7 10.5C53.8 10.5 53.9 10.6 53.9 10.7C54 11 53.6 12.3 53.4 12.5C53.3 12.6 53.1 12.7 52.9 12.7C52.5 12.7 52.1 12.4 51.8 12.3C51.7 12.3 51.7 12.2 51.6 12.1C51.7 12 51.7 11.9 51.8 11.7ZM52.4 14.7C52.5 14.6 52.6 14.6 52.7 14.7C52.8 14.7 52.9 14.8 52.9 14.9C53.1 15.7 52.9 16.5 52.4 17.1L52.3 17.2H52.2C52.1 17.2 52 17.2 52 17.1C51.8 16.9 51.6 16.8 51.4 16.8C51.2 16.7 50.9 16.7 50.7 16.8C50.6 16.8 50.4 16.8 50.4 16.7C50.2 16.4 50.1 15.9 50.2 15.5C50.3 15.1 50.4 14.8 50.6 14.4C50.7 14.3 50.7 14.3 50.8 14.3C50.9 14.3 51 14.3 51 14.4C51.2 14.7 51.4 14.8 51.7 14.9C52 14.9 52.2 14.9 52.4 14.7ZM38.3 41.5C38.4 41.7 38.6 41.9 38.8 41.9C39.1 42 39.2 41.9 39.3 41.8C39.4 41.7 39.5 41.7 39.6 41.8C39.7 41.9 39.8 42 39.7 42.1C39.6 42.6 39.3 43 38.8 43.3C38.4 43.6 38 43.6 37.5 43.6H37.4C37.3 43.6 37.1 43.5 37.1 43.4C37.1 43.2 36.9 42.9 36.8 42.7C36.7 42.6 36.6 42.4 36.5 42.4C36.4 42.4 36.3 42.2 36.3 42.1C36.3 42 36.3 42 36.4 42C36.7 41.4 37.2 40.8 37.8 40.5C37.9 40.5 38 40.5 38.1 40.5C38.2 40.6 38.2 40.7 38.2 40.8C38.2 41 38.2 41.2 38.3 41.5ZM39.6 39.4C39.6 39.1 39.7 38.7 40 38.3C40.2 38.1 40.3 37.9 40.5 37.7L40.6 37.6C40.7 37.5 40.8 37.5 40.9 37.5C41 37.6 41.1 37.7 41.1 37.8C41.1 37.9 41.1 37.9 41.2 38C41.3 38.3 41.5 38.4 41.7 38.5C41.8 38.6 42.2 38.5 42.4 38.5C42.5 38.5 42.6 38.5 42.6 38.5C42.7 38.6 42.8 38.7 42.8 38.8C42.6 39.6 41.9 40.4 41.1 40.7H41H40.9C40.8 40.7 40.8 40.6 40.8 40.5C40.8 40.3 40.6 40.1 40.4 39.9C40.2 39.7 40.1 39.6 39.9 39.5C39.7 39.6 39.6 39.5 39.6 39.4ZM42.3 36.5C42.2 36.5 42.1 36.4 42.1 36.3C42 35.9 42 35.5 42.2 35.2C42.3 35 42.5 34.7 42.7 34.5L42.8 34.4C42.9 34.3 43.1 34.3 43.2 34.5L43.3 34.6C43.4 34.8 43.6 35 44 35.2C44.3 35.3 44.6 35.3 44.9 35.2C45 35.1 45.1 35 45.2 35.1C45.3 35.1 45.4 35.3 45.4 35.4C45.4 36.3 44.8 37.1 44 37.5H43.9C43.8 37.5 43.7 37.5 43.7 37.4C43.3 36.8 42.8 36.5 42.3 36.5ZM44.4 32.8C44.3 32.8 44.2 32.7 44.1 32.6C44 31.9 44.2 31.1 44.7 30.6C44.8 30.5 44.8 30.5 44.9 30.5C45 30.5 45.1 30.6 45.1 30.6C45.3 30.9 45.5 31.1 45.8 31.2C46.1 31.3 46.4 31.3 46.6 31.2C46.7 31.1 46.8 31.1 46.9 31.2C47 31.2 47 31.3 47.1 31.4C47.2 32.3 46.7 33.1 45.9 33.6H45.8H45.7C45.6 33.6 45.6 33.5 45.5 33.5C45.3 33.1 44.8 32.8 44.4 32.8ZM47.1 29.2C47 29.1 46.8 29.1 46.7 29.1H46.6C46.5 29.1 46.3 29.1 46.2 29C45.9 28.8 45.9 28.4 46.1 27.7C46.1 27.7 46.6 26.7 46.9 26.6C47 26.6 47.1 26.6 47.2 26.7C47.3 26.9 47.6 27.2 47.9 27.2C48.1 27.3 48.4 27.2 48.5 27C48.6 26.9 48.7 26.9 48.8 26.9C48.9 26.9 49 27 49 27.1C49.2 27.6 49.2 28.1 49.1 28.6C49 29.1 48.7 29.5 48.2 29.8C48.1 29.8 48.1 29.9 48 29.9C47.9 29.9 47.8 29.9 47.8 29.8C47.6 29.7 47.3 29.3 47.1 29.2ZM48.8 25.2C48.7 25.1 48.6 25.1 48.5 25C48.4 25 48.2 25 48 25C48 25 47.9 25 47.8 25C47.7 25.1 47.6 25.1 47.5 25C47.4 25 47.4 24.9 47.4 24.8V24.7C47.4 24 47.6 23.3 48 22.7C48 22.6 48.1 22.6 48.2 22.6C48.3 22.6 48.4 22.6 48.4 22.7C48.6 22.9 48.9 23 49.2 23.1C49.4 23.2 49.5 23.2 49.6 23.2C49.7 23.2 49.7 23.2 49.8 23.1C49.9 23 50 23 50 23C50.1 23 50.2 23.1 50.2 23.1C50.3 23.3 50.4 23.5 50.4 23.8C50.4 24.5 50.1 25.2 49.5 25.6C49.5 25.6 49.4 25.7 49.3 25.7C49.2 25.7 49.2 25.7 49.1 25.7L48.8 25.2ZM49.7 20.8C49.6 20.8 49.5 20.8 49.4 20.8C49.3 20.8 49.2 20.8 49.2 20.8C49.1 20.8 49.1 20.7 49.1 20.6C48.9 19.8 49 19 49.5 18.4C49.6 18.3 49.6 18.3 49.7 18.3C49.8 18.3 49.9 18.3 49.9 18.4L50 18.6C50.1 18.7 50.1 18.7 50.2 18.8C50.3 18.9 50.4 18.9 50.5 19C50.6 19 50.7 19.1 50.8 19.1C51 19.1 51.1 19 51.3 18.8C51.4 18.7 51.5 18.7 51.5 18.7C51.6 18.7 51.7 18.8 51.7 18.9C51.9 19.3 51.9 19.8 51.7 20.3C51.6 20.7 51.3 21.1 51.1 21.4C51 21.5 51 21.5 50.9 21.5C50.8 21.5 50.7 21.5 50.7 21.4C50.5 21.1 50.2 20.9 49.7 20.8ZM49.4 9C49.7 8.5 50.2 8.2 50.7 7.9C50.8 7.9 50.9 7.9 50.9 7.9C51 7.9 51 8 51 8.1C51.1 8.3 51.1 8.5 51.1 8.8C51.1 9.1 51 9.4 50.8 9.6C50.6 9.8 50.3 9.9 50 9.9C49.8 9.9 49.7 9.9 49.5 9.9C49.4 9.9 49.3 9.9 49.2 9.9C49.1 9.9 49 9.8 49 9.6C49.1 9.4 49.2 9.1 49.4 9ZM46.8 12.9C47.1 12.5 47.5 12.1 48 11.8C48.1 11.7 48.2 11.7 48.4 11.6C48.8 11.5 49.3 11.7 49.5 12.2C49.6 12.5 49.7 12.8 49.6 13.3C49.5 13.8 49.3 14.3 49 14.8C48.9 14.9 48.9 14.9 48.8 14.9C48.8 14.9 48.8 14.9 48.7 14.9C48.6 14.9 48.5 14.8 48.5 14.7C48.4 14.3 48.3 13.8 48 13.6C47.8 13.4 47.5 13.4 47.2 13.4C47.1 13.4 47 13.3 46.9 13.2C46.8 13.1 46.8 13 46.8 12.9ZM44.2 16.4C44.5 15.8 45.1 15.4 45.7 15.3C45.8 15.3 45.9 15.2 46.1 15.3C46.4 15.3 46.6 15.5 46.8 15.8C47 16.2 47.1 16.7 46.9 17.2C46.8 17.6 46.5 18 46.1 18.3C46 18.4 46 18.4 45.9 18.4C45.9 18.4 45.9 18.4 45.8 18.4C45.7 18.4 45.6 18.3 45.6 18.2C45.5 18 45.5 17.7 45.4 17.5C45.4 17.4 45.3 17.4 45.3 17.3L45.2 17.2C45 17.1 44.7 17 44.4 16.9C44.3 16.9 44.2 16.8 44.2 16.7C44.1 16.6 44.1 16.5 44.2 16.4ZM41.3 19.4C41.5 19 42 18.8 42.4 18.6C42.5 18.5 42.7 18.5 42.9 18.4C43.4 18.3 43.9 18.7 44.1 19.2C44.2 19.6 44.1 20.1 43.9 20.5C43.8 20.7 43.5 21 43.3 21.2L43.2 21.3C43.2 21.4 43.1 21.4 43 21.4H42.9C42.8 21.4 42.7 21.4 42.7 21.3C42.6 21.2 42.6 21.1 42.7 21.1C42.7 20.9 42.7 20.8 42.6 20.6V20.4C42.5 20 42.1 19.8 41.7 19.8C41.6 19.8 41.5 19.8 41.4 19.7C41.2 19.6 41.2 19.4 41.3 19.4ZM38.1 21.7C38.4 21.2 39 20.9 39.8 20.8C39.9 20.8 40 20.8 40 20.8C40.1 20.8 40.1 20.9 40.1 21C40.2 21.3 40.3 21.6 40.6 21.8C40.7 21.9 40.7 22 40.7 22.1C40.5 23.4 39.4 24 39.2 24C39.1 24 39 24 39 23.9C38.9 23.8 38.9 23.8 38.9 23.7C39 23.2 38.9 23 38.8 22.7C38.7 22.6 38.5 22.3 38.2 22.1C38.1 22 38 21.8 38.1 21.7ZM34.3 23.5C34.5 23.3 34.8 23.1 35.2 23C35.5 22.9 35.8 22.9 36.2 23C36.3 23 36.5 23.1 36.5 23.3C36.5 23.5 36.5 23.7 36.6 23.8C36.6 23.9 36.7 23.9 36.7 24C36.8 24.1 36.8 24.2 36.8 24.3C36.5 25.5 35.3 25.8 35.3 25.8C35.3 25.8 35.3 25.8 35.2 25.8C35.1 25.8 35.1 25.8 35 25.7C34.9 25.6 34.9 25.5 34.9 25.5C34.9 25.4 35 25 34.9 24.7C34.9 24.4 34.8 24.2 34.6 24.1C34.5 24.1 34.5 24 34.4 24C34.3 24 34.2 23.9 34.2 23.9V23.8C34.3 23.7 34.3 23.6 34.3 23.5ZM30.4 24.4C30.5 24.3 30.6 24.2 30.7 24.2C31 24.1 31.4 24 31.8 24.1C32.2 24.1 32.5 24.3 32.7 24.5C32.8 24.6 32.9 24.7 32.9 24.9C33.1 25.3 33.1 25.7 32.9 26.1C32.8 26.3 32.6 26.4 32.5 26.5C32.2 26.7 32 26.8 31.7 27C31.4 27.1 31.1 27.2 30.9 27.2C30.8 27.2 30.7 27.2 30.6 27.2C30.5 27.1 30.4 27 30.4 26.9C30.4 26.8 30.5 26.6 30.6 26.5V26.4C30.7 26.3 30.8 26 30.8 25.8C30.8 25.6 30.7 25.4 30.6 25.3C30.5 25.2 30.5 25.2 30.4 25.1C30.3 24.7 30.3 24.5 30.4 24.4ZM26.1 26.3C26.3 26.2 26.5 25.9 26.6 25.7C26.7 25.4 26.6 25.2 26.5 24.9C26.5 24.8 26.4 24.8 26.4 24.8C26.3 24.7 26.3 24.6 26.3 24.5C26.3 24.4 26.4 24.3 26.5 24.3C27.1 24.2 27.7 24.3 28.1 24.6C28.2 24.7 28.3 24.7 28.4 24.9C28.6 25.1 28.6 25.4 28.6 25.8C28.6 25.9 28.6 26.1 28.5 26.2C28.4 26.3 28.3 26.4 28.2 26.5C27.7 26.8 27.2 27 26.6 27C26.4 27 26.2 27 26.1 26.9C26 26.9 25.9 26.8 25.9 26.7C25.9 26.5 26 26.4 26.1 26.3ZM21.8 25.1C22.1 25 22.3 24.8 22.5 24.6C22.6 24.3 22.7 24 22.6 23.8C22.6 23.7 22.6 23.6 22.7 23.5C22.8 23.4 22.9 23.4 23 23.4C23.3 23.4 23.6 23.5 23.8 23.7C24.1 23.9 24.3 24 24.5 24.3C24.6 24.4 24.6 24.5 24.5 24.6C24.4 24.9 24.4 25.3 24.4 25.7C24.4 25.8 24.4 26 24.2 26H24.1C24.1 26 24.1 26 24 26C23.7 26 23.4 26.1 23.1 26.1C23 26.1 23 26.1 22.9 26.1C22.6 26.1 22.1 26 21.7 25.7C21.6 25.6 21.6 25.5 21.6 25.4C21.6 25.2 21.7 25.1 21.8 25.1ZM17.6 23.3C17.6 23.2 17.7 23.1 17.9 23.1C18.2 23.1 18.5 22.9 18.6 22.7C18.8 22.5 18.8 22.1 18.7 21.9C18.7 21.8 18.7 21.7 18.8 21.6C18.9 21.5 19 21.5 19.1 21.6C19.7 21.9 20.2 22.3 20.6 22.8C20.7 22.9 20.7 23.1 20.6 23.2C20.4 23.5 20.3 23.8 20.2 24.1C20.2 24.2 20.1 24.3 19.9 24.3H19.7C19.4 24.3 19 24.3 18.7 24.2C18.2 24.1 17.9 24 17.6 23.7C17.6 23.6 17.6 23.4 17.6 23.3ZM14.2 20.8C14.3 20.7 14.4 20.7 14.6 20.7C14.8 20.7 15 20.6 15.1 20.4C15.4 20 15.4 19.6 15.4 19.4C15.4 19.3 15.4 19.2 15.5 19.1C15.6 19 15.7 19 15.8 19.1C16.3 19.4 16.7 19.9 16.9 20.6C17 21 16.9 21.5 16.5 21.8C16.4 21.9 16.2 22 15.9 22C15.7 22 15.5 22 15.2 21.8C14.9 21.7 14.6 21.5 14.3 21.3C14.2 21.1 14.1 20.9 14.2 20.8ZM14.1 22.2C14.9 23.1 16.3 23.2 16.3 23.2C16.5 23.2 16.6 23.3 16.6 23.5C16.6 24.7 19 25.3 20 25.4C20.1 25.4 20.2 25.5 20.2 25.6C20.6 26.8 23.4 26.9 24.4 26.9C24.5 26.9 24.6 26.9 24.7 27C25.7 28.6 29 27.4 29 27.3C29.1 27.3 29.2 27.3 29.3 27.4C30.3 28.5 32.9 27.3 33.7 26.7C33.8 26.6 33.9 26.6 34 26.7C35.8 27.8 38.1 25 38.1 25C38.2 24.9 38.3 24.9 38.4 24.9C40.8 25.2 41.9 22.8 42 22.7C42 22.6 42.2 22.5 42.3 22.5C44.3 22.6 45.4 19.6 45.4 19.6C45.4 19.5 45.5 19.4 45.6 19.4C45.6 19.4 46.5 19.1 47.4 18.1C48.3 17.1 48.4 15.8 48.4 15.7C48.4 15.6 48.5 15.5 48.6 15.5C48.7 15.5 48.8 15.5 48.9 15.6C49.2 15.9 49.5 16.5 49.5 17C49.5 17.3 49.4 17.4 49.3 17.5C47.8 18.8 47.9 21.3 47.9 21.4C47.9 21.5 47.9 21.6 47.8 21.6C46.3 22.9 46.5 25.2 46.5 25.3C46.5 25.4 46.5 25.5 46.4 25.5C44.9 26.8 44.8 29.2 44.8 29.2C44.8 29.3 44.8 29.4 44.7 29.4C43.1 30.6 43.2 32.7 43.2 32.7C43.2 32.8 43.2 32.9 43.1 33C41.1 34.4 41 36.2 41 36.3C41 36.4 40.9 36.5 40.8 36.5C39 37.3 38.6 39.1 38.5 39.1C38.5 39.2 38.4 39.3 38.3 39.3C36 40.1 35.7 41.5 35.7 41.6C35.7 41.7 35.6 41.8 35.4 41.8C33.8 41.8 32.6 43.1 32.6 43.1C32.5 43.2 32.4 43.2 32.2 43.2C32.2 43.2 31.9 43 30.8 42.9C29.7 42.8 28.8 43.3 28.8 43.3H28.7C28.6 43.3 28.5 43.3 28.5 43.2C27.2 41.4 25.5 41.4 25.5 41.4C25.4 41.4 25.3 41.3 25.2 41.2C24.6 39.7 22.8 39.2 22.8 39.2C22.7 39.2 22.6 39.1 22.6 39C21.8 37 20 36.3 20 36.3C19.9 36.3 19.8 36.2 19.8 36.1C19.6 33.9 17.6 32.8 17.5 32.8C17.4 32.8 17.3 32.7 17.3 32.5C17.3 30.3 15.5 28.8 15.5 28.8C15.4 28.7 15.4 28.6 15.4 28.6C15.7 26 13.7 24.6 13.7 24.6C13.6 24.5 13.6 24.4 13.6 24.3C13.8 23.4 13.6 22.5 13.6 22.5C13.6 22.4 13.6 22.2 13.7 22.2C13.9 22.1 14 22.1 14.1 22.2ZM35 44C35.1 44.1 35.3 44.2 35.4 44.3C35.6 44.4 35.8 44.4 36 44.3C36.1 44.3 36.2 44.3 36.3 44.4C36.4 44.5 36.3 44.6 36.3 44.7C35.8 45.2 35.2 45.5 34.5 45.5C34.3 45.5 34.2 45.5 34 45.5C33.9 45.5 33.7 45.4 33.5 45.3C33.2 45.1 33.1 44.6 33.2 44.2C33.3 43.9 33.5 43.6 33.7 43.3C33.9 43.1 34.2 42.9 34.4 42.8C34.5 42.8 34.6 42.8 34.7 42.8C34.8 42.9 34.8 43 34.8 43.1C34.8 43.4 34.8 43.7 35 44ZM31 45.2C31 45.3 31.1 45.5 31.2 45.6C31.3 45.7 31.5 45.9 31.7 46C31.8 46 31.9 46.1 31.9 46.3C31.9 46.4 31.8 46.5 31.7 46.6C31.5 46.7 31.3 46.7 31.1 46.7C30.9 46.7 30.7 46.7 30.5 46.6C30.2 46.5 29.9 46.4 29.6 46.3C29.4 46.2 28.9 46 28.8 45.5C28.8 45.3 28.8 45.1 29 44.8C29.4 44.2 30.2 43.8 31 43.9C31.1 43.9 31.2 44 31.2 44.1C31.2 44.2 31.2 44.3 31.2 44.4C31.1 44.4 31 44.7 31 45C31 45.1 31 45.1 31 45.2ZM26.7 45.3C26.7 45.4 26.7 45.5 26.7 45.6C26.6 45.7 26.6 45.7 26.5 45.7C25.6 45.7 24.8 45.3 24.3 44.7C24.2 44.7 24.2 44.6 24.2 44.5C24.2 44.4 24.3 44.2 24.4 44.1C24.5 44.1 24.6 44 24.7 43.9C24.9 43.7 25.1 43.6 25.2 43.4C25.3 43.2 25.4 43 25.4 42.9C25.4 42.8 25.4 42.8 25.4 42.7C25.4 42.6 25.4 42.6 25.5 42.5C25.6 42.4 25.7 42.4 25.8 42.4C26.3 42.6 26.7 42.8 27.1 43.2C27.2 43.3 27.3 43.3 27.4 43.4C27.5 43.4 27.5 43.5 27.6 43.5C27.7 43.6 27.7 43.8 27.5 43.9C27.3 44.1 27 44.3 26.8 44.6C26.6 44.8 26.6 45.1 26.7 45.3ZM13.2 30.9C13.2 30.8 13.3 30.7 13.3 30.7C13.4 30.7 13.5 30.6 13.5 30.7C13.8 30.8 14.1 30.7 14.4 30.5C14.5 30.4 14.6 30.3 14.6 30.2C14.6 30.1 14.7 30 14.7 30C14.8 30 14.9 29.9 15 30C15.2 30.1 15.4 30.3 15.5 30.4C15.8 30.8 16.1 31.2 16.3 31.6C16.3 31.7 16.3 31.8 16.3 31.8C16.3 31.8 16.3 31.8 16.3 31.9L16.2 32C16.1 32 16 32 16 32C16 32 15.9 32 15.8 32C15.4 32 15.2 32.1 15 32.2C14.8 32.3 14.6 32.5 14.6 32.7C14.6 32.8 14.5 32.9 14.4 32.9H14.3C14.2 32.9 14.2 32.9 14.1 32.8C13.4 32.5 13.1 31.6 13.2 30.9ZM12.8 28.8C12.8 28.9 12.7 28.9 12.6 29H12.5C12.4 29 12.4 29 12.3 28.9C11.7 28.4 11.2 27.7 11.2 26.9C11.2 26.8 11.2 26.7 11.3 26.6C11.4 26.5 11.5 26.5 11.6 26.6C11.8 26.7 12 26.7 12.1 26.7C12.3 26.7 12.5 26.6 12.6 26.5C12.7 26.4 12.8 26.2 12.9 26C12.9 25.9 13 25.8 13.1 25.8C13.2 25.8 13.3 25.8 13.4 25.8C14 26.3 14.3 27 14.5 27.8C14.5 27.9 14.5 28 14.4 28.1C14.3 28.2 14.2 28.2 14.1 28.2C13.8 28.1 13.5 28.1 13.3 28.2C13.2 28.3 13 28.5 12.8 28.8ZM15.6 34.6C15.6 34.5 15.7 34.4 15.7 34.4C15.8 34.4 15.9 34.4 16 34.4C16 34.4 16.1 34.4 16.2 34.4C16.3 34.4 16.4 34.3 16.5 34.2C16.7 34.1 16.7 34 16.8 33.9C16.8 33.8 17 33.7 17.1 33.7C17.4 33.8 17.7 33.9 18 34.3C18.2 34.5 18.4 34.8 18.6 35.1C18.7 35.2 18.7 35.3 18.7 35.4C18.7 35.5 18.5 35.6 18.4 35.6C18.1 35.6 17.8 35.7 17.5 35.8C17.3 36 17.1 36.2 16.9 36.6C16.9 36.7 16.8 36.8 16.7 36.8C16.7 36.8 16.7 36.8 16.6 36.8C16.5 36.8 16.5 36.8 16.4 36.7H16.3C15.8 36.2 15.5 35.4 15.6 34.6ZM18.1 38.3C18.1 38.2 18.2 38.2 18.3 38.2C18.7 38.1 19 37.9 19.3 37.5C19.3 37.4 19.3 37.3 19.4 37.3C19.5 37.2 19.6 37.2 19.7 37.2C20.3 37.4 20.8 37.8 21.2 38.5C21.3 38.6 21.3 38.7 21.2 38.8C21.2 38.9 21.1 39 21 39C20.6 39.1 20.3 39.2 20.1 39.4C19.9 39.5 19.7 39.8 19.6 40.1C19.6 40.2 19.5 40.3 19.4 40.3H19.3C19.2 40.3 19.2 40.3 19.1 40.2C18.6 39.7 18.3 39.2 18.1 38.5C18 38.5 18.1 38.4 18.1 38.3ZM20.9 41.5C20.9 41.4 21 41.4 21.1 41.3C21.5 41.2 21.9 40.8 22.2 40.4C22.3 40.3 22.4 40.2 22.5 40.2C23.2 40.3 23.7 40.6 24.2 41.1C24.3 41.2 24.3 41.3 24.2 41.4C24.2 41.4 24.2 41.5 24.1 41.5L24 41.6C23.4 41.9 22.9 42.5 22.8 43.1C22.8 43.2 22.7 43.3 22.6 43.3H22.5C22.4 43.3 22.4 43.3 22.3 43.3C21.9 43.1 21.6 42.8 21.3 42.4C21.1 42.2 21 41.9 20.8 41.7C20.9 41.7 20.9 41.6 20.9 41.5ZM12 17.4C12 17.3 12.1 17.2 12.1 17.2C12.2 17 12.3 16.8 12.3 16.5C12.3 16.4 12.4 16.2 12.5 16.2C12.9 16.1 13.4 16.8 13.5 17.1C13.8 17.5 13.8 18 13.7 18.4C13.6 18.7 13.4 18.9 13.1 19.1C12.9 19.2 12.8 19.3 12.6 19.3C12.6 19.3 12.6 19.3 12.5 19.3C12.4 19.3 12.3 19.3 12.3 19.2C12.2 19.1 12.2 19 12.2 19C12.1 18.6 12 18.1 12 17.7C12 17.6 12 17.5 12 17.4ZM10.9 22.5C11.2 22.4 11.5 22.1 11.5 21.9C11.5 21.8 11.6 21.7 11.7 21.7C11.8 21.7 11.9 21.7 12 21.7C12.3 21.9 12.6 22.3 12.7 22.7C12.8 23 12.8 23.3 12.7 23.8V23.9C12.7 24 12.6 24.1 12.5 24.1C12.2 24.1 12 24.1 11.8 24.2C11.6 24.3 11.4 24.4 11.3 24.6C11.3 24.7 11.2 24.7 11.1 24.7C11 24.7 11 24.7 10.9 24.6C10.6 24.3 10.3 24.1 9.99999 23.7C9.69999 23.3 9.59999 22.8 9.79999 22.3C9.79999 22.2 9.89999 22.1 9.99999 22.1C10.1 22.1 10.2 22.1 10.3 22.2C10.3 22.5 10.6 22.6 10.9 22.5ZM10.8 19.6C10.8 19.9 10.7 20.2 10.5 20.4C10.3 20.5 10.1 20.6 9.89999 20.6C9.79999 20.6 9.79999 20.6 9.69999 20.6C9.49999 20.5 9.29999 20.4 9.19999 20.3C8.99999 20 8.69999 19.7 8.49999 19.3C8.39999 19 8.29999 18.7 8.39999 18.4C8.39999 18.2 8.49999 18.1 8.69999 18C8.79999 17.9 8.99999 18 9.09999 18C9.59999 18.2 9.99999 18.5 10.3 18.9C10.5 19.1 10.7 19.3 10.8 19.6ZM8.69999 14.2C8.99999 14.1 9.19999 13.9 9.29999 13.8C9.29999 13.7 9.39999 13.6 9.49999 13.6C9.59999 13.6 9.69999 13.6 9.79999 13.6C10.1 13.8 10.1 14.3 10.1 14.5C10.1 15.6 9.69999 15.8 9.39999 15.8C9.09999 15.8 8.89999 15.6 8.59999 15.4L8.49999 15.3C8.19999 15 7.89999 14.8 7.69999 14.5C7.59999 14.4 7.59999 14.3 7.69999 14.2C7.69999 14.1 7.79999 14 7.99999 14C8.09999 14 8.19999 14 8.39999 14C8.39999 14.2 8.49999 14.2 8.69999 14.2ZM6.69999 10.5C6.89999 10.2 7.19999 10 7.49999 9.9C7.59999 9.9 7.69999 9.9 7.79999 9.9C7.89999 9.9 8.09999 10.1 8.19999 10.3C8.39999 10.8 8.29999 11.5 8.19999 11.8C7.99999 12 7.89999 12.1 7.79999 12.1H7.69999C7.49999 12.1 7.29999 11.9 7.09999 11.8L6.99999 11.7C6.79999 11.5 6.69999 11.4 6.59999 11.2C6.49999 10.9 6.59999 10.7 6.69999 10.5ZM2.69999 13C2.59999 13 2.59999 13 2.69999 13C2.59999 13 2.59999 13 2.49999 13C1.49999 12.6 1.49999 11.1 1.89999 10.2C1.99999 10.1 2.09999 10 2.19999 10C2.29999 10 2.29999 10 2.39999 10.1C2.49999 10.1 2.59999 10.2 2.69999 10.2C2.99999 10.2 3.29999 10.2 3.49999 10.2C3.59999 10.2 3.59999 10.2 3.69999 10.2C3.79999 10.2 3.89999 10.3 3.89999 10.4C3.89999 10.7 4.19999 10.9 4.39999 11.1C4.59999 11.4 4.89999 11.7 4.99999 12C4.99999 12.2 4.99999 12.3 4.89999 12.5C4.79999 12.6 4.59999 12.6 4.49999 12.6C4.29999 12.4 3.89999 12.4 3.59999 12.4C3.49999 12.4 3.29999 12.5 3.19999 12.5C3.09999 12.5 2.99999 12.7 2.99999 12.8C2.89999 12.9 2.79999 13 2.69999 13ZM3.59999 17.2C3.49999 17.2 3.49999 17.2 3.39999 17.2C3.19999 17.1 3.19999 16.9 3.09999 16.7C2.79999 16 2.79999 15.3 2.89999 14.7C2.89999 14.6 2.99999 14.5 3.09999 14.5C3.19999 14.4 3.39999 14.5 3.49999 14.5C3.49999 14.5 3.49999 14.5 3.59999 14.5C3.69999 14.5 3.89999 14.5 3.99999 14.5C4.19999 14.5 4.29999 14.4 4.39999 14.3C4.49999 14.2 4.69999 14.2 4.79999 14.3C5.29999 14.7 5.59999 15.4 5.89999 16L5.99999 16.1C5.99999 16.2 5.99999 16.3 5.99999 16.4C5.89999 16.6 5.59999 16.5 5.29999 16.5C5.19999 16.5 5.19999 16.5 5.09999 16.5C4.89999 16.5 4.69999 16.5 4.49999 16.6C4.29999 16.7 4.09999 16.8 3.99999 16.9C3.79999 17.2 3.69999 17.2 3.59999 17.2ZM4.79999 21.3H4.69999C4.59999 21.3 4.59999 21.3 4.49999 21.3C4.29999 21.2 4.19999 21 4.09999 20.6C3.89999 20.1 3.89999 19.6 3.99999 19.1V19C3.99999 18.9 4.09999 18.9 4.19999 18.9C4.29999 18.9 4.29999 18.9 4.39999 18.9C4.69999 18.9 5.09999 18.9 5.29999 18.6C5.29999 18.5 5.39999 18.5 5.49999 18.5C5.59999 18.5 5.69999 18.5 5.69999 18.6C5.99999 18.9 6.29999 19.2 6.59999 19.7C6.79999 19.8 6.99999 20.4 6.99999 20.5C6.99999 20.6 6.99999 20.7 6.89999 20.8C6.79999 20.9 6.69999 20.9 6.59999 20.8C6.19999 20.5 5.49999 20.7 5.19999 21C5.19999 21 5.19999 21.1 5.09999 21.1C4.99999 21.2 4.89999 21.3 4.79999 21.3ZM5.89999 25.4H5.79999C5.59999 25.3 5.49999 25.2 5.39999 25C5.09999 24.5 4.99999 23.9 5.09999 23.3C5.09999 23.2 5.09999 23.2 5.19999 23.1C5.29999 23 5.39999 23 5.49999 23.1C5.59999 23.1 5.69999 23.1 5.69999 23.1C5.79999 23.1 5.89999 23.1 6.09999 23C6.09999 23 6.19999 23 6.19999 22.9C6.19999 22.9 6.19999 22.9 6.29999 22.8C6.49999 22.5 6.69999 22.7 6.79999 22.7C7.29999 23.2 7.69999 23.7 7.89999 24.2V24.3C7.89999 24.4 7.89999 24.5 7.79999 24.6C7.69999 24.7 7.59999 24.7 7.49999 24.7C7.29999 24.6 6.99999 24.7 6.79999 24.8C6.59999 24.9 6.39999 24.9 6.19999 25.1C6.19999 25.2 6.09999 25.4 5.89999 25.4ZM7.69999 29.6C7.59999 29.6 7.59999 29.6 7.69999 29.6C7.69999 29.8 7.59999 29.9 7.49999 29.9H7.39999C7.29999 29.9 7.19999 29.9 7.19999 29.8C6.89999 29.5 6.59999 29.1 6.49999 28.8C6.29999 28.4 6.29999 27.9 6.39999 27.5C6.39999 27.3 6.59999 27.3 6.69999 27.3C6.99999 27.4 7.39999 27.3 7.69999 27.2C7.79999 27 7.79999 27 7.89999 26.9C7.89999 26.8 7.99999 26.7 8.19999 26.7C8.29999 26.7 8.39999 26.8 8.49999 26.9C8.79999 27.4 9.19999 27.9 9.69999 28.3L9.79999 28.4C9.89999 28.5 9.89999 28.6 9.89999 28.7C9.89999 28.8 9.79999 28.9 9.69999 28.9C9.59999 29 9.49999 28.9 9.39999 28.9C8.69999 28.9 8.09999 29.1 7.69999 29.6C7.69999 29.6 7.69999 29.5 7.69999 29.6ZM9.19999 33.6C9.19999 33.7 9.09999 33.7 8.99999 33.7C8.89999 33.7 8.79999 33.7 8.79999 33.6C8.59999 33.4 8.39999 33.1 8.19999 32.8C7.99999 32.4 7.89999 32.1 7.99999 31.7C7.99999 31.6 8.09999 31.4 8.29999 31.4C8.89999 31.4 9.39999 31.1 9.69999 30.6C9.79999 30.5 9.89999 30.4 10.1 30.5C10.4 30.6 10.5 30.8 10.6 31C10.8 31.4 11.1 31.8 11.2 32.3V32.4C11.2 32.5 11.2 32.6 11.1 32.7C11 32.8 10.9 32.8 10.9 32.8C10.1 32.8 9.49999 33.1 9.19999 33.6ZM11 37.4C11 37.5 10.9 37.6 10.8 37.6C10.8 37.6 10.8 37.6 10.7 37.6C10.6 37.6 10.5 37.6 10.4 37.5C10.1 37.2 9.89999 36.9 9.79999 36.6C9.59999 36.2 9.49999 35.9 9.49999 35.5C9.49999 35.4 9.49999 35.3 9.59999 35.3C9.69999 35.2 9.69999 35.2 9.79999 35.2C9.99999 35.2 10.3 35.2 10.5 35.1C10.9 35 11.1 34.7 11.2 34.5C11.2 34.4 11.4 34.3 11.5 34.3C11.6 34.3 11.7 34.4 11.7 34.5C12.2 34.9 12.5 35.6 12.6 36.4V36.5C12.6 36.6 12.6 36.7 12.5 36.7C12.4 36.8 12.3 36.8 12.3 36.8C12 36.7 11.7 36.8 11.5 36.9C11.4 37 11.2 37.2 11 37.4ZM12.8 41.1C12.8 41.2 12.7 41.2 12.6 41.2C12.5 41.2 12.5 41.2 12.4 41.1C12.2 40.9 11.9 40.6 11.8 40.3C11.7 40.1 11.5 39.7 11.6 39.2C11.6 39.1 11.7 39.1 11.7 39C11.8 39 11.8 38.9 11.9 39C12.4 39.1 13 38.8 13.3 38.3C13.3 38.2 13.4 38.2 13.5 38.2C13.6 38.2 13.7 38.2 13.8 38.3C14.2 38.8 14.5 39.4 14.6 40.1C14.6 40.2 14.6 40.3 14.5 40.3C14.4 40.4 14.4 40.4 14.3 40.4C13.7 40.4 13.1 40.7 12.8 41.1ZM15 45C15 45.1 14.9 45.1 14.8 45.1C14.8 45.1 14.8 45.1 14.7 45.1C14.6 45.1 14.6 45.1 14.5 45C13.9 44.5 13.6 43.9 13.5 43.1C13.5 43 13.5 42.9 13.6 42.9C13.7 42.8 13.7 42.8 13.8 42.8C14 42.8 14.3 42.7 14.5 42.6C14.7 42.5 14.9 42.3 15 42C15 41.9 15.1 41.8 15.2 41.8C15.4 41.8 15.9 42.3 15.9 42.3C16.1 42.6 16.4 43.1 16.5 43.6C16.5 43.7 16.4 43.9 16.3 43.9H16.2C16.1 43.9 15.6 44.1 15.4 44.2C15.3 44.4 15.2 44.6 15 45ZM17.5 48.5C17.5 48.6 17.4 48.7 17.3 48.7C17.3 48.7 17.3 48.7 17.2 48.7C17.1 48.7 17.1 48.7 17 48.6C16.5 48.1 16 47.6 15.7 46.9C15.7 46.8 15.7 46.7 15.7 46.7C15.7 46.6 15.8 46.6 15.9 46.6C16.5 46.5 17 46.1 17.2 45.6C17.2 45.5 17.3 45.4 17.4 45.4C17.7 45.4 17.8 45.5 17.9 45.6C18.3 46 18.5 46.4 18.8 46.8L18.9 46.9C18.9 47 19 47 18.9 47.1C18.9 47.2 18.8 47.4 18.7 47.4C18.2 47.4 17.7 47.9 17.5 48.5ZM22 49.8C22 49.9 21.9 49.9 21.9 50C21.2 50.3 20.8 50.9 20.6 51.4C20.6 51.5 20.5 51.5 20.4 51.6H20.3H20.2C19.6 51.4 19.1 50.9 18.7 50.3C18.6 50.3 18.6 50.2 18.6 50.1C18.6 50 18.7 49.8 18.8 49.8C19.2 49.7 19.5 49.4 19.7 49.1C19.8 48.9 19.9 48.8 19.9 48.7C19.9 48.6 19.9 48.5 20 48.4C20.1 48.3 20.2 48.3 20.3 48.3C21 48.5 21.5 49 22 49.5C22 49.6 22 49.7 22 49.8ZM25 52.1C24.7 52.3 24.5 52.5 24.4 52.8C24.3 53.1 24.2 53.4 24.3 53.6C24.3 53.7 24.3 53.8 24.3 53.9C24.2 54 24.1 54 24 54C23.7 54 23.5 53.9 23.3 53.8C22.8 53.6 22.4 53.2 22.1 52.7C22 52.6 22.1 52.4 22.2 52.3C22.6 52 23 51.5 23 51C23 50.9 23.1 50.8 23.3 50.8C24 50.8 24.7 51.1 25 51.7C25.1 51.9 25.1 52 25 52.1ZM28.7 55.2C28.7 55.3 28.6 55.3 28.5 55.4C28.2 55.5 27.9 55.5 27.6 55.5C27 55.5 26.5 55.3 26 55C26 55 26 54.9 26 54.8C26 54.7 26 54.6 26.1 54.6C26.3 54.4 26.4 54.2 26.5 53.8C26.6 53.5 26.6 53.2 26.5 52.9C26.5 52.7 26.6 52.6 26.7 52.6C26.9 52.6 27 52.6 27.1 52.6H27.2C27.5 52.6 27.9 52.6 28.3 52.6C28.4 52.6 28.4 52.6 28.5 52.7L28.6 52.8C28.7 52.9 28.6 53 28.6 53.1C28.4 53.3 28.3 53.7 28.4 54C28.4 54.3 28.5 54.6 28.7 55C28.7 55.1 28.7 55.2 28.7 55.2ZM32.8 55.3C32.6 55.5 32.4 55.6 32.2 55.6C31.9 55.7 31.6 55.7 31.3 55.7C31 55.7 30.7 55.7 30.4 55.6C30.3 55.6 30.3 55.5 30.2 55.5C30.1 55.5 30.2 55.3 30.2 55.3C30.4 54.8 30.4 54.3 30.4 53.8C30.4 53.7 30.4 53.6 30.3 53.5C30.2 53.4 30.2 53.3 30.2 53.2C30.2 53.1 30.3 53 30.4 53H30.5C30.7 52.9 31 52.8 31.3 52.7C31.6 52.7 32 52.6 32.3 52.8C32.4 52.9 32.5 53 32.4 53.2C32.2 53.7 32.3 54.3 32.7 54.8C32.8 54.8 32.8 54.9 32.9 54.9C32.9 55.1 32.9 55.2 32.8 55.3ZM33.4 52C33.3 52.1 33.2 52.1 33.1 52.1C31.2 51.6 29.8 52.4 29.7 52.4H29.6C29.5 52.4 29.5 52.4 29.4 52.3C28 51.1 26.3 51.6 26.3 51.6C26.2 51.6 26 51.6 26 51.5C25.1 50 23.2 50 23.1 50C23 50 22.9 49.9 22.8 49.8C22.2 47.9 20.2 47.4 20.1 47.4C20 47.4 19.9 47.3 19.9 47.2C19.4 45.3 17.6 44.3 17.6 44.3C17.5 44.2 17.4 44.1 17.5 44C17.8 42.6 15.8 41 15.7 41C15.6 40.9 15.6 40.9 15.6 40.8C15.6 39.1 13.7 37.2 13.7 37.2C13.6 37.1 13.6 37 13.6 36.9C13.8 35.8 13 34.3 13 34.3C12.9 34.2 13 34 13.1 33.9C13.2 33.8 13.4 33.8 13.5 33.9C13.6 34 13.9 34.1 14.1 34.2C14.2 34.2 14.3 34.3 14.3 34.4C14.7 37.2 16.6 38 16.7 38.1C16.8 38.1 16.8 38.2 16.9 38.3C17.9 41 19.6 41.6 19.6 41.6C19.7 41.6 19.8 41.7 19.8 41.8C20.7 44.2 23 44.6 23.1 44.6C23.2 44.6 23.2 44.6 23.3 44.7C25.9 47.7 28.3 46.8 28.4 46.7C28.5 46.7 28.6 46.7 28.6 46.7C30.8 47.7 32 47.6 32.6 47.3C33.2 47 33.3 46.5 33.3 46.5C33.3 46.4 33.5 46.3 33.6 46.3C35.9 46.4 36.9 46 37.3 45.6C37.6 45.3 37.6 45 37.6 45C37.6 44.9 37.7 44.7 37.8 44.7C40.7 44.2 41.1 42.3 41.1 42.3C41.1 42.2 41.2 42.1 41.3 42.1C43.9 40.9 44 38.9 44 38.9C44 38.8 44.1 38.7 44.2 38.6C45 38.3 45.5 37.5 45.5 37.5C45.6 37.4 45.7 37.3 45.8 37.4C45.9 37.4 46 37.6 46 37.7C45.9 38.3 46 38.6 46 38.6C46 38.7 46 38.8 45.9 38.9C43.9 40.8 44.1 42.1 44.1 42.1C44.1 42.2 44.1 42.3 44 42.4C42.3 43.6 41.9 45.6 41.9 45.6C41.9 45.7 41.8 45.8 41.7 45.8C39.9 46.6 39.2 48.4 39.2 48.5C39.2 48.6 39.1 48.7 39 48.7C37.2 49.2 36.7 50.5 36.6 50.6C36.6 50.7 36.5 50.8 36.4 50.8C34.2 50.8 33.4 52 33.4 52ZM37.1 53.6C36.7 54.2 36 54.6 35.3 54.6C35.2 54.6 35.1 54.6 34.9 54.6C34.8 54.6 34.8 54.5 34.7 54.5C34.7 54.4 34.6 54.4 34.7 54.3C34.8 54 34.7 53.7 34.5 53.5L34.4 53.4C34.3 53.3 34.2 53.2 34.2 53.1C34.3 52.8 34.5 52.4 34.8 52.1C35 51.9 35.3 51.8 35.5 51.6L35.7 51.5C35.8 51.4 35.9 51.4 36 51.5C36.1 51.6 36.1 51.7 36.1 51.8C36.1 52 36.1 52.2 36.1 52.4C36.1 52.7 36.2 52.9 36.4 53C36.5 53.1 36.7 53.3 36.8 53.3C36.9 53.3 37 53.3 37.1 53.4C37.1 53.4 37.1 53.5 37.1 53.6ZM40.5 51.1C40.2 51.7 39.5 52.2 38.7 52.3C38.6 52.3 38.5 52.2 38.4 52.1C38.3 51.8 37.9 51 37.5 50.8C37.4 50.7 37.3 50.6 37.4 50.4C37.7 49.8 38.2 49.5 38.7 49.2C38.8 49.2 38.9 49.1 38.9 49.2C39 49.2 39 49.3 39.1 49.4C39.3 50 39.8 50.5 40.4 50.7C40.5 50.7 40.5 50.8 40.6 50.9C40.6 51 40.6 51.1 40.5 51.1ZM42.1 49.8H42H41.9C41.8 49.8 41.8 49.7 41.7 49.6C41.6 49.4 41.5 49.1 41.4 48.9C41.2 48.6 40.9 48.4 40.5 48.3C40.4 48.3 40.4 48.2 40.3 48.2C40.3 48.1 40.3 48 40.3 48C40.4 47.7 40.6 47.4 40.9 47.2C41.1 47 41.4 46.8 41.6 46.6C41.7 46.5 41.8 46.5 41.9 46.6C42 46.6 42 46.7 42.1 46.8C42.1 46.9 42.2 47 42.3 47C42.4 47.1 42.5 47.2 42.6 47.2C42.8 47.3 43 47.4 43.2 47.4C43.3 47.4 43.3 47.4 43.4 47.5C43.4 47.6 43.5 47.6 43.5 47.7C43.3 48.7 42.8 49.5 42.1 49.8ZM44.7 46.5H44.6H44.5C44.4 46.5 44.4 46.4 44.3 46.3C44.2 46 44.1 45.8 43.9 45.6C43.7 45.4 43.4 45.3 43.1 45.3C43 45.3 42.8 45.2 42.8 45.1C42.8 44.8 42.8 44.4 43.1 44C43.3 43.7 43.6 43.5 43.8 43.3C43.9 43.2 44 43.2 44 43.2C44.1 43.2 44.2 43.3 44.2 43.3C44.5 43.8 45.1 44.1 45.7 44.1C45.8 44.1 46 44.2 46 44.3C46 44.4 46 44.4 46 44.5C46 45.3 45.5 46.1 44.7 46.5ZM47.2 42.8C47.2 42.8 47.1 42.9 46.9 42.9C46.8 42.9 46.7 42.8 46.6 42.7C46.4 42.2 45.8 41.8 45.3 41.7C45.2 41.7 45.1 41.6 45 41.5C44.9 41.1 45 40.8 45.2 40.4C45.4 40.1 45.6 39.9 45.9 39.6C46 39.5 46.1 39.5 46.2 39.5C46.3 39.5 46.4 39.6 46.4 39.7C46.5 39.9 46.7 40.2 47 40.3C47.3 40.4 47.5 40.4 47.8 40.4C47.9 40.4 48 40.4 48 40.5C48.1 40.5 48.1 40.6 48.1 40.7C48.2 41.4 47.8 42.3 47.2 42.8ZM49.8 38.1C49.6 38.5 49.3 38.8 49 39H48.9H48.8C48.7 39 48.7 38.9 48.6 38.9C48.4 38.6 48.2 38.4 48 38.3C47.8 38.2 47.5 38.1 47.3 38.2C47.1 38.2 47 38.1 47 38C46.9 37.7 47 37.4 47.1 37.1C47.2 36.9 47.3 36.6 47.5 36.4C47.6 36.3 47.7 36.2 47.8 36.1C47.9 36 48 36 48.1 36C48.2 36 48.3 36.1 48.3 36.2C48.4 36.4 48.5 36.5 48.7 36.6C48.9 36.7 49.1 36.8 49.4 36.8C49.4 36.8 49.5 36.8 49.6 36.8C49.7 36.8 49.8 36.8 49.9 36.8C50 36.8 50 36.9 50 37C50 37.3 50 37.7 49.8 38.1ZM50.8 35C50.8 35 50.8 35.1 50.8 35C50.7 35.1 50.7 35.1 50.6 35.1C50.5 35.1 50.4 35.1 50.4 35C50.2 34.6 50 34.3 49.6 34.2C49.4 34.1 49.2 34.1 49 34.1C48.9 34.1 48.8 34.1 48.7 34C48.5 33.8 48.8 32.8 48.9 32.5C49 32.3 49.1 32.2 49.2 32.1C49.3 32 49.5 32 49.6 32.1C49.8 32.3 50 32.5 50.2 32.6C50.4 32.7 50.6 32.8 50.8 32.7H50.9C51 32.7 51.1 32.7 51.1 32.6C51.2 32.5 51.2 32.5 51.3 32.5C51.4 32.5 51.5 32.6 51.5 32.6C51.6 32.7 51.6 32.8 51.6 32.9C51.6 33.7 51.3 34.5 50.8 35ZM52.2 31.1C52.1 31.2 52.1 31.2 52 31.2H51.9C51.8 31.2 51.7 31.1 51.7 31C51.6 30.7 51.4 30.5 51.1 30.4C50.9 30.3 50.7 30.2 50.5 30.3C50.4 30.3 50.1 30.4 50 30.2C50 30 50 29.8 50 29.6C50 29.3 50.1 29 50.2 28.8C50.2 28.8 50.3 28.5 50.4 28.4C50.4 28.3 50.5 28.2 50.5 28.2L50.6 28.1C50.7 28 50.9 28 51 28.2C51.1 28.4 51.3 28.5 51.6 28.6C51.7 28.6 51.7 28.6 51.8 28.6C51.9 28.6 52 28.6 52.1 28.5H52.2H52.3C52.4 28.4 52.5 28.4 52.6 28.4C52.7 28.4 52.8 28.5 52.8 28.6C53.1 29.4 52.8 30.4 52.2 31.1ZM54 26.3C53.9 26.6 53.7 26.8 53.5 26.9H53.4H53.3C53.2 26.9 53.2 26.8 53.1 26.7C53 26.5 52.8 26.4 52.5 26.2C52.3 26.1 52 26 51.7 26H51.6C51.5 26 51.5 26 51.4 26C51.3 26 51.2 26 51.1 25.9C51 25.8 51.1 25.7 51.1 25.6C51.3 25.3 51.4 24.9 51.5 24.5C51.5 24.3 51.6 24.2 51.5 24.1C51.5 24 51.5 23.8 51.6 23.8C51.7 23.7 51.8 23.7 51.9 23.8C52.1 24 52.4 24.2 52.7 24.3C52.9 24.4 53.3 24.5 53.5 24.3C53.6 24.2 53.7 24.2 53.8 24.3C53.9 24.3 54 24.4 54 24.5C54.2 25.1 54.2 25.8 54 26.3ZM55.4 21.6C55.3 22.1 55 22.5 54.6 22.7C54.6 22.7 54.5 22.7 54.4 22.7H54.3C54.2 22.7 54.2 22.6 54.1 22.5C54 22.3 53.9 22.2 53.6 22.1C53.3 21.9 52.9 21.8 52.5 21.8C52.4 21.8 52.3 21.7 52.3 21.6C52.3 21.5 52.3 21.4 52.3 21.3C52.6 21 52.7 20.5 52.7 20.1C52.7 20 52.7 19.9 52.8 19.8C52.9 19.7 53 19.7 53.1 19.8C53.1 19.8 53.2 19.8 53.2 19.9C53.4 20.1 53.7 20.2 53.9 20.3C54 20.3 54.2 20.3 54.3 20.3C54.4 20.3 54.5 20.3 54.5 20.2C54.6 20.1 54.6 20.1 54.7 20.1C54.8 20.1 54.9 20.1 54.9 20.2C55.4 20.7 55.5 21.2 55.4 21.6ZM56 18.3C55.9 18.4 55.8 18.5 55.7 18.6H55.6C55.5 18.6 55.4 18.6 55.4 18.5C55.4 18.5 55.4 18.5 55.3 18.5C55.2 18.5 55.2 18.4 55.1 18.4C55.1 18.3 55 18.3 54.9 18.2C54.8 18.2 54.8 18.1 54.7 18.1C54.3 17.9 54 17.8 53.6 17.8V17.5L53.4 17.3C53.4 17.3 54 16.8 54 16C54 15.9 54.1 15.8 54.2 15.7C54.3 15.7 54.4 15.7 54.5 15.8C54.6 16 55 16.2 55.3 16.2C55.4 16.2 55.4 16.2 55.5 16.2C55.6 16.2 55.7 16.1 55.7 16.1C55.8 16 56 16 56.1 16C56.2 16 56.2 16.1 56.2 16.2C56.6 17 56.4 17.7 56 18.3ZM57.4 12.6C57.3 13.1 57.1 13.6 56.7 14.1C56.6 14.2 56.6 14.2 56.5 14.2C56.4 14.2 56.3 14.1 56.3 14C56.3 13.9 56.2 13.8 56 13.8C55.9 13.7 55.7 13.7 55.5 13.7C55.5 13.7 55.4 13.7 55.3 13.7C55 13.7 54.9 13.7 54.7 13.6C54.6 13.5 54.5 13.5 54.5 13.4C54.5 13.2 54.6 13 54.7 12.9C54.7 12.9 54.7 12.9 54.8 12.8C55 12.5 55.1 12.2 55.2 11.8C55.2 11.7 55.3 11.6 55.4 11.6C55.5 11.6 55.6 11.6 55.6 11.6C56 11.8 56.5 11.8 56.8 11.5C56.9 11.4 57 11.4 57 11.4C57.1 11.4 57.2 11.5 57.2 11.6C57.5 12.1 57.4 12.4 57.4 12.6ZM58 7.6C57.9 8.1 57.8 8.9 57.4 9.6C57.4 9.6 57.3 9.7 57.2 9.8C57.1 9.8 57.1 9.8 57 9.8C56.9 9.8 56.8 9.7 56.7 9.7C56.5 9.6 56.3 9.5 56.1 9.5H56C55.8 9.5 55.4 9.6 55.3 9.1C55.2 8.8 55.4 8.6 55.5 8.5C56 8 56.6 7.5 57.1 7C57.2 6.9 57.3 6.8 57.5 6.8C57.7 6.8 57.9 7 58 7.2C58 7.4 58 7.5 58 7.6Z" fill="white"/>
</g>
<defs>
<clipPath id="clip0_305_240">
<rect width="59.2" height="56.6" fill="white"/>
</clipPath>
</defs>
</svg>
