<svg width="32" height="63" viewBox="0 0 32 63" fill="none" xmlns="http://www.w3.org/2000/svg">
<g opacity="0.15" clip-path="url(#clip0_310_323)">
<path d="M29.3333 58.9492C27.6267 59.1624 25.4933 59.3756 23.2533 59.269L23.4667 62.2538C23.4667 62.5736 23.7867 62.8934 24.1067 62.8934C26.1333 63.2132 28.0533 62.8934 28.9067 62.6802C29.2267 62.5736 29.44 62.2538 29.44 61.934L29.3333 58.9492Z" fill="white"/>
<path d="M2.66666 59.0558L2.56 61.934C2.56 62.2538 2.77333 62.5736 3.09333 62.6802C4.05333 62.8934 5.86666 63.2132 7.89333 62.8934C8.21333 62.8934 8.53333 62.5736 8.53333 62.2538L8.74666 59.269C6.50666 59.3756 4.48 59.269 2.66666 59.0558Z" fill="white"/>
<path d="M27.7333 0C18.3467 1.70558 9.6 1.06599 4.16 0C3.84 0 3.62666 0.213198 3.52 0.426396L3.41333 3.83756C8.96 5.01015 18.4533 5.75635 28.6933 3.83756L28.3733 0.426396C28.2667 0.106599 28.0533 0 27.7333 0Z" fill="white"/>
<path opacity="0.5" d="M29.3333 58.9492C32.64 56.3909 32.1067 33.4721 31.4667 21C30.8267 8.52791 28.5867 3.94415 28.5867 3.94415V3.83755C18.3467 5.75634 8.85333 5.01014 3.30666 3.83755V3.94415C3.30666 3.94415 0.959997 8.63451 0.426663 21C-0.213337 33.4721 -0.640004 56.4975 2.66666 58.9492C4.48 59.1624 6.50666 59.269 8.74666 59.1624C8.74666 59.1624 11.52 59.1624 13.8667 42.533C15.1467 33.2589 15.7867 28.8883 16 26.8629C16.2133 28.8883 16.8533 33.2589 18.1333 42.533C20.48 59.1624 23.2533 59.1624 23.2533 59.1624V59.269C25.4933 59.3756 27.6267 59.1624 29.3333 58.9492Z" fill="white"/>
<path d="M13.12 20.3604C12.6933 20.3604 12.3733 19.934 12.3733 19.6142C12.3733 19.5076 12.3733 19.5076 14.2933 4.37055C14.2933 3.94415 14.72 3.62436 15.1467 3.73096C15.5733 3.83756 15.8933 4.15735 15.7867 4.58375C15.1467 9.5939 13.8667 19.2944 13.8667 19.6142C13.8667 20.0406 13.5467 20.3604 13.12 20.3604Z" fill="white"/>
<path d="M18.88 16.203C18.4533 16.203 18.1333 15.8832 18.1333 15.4568C18.1333 15.2436 16.96 8.84771 16.32 4.58375C16.2133 4.15735 16.5333 3.73096 16.96 3.73096C17.3867 3.62436 17.8133 3.94415 17.8133 4.37055C19.7333 15.3502 19.7333 15.4568 19.7333 15.5634C19.6267 15.7766 19.3067 16.203 18.88 16.203Z" fill="white"/>
</g>
<defs>
<clipPath id="clip0_310_323">
<rect width="32" height="63" fill="white"/>
</clipPath>
</defs>
</svg>
