<svg width="31" height="55" viewBox="0 0 31 55" fill="none" xmlns="http://www.w3.org/2000/svg">
<g opacity="0.15" clip-path="url(#clip0_315_367)">
<path opacity="0.5" d="M28.2585 6.06464H2.84692V46.5304H28.2585V6.06464Z" fill="white"/>
<path d="M25.2007 0H5.90476C2.63605 0 0 2.61407 0 5.85551V49.1445C0 52.3859 2.63605 55 5.90476 55H25.2007C28.4694 55 31.1054 52.3859 31.1054 49.1445V5.85551C31 2.61407 28.4694 0 25.2007 0ZM11.915 2.50951H19.1905C19.4014 2.50951 19.6122 2.71863 19.6122 3.03232C19.6122 3.34601 19.4014 3.55513 19.1905 3.55513H11.915C11.7041 3.55513 11.4932 3.34601 11.4932 3.03232C11.4932 2.82319 11.7041 2.50951 11.915 2.50951ZM15.5 52.9087C14.1293 52.9087 13.0748 51.8631 13.0748 50.5038C13.0748 49.1445 14.1293 48.0989 15.5 48.0989C16.8707 48.0989 17.9252 49.1445 17.9252 50.5038C17.9252 51.8631 16.8707 52.9087 15.5 52.9087ZM28.2585 46.5304H2.84694V6.06464H28.2585V46.5304Z" fill="white"/>
</g>
<defs>
<clipPath id="clip0_315_367">
<rect width="31" height="55" fill="white"/>
</clipPath>
</defs>
</svg>
