<svg width="18" height="18" viewBox="0 0 18 18" fill="none" xmlns="http://www.w3.org/2000/svg">
	<path d="M16.3543 0H1.64571C0.72 0 0 0.72 0 1.64571V4.62857C0 5.04 0.205714 5.34857 0.514286 5.55429L8.02286 10.4914C8.64 10.9029 9.46286 10.9029 10.08 10.4914L17.4857 5.55429C17.7943 5.34857 18 5.04 18 4.62857V1.64571C18 0.72 17.28 0 16.3543 0ZM9.05143 8.02286C8.12572 8.02286 7.40571 7.30286 7.40571 6.37714C7.40571 5.45143 8.12572 4.73143 9.05143 4.73143C9.97714 4.73143 10.6971 5.45143 10.6971 6.37714C10.6971 7.30286 9.87429 8.02286 9.05143 8.02286Z" fill="white" />
	<path d="M7.40572 12.3429L0.92572 8.12571V14.6057C0.92572 16.1486 2.16001 17.3829 3.70286 17.3829H14.4C15.9429 17.3829 17.1772 16.1486 17.1772 14.6057V8.12571L10.5943 12.3429C9.66858 12.96 8.33143 12.96 7.40572 12.3429Z" fill="white" />
</svg>
