<svg width="63" height="47" viewBox="0 0 63 47" fill="none" xmlns="http://www.w3.org/2000/svg">
<g opacity="0.15" clip-path="url(#clip0_305_262)">
<path opacity="0.5" d="M13.2 26.9C9.89999 28.4 9.99999 28.3 9.99999 28.3C7.39999 30.5 4.79999 32.4 2.39999 33.8C0.599994 36 2.99999 38.3 9.09999 37.6C12.4 37.2 17.5 36.4 22.8 35C21.7 33.6 19.3 30.7 18.2 29.1C16.7 26.9 16.5 25.4 13.2 26.9Z" fill="white"/>
<path opacity="0.5" d="M15.9 24.4C17.3 24.2 18.2 25.3 18.2 25.3L36.6 6.2C37 5.8 37.7 5.6 38.2 5.9C39 6.3 40.1 7 41.5 8.5L41.8 8.8C41.8 8.8 44.4 12.4 50.5 9.8C54 8.3 55.2 1.1 52.6 0C52.1 0 51.7 0.2 51.2 0.5C48.6 2.3 43.4 5.6 39.5 6C39.5 6 37.1 0.3 35.3 1.8C35.3 1.8 24.5 15.1 13.7 25.1C14.3 24.8 15.2 24.5 15.9 24.4Z" fill="white"/>
<path opacity="0.5" d="M61.4 14.8C61.1 13.8 58.8 6.79999 56.7 4.89999C56.8 8.49999 56.3 12 52.6 13.8C48.8 15.6 43.6 16.8 37.8 12.8C37.8 12.8 28.7 23 20.8 29.1L24.9 34.5C28.8 33.4 32.7 32.1 35.9 30.5C43.6 26.6 58.3 18.9 61.4 14.8Z" fill="white"/>
<path opacity="0.36" d="M37.8 12.8C43.6 16.7 48.8 15.6 52.6 13.8C56.4 12 56.8 8.39999 56.7 4.89999C56.7 4.89999 56.4 3.19999 55.6 1.69999C55 0.599991 53.8 -8.80659e-06 52.7 0.0999912C55.4 1.19999 54.2 8.29999 50.6 9.89999C44.5 12.6 41.9 8.89999 41.9 8.89999L41.6 8.59999C40.1 6.99999 39 6.29999 38.3 5.89999C37.7 5.59999 37.1 5.69999 36.7 6.19999L18.3 25.3C18.3 25.3 17.4 24.3 16 24.4C15.2 24.5 14.4 24.8 13.8 25.1C12.6 26.2 11.4 27.3 10.2 28.3C10.2 28.3 10 28.4 13.4 26.9C16.7 25.4 16.9 26.9 18.4 29.1C19.5 30.7 21.8 33.6 23 35C23.7 34.8 24.4 34.6 25 34.5L20.9 29.1C28.7 23 37.8 12.8 37.8 12.8Z" fill="white"/>
<path d="M16.9 21.9C16.9 21.8 16.8 21.7 16.8 21.6C16.8 21.5 16.9 21.4 16.9 21.3C17.2 20.8 17.5 20.3 17.9 20C17.9 20 18 19.9 18.1 19.9C18.2 19.9 18.2 20 18.2 20C19 21.2 19.7 22.4 20.3 23.8C20.4 24 20.5 24.1 20.4 24.3C20.4 24.6 20.2 24.7 20 24.9C19.7 25.1 19.3 25.4 19 25.3C18.6 25.2 18.5 24.8 18.3 24.5C17.8 23.7 17.3 22.8 16.9 21.9Z" fill="white"/>
<path d="M34.7 10.1C34.6 9.79999 34.4 9.49999 34 9.29999C33.7 9.19999 33.4 9.19999 33.1 9.19999C32.8 9.19999 32.4 9.19999 31.9 9.29999C31.6 8.59999 31.3 7.99999 31.1 7.49999C31 7.19999 30.8 6.99999 30.6 6.69999C30.5 6.49999 30.3 6.49999 30.1 6.69999C30 6.79999 29.7 6.99999 29.6 7.29999C29.5 7.49999 29.3 7.59999 29.4 7.79999C29.4 7.89999 29.5 7.99999 29.5 8.09999C29.6 8.59999 29.8 8.99999 30 9.39999C29.5 9.39999 29.1 9.49999 28.8 9.49999C28.7 9.49999 28.7 9.49999 28.6 9.49999C28.5 9.39999 28.4 9.19999 28.3 9.09999C28.2 8.89999 28 8.89999 27.8 9.09999C27.6 9.29999 27.4 9.49999 27.2 9.69999C27.1 9.89999 26.9 9.99999 27 10.2C27 10.3 27.1 10.4 27.1 10.5C27.3 11.1 27.6 11.6 27.9 12.2C27.3 12.2 26.8 12.3 26.4 12.3C26.3 12.1 26.2 12 26.1 11.8C26 11.6 25.8 11.6 25.6 11.8C25.4 12 25.2 12.2 25 12.4C24.9 12.6 24.7 12.7 24.8 12.9C24.8 13 24.9 13.1 24.9 13.2C25.1 13.7 25.4 14.3 25.6 14.8C25.1 14.8 24.6 14.8 24.2 14.8C24 14.8 23.9 14.8 23.7 14.8C23.6 14.7 23.5 14.5 23.5 14.4C23.4 14.2 23.2 14.2 23 14.4C22.8 14.6 22.6 14.8 22.4 15C22.3 15.2 22.1 15.3 22.2 15.5C22.2 15.6 22.3 15.7 22.3 15.8C22.5 16.4 22.8 16.9 23.1 17.5C22.6 17.4 22.1 17.3 21.7 17.2C21.5 17.2 21.2 17.1 21 17.1C21 17.1 21 17 20.9 17C20.8 16.8 20.6 16.8 20.4 17C20.2 17.2 20 17.4 19.8 17.6C19.7 17.8 19.5 17.9 19.6 18.1C19.6 18.2 19.7 18.3 19.7 18.4C20 19.1 20.3 19.7 20.6 20.4C20.2 20.3 19.8 20.2 19.5 20.2C19.2 20.1 18.9 20.1 18.6 20.1C18.5 20 18.4 19.9 18.4 19.7C18.4 19.6 18.3 19.6 18.3 19.6C18.2 19.6 18.2 19.6 18.1 19.7C17.7 20 17.4 20.5 17.1 21C17.1 21.1 17 21.2 17 21.3C17 21.4 17 21.5 17.1 21.6C17.6 22.5 18 23.4 18.6 24.3C18.8 24.6 18.9 25 19.3 25.1C19.7 25.2 20.1 24.9 20.3 24.7C20.5 24.5 20.7 24.4 20.7 24.1C20.7 23.9 20.6 23.7 20.6 23.6C20.4 23.2 20.2 22.8 20 22.4C20.8 22.6 21.5 22.7 22.3 22.9C22.8 23 24.2 23.4 24.7 23.4C25.2 23.4 25.2 23.1 25.2 22.6C25.2 22.3 25 21.9 24.8 21.7C24.6 21.5 24.3 21.4 24 21.4C23.7 21.3 23.4 21.2 23 21.1C23 21 22.9 20.9 22.9 20.8C22.7 20.3 22.5 19.9 22.3 19.4C23.1 19.6 23.8 19.7 24.6 19.9C25.1 20 26.5 20.4 27 20.4C27.5 20.4 27.5 20.1 27.5 19.6C27.5 19.3 27.3 18.9 27.1 18.7C26.9 18.5 26.6 18.4 26.3 18.4C26.1 18.3 25.8 18.3 25.6 18.2C25.4 17.8 25.2 17.3 25 16.9C25.6 16.9 26.3 16.9 26.9 16.9C26.9 16.9 26.9 17 27 17C27.3 17.4 27.6 17.2 27.9 17C27.9 17 28 17 28 16.9C28.6 16.9 29.7 17 30.1 16.9C30.6 16.8 30.6 16.5 30.5 16C30.4 15.7 30.2 15.3 29.9 15.2C29.6 15.1 29.3 15 29 15C28.7 15 28.4 15 28 15C27.9 14.8 27.8 14.5 27.7 14.3C28.2 14.3 28.7 14.2 29.2 14.2L29.3 14.3C29.6 14.7 29.9 14.5 30.2 14.3C30.3 14.2 30.4 14.2 30.4 14.1C31 14.1 32 14 32.4 13.9C32.9 13.8 32.8 13.4 32.7 12.9C32.7 12.8 32.6 12.7 32.6 12.6C32.7 12.6 32.8 12.5 32.9 12.4C33.2 12.2 33.4 12 33.4 11.6C33.4 11.4 33.4 11.2 33.3 11C33.9 11 34.6 10.9 34.9 10.8C34.9 10.9 34.8 10.6 34.7 10.1ZM29.8 12.2C29.7 12 29.6 11.7 29.5 11.5C30 11.5 30.4 11.4 30.9 11.4C31 11.7 31.1 11.9 31.2 12.1C31 12.1 30.9 12.1 30.7 12.1C30.5 12.2 30.2 12.2 29.8 12.2Z" fill="white"/>
<path d="M61.4 14.9C61.4 14.9 61.4 14.9 61.4 14.8C59.3 17.6 51.8 22.1 44.8 25.9L34.4 16.6C36.5 14.4 37.9 12.8 37.9 12.8C43.7 16.7 48.9 15.6 52.7 13.8C56.5 12 56.9 8.39999 56.8 4.89999C56.8 4.89999 56.5 3.19999 55.7 1.69999C55.1 0.599991 53.9 -8.80659e-06 52.8 0.0999912C55.5 1.19999 54.3 8.29999 50.7 9.89999C44.6 12.6 42 8.89999 42 8.89999L41.7 8.59999C40.1 6.99999 39 6.29999 38.3 5.89999C37.7 5.59999 37.1 5.69999 36.7 6.19999L18.3 25.3C18.3 25.3 17.4 24.3 16 24.4C15.2 24.5 14.4 24.8 13.8 25.1C12.6 26.2 11.4 27.3 10.2 28.3C10.2 28.3 10 28.4 13.4 26.9C16.7 25.4 16.9 26.9 18.4 29.1C19.5 30.7 21.8 33.6 23 35C17.7 36.3 12.6 37.2 9.3 37.6C3 38.3 0.600002 36 2.5 33.9C0.400002 35.3 -0.499997 37.3 0.300003 40.5C1 43.7 1 43.8 1 43.8C1 43.8 1.8 47.2 13.5 45.8C25.2 44.4 32.7 40.9 44.6 34.3C56.5 27.7 61.3 25.9 62.9 23.1C62.9 23 63.3 19.9 61.4 14.9ZM24.8 34.4L20.7 29C25 25.7 29.6 21.3 32.9 17.9L42.5 27C40 28.3 37.7 29.5 35.8 30.4C32.6 32.1 28.7 33.4 24.8 34.4Z" fill="white"/>
</g>
<defs>
<clipPath id="clip0_305_262">
<rect width="62.9" height="46.1" fill="white"/>
</clipPath>
</defs>
</svg>
