<svg width="74" height="74" viewBox="0 0 74 74" fill="none" xmlns="http://www.w3.org/2000/svg">
<path fill-rule="evenodd" clip-rule="evenodd" d="M26.0816 59.6679L26.0731 59.6645C23.1774 58.5062 20.7082 56.8717 18.6822 54.7556L18 54.0431L27.541 44.6547L28.2205 45.614C28.8156 46.4542 29.7621 47.2072 31.1374 47.8376C32.5065 48.4226 33.9051 48.712 35.3405 48.712C36.5097 48.712 37.5004 48.5173 38.3338 48.1549L38.3408 48.1519L38.3479 48.1489C39.2172 47.7867 39.8434 47.2824 40.2752 46.6513L40.2851 46.6369L40.2954 46.6228C40.7484 46.0081 40.9965 45.2425 40.9965 44.272C40.9965 43.3015 40.7484 42.5359 40.2954 41.9212C39.8304 41.2901 39.1454 40.7761 38.1815 40.4053C37.2148 40.0335 36.0199 39.832 34.5725 39.832C33.7686 39.832 32.8949 39.8923 31.9498 40.0156L31.9305 40.0181L31.911 40.0199C31.0411 40.099 30.4424 40.2303 30.0647 40.3806L28.6445 41.118V32.2569L34.3821 25.496H21.7965V13L54.3245 13V21.227L45.8669 30.781C46.9787 31.0695 48.0332 31.5016 49.0271 32.0795C51.0331 33.2457 52.6098 34.9226 53.7574 37.0786C54.918 39.2161 55.4765 41.7331 55.4765 44.592C55.4765 47.884 54.6394 50.8307 52.944 53.3976C51.2937 55.9179 48.944 57.8675 45.939 59.2584C42.9632 60.6555 39.4847 61.336 35.5325 61.336C32.1781 61.336 29.0279 60.7839 26.0903 59.6712L26.0816 59.6679ZM45.5165 58.352C48.3752 57.0293 50.5725 55.1947 52.1085 52.848C53.6872 50.4587 54.4765 47.7067 54.4765 44.592C54.4765 41.8613 53.9432 39.5147 52.8765 37.552C51.8098 35.5467 50.3592 34.0107 48.5245 32.944C47.4661 32.3286 46.3296 31.8908 45.1149 31.6304C44.7342 31.5488 44.3459 31.4846 43.9498 31.4379L53.3245 20.848V14L22.7965 14V24.496H36.5423L29.6445 32.624V39.472C29.9173 39.3583 30.2506 39.2628 30.6445 39.1855C30.8288 39.1493 31.0264 39.1171 31.2372 39.0889C31.4215 39.0642 31.6159 39.0426 31.8205 39.024C32.1907 38.9757 32.5518 38.9365 32.9037 38.9065C33.4848 38.8568 34.0411 38.832 34.5725 38.832C36.1085 38.832 37.4312 39.0453 38.5405 39.472C39.6498 39.8987 40.5032 40.5173 41.1005 41.328C41.6978 42.1387 41.9965 43.12 41.9965 44.272C41.9965 45.424 41.6978 46.4053 41.1005 47.216C40.5458 48.0267 39.7565 48.6453 38.7325 49.072C37.7512 49.4987 36.6205 49.712 35.3405 49.712C33.7618 49.712 32.2258 49.392 30.7325 48.752C29.6289 48.2475 28.735 47.6498 28.0509 46.9589C27.8093 46.7149 27.5938 46.4593 27.4045 46.192L19.4045 54.064C19.6352 54.305 19.8722 54.5396 20.1152 54.7676C21.8947 56.4372 24.0045 57.76 26.4445 58.736C29.2605 59.8027 32.2898 60.336 35.5325 60.336C39.3725 60.336 42.7005 59.6747 45.5165 58.352Z" fill="white" fill-opacity="0.15"/>
</svg>
