<svg width="74" height="74" viewBox="0 0 74 74" fill="none" xmlns="http://www.w3.org/2000/svg">
<path fill-rule="evenodd" clip-rule="evenodd" d="M18.7425 53.0758V61.336H55.3665V48.84H41.8564L47.1822 43.782C48.8398 42.2116 50.2092 40.6689 51.2795 39.1527L51.2872 39.1415C52.3615 37.5748 53.1563 35.969 53.6588 34.3242C54.1596 32.6855 54.4065 30.9436 54.4065 29.104C54.4065 25.8428 53.6909 22.9712 52.2183 20.5293C50.7893 18.0889 48.7166 16.2309 46.0365 14.957C43.3947 13.6382 40.2718 13 36.7025 13C32.7671 13 29.2148 13.7969 26.0691 15.4147L26.0639 15.4174C22.9529 17.0406 20.4134 19.4288 18.4479 22.5558L18 23.2683L27.801 32.0892L28.4439 31.1346C29.8229 29.0871 31.0626 27.7333 32.1502 26.9832L32.1597 26.9767L32.169 26.9699C33.2454 26.1905 34.3861 25.816 35.6145 25.816C37.0459 25.816 38.0549 26.2065 38.764 26.8834L38.7808 26.8994L38.7983 26.9146C39.5277 27.5488 39.9265 28.4285 39.9265 29.68C39.9265 30.1552 39.8422 30.6095 39.6731 31.049L39.6608 31.0811L39.6507 31.1139C39.5225 31.5306 39.2659 32.0279 38.8401 32.6086L38.8328 32.6188C38.4479 33.1576 37.9118 33.7765 37.2114 34.4769L18.7425 53.0758ZM19.7425 53.488V60.336H54.3665V49.84H39.3513L46.4945 43.056C48.1158 41.52 49.4385 40.0267 50.4625 38.576C51.4865 37.0827 52.2332 35.568 52.7025 34.032C53.1718 32.496 53.4065 30.8533 53.4065 29.104C53.4065 25.9893 52.7238 23.3013 51.3585 21.04C50.0358 18.7787 48.1158 17.0507 45.5985 15.856C43.1238 14.6187 40.1585 14 36.7025 14C32.9052 14 29.5132 14.768 26.5265 16.304C23.5825 17.84 21.1718 20.1013 19.2945 23.088L27.6145 30.576C27.808 30.2886 28 30.0129 28.1903 29.7489C29.3845 28.0923 30.5152 26.896 31.5825 26.16C32.8198 25.264 34.1638 24.816 35.6145 24.816C37.2358 24.816 38.5158 25.264 39.4545 26.16C40.4358 27.0133 40.9265 28.1867 40.9265 29.68C40.9265 30.2773 40.8198 30.8533 40.6065 31.408C40.4358 31.9627 40.1158 32.56 39.6465 33.2C39.2198 33.7973 38.6438 34.4587 37.9185 35.184L19.7425 53.488Z" fill="white" fill-opacity="0.15"/>
</svg>
