<svg width="41" height="54" viewBox="0 0 41 54" fill="none" xmlns="http://www.w3.org/2000/svg">
<g opacity="0.15" clip-path="url(#clip0_305_258)">
<path d="M24.1 7.20001C23.6 9.10001 24.1 10.8 24.3 11.3C24.3 11.4 24.3 11.5 24.2 11.6C23.9 11.8 23.3 12.2 22.6 11.9C20.5 10.7 18 10 15.4 10C13.1 10 10.8 10.6 8.8 11.6L10.3 7.50001H9.6H9C9 7.50001 7.5 10.5 6.1 12.6C5.5 13.5 5 14.2 4.6 14.8C1.8 17.9 0 22.2 0 27C0 31.8 1.8 36.1 4.7 39.1C5.1 39.7 5.6 40.4 6.2 41.3C7.6 43.4 9 46.4 9 46.4H9.6H10.4L9 42.3C11 43.3 13.2 43.9 15.6 43.9C18.2 43.9 20.6 43.2 22.8 42C23.5 41.7 24.1 42 24.4 42.3C24.5 42.4 24.5 42.5 24.5 42.6C24.3 43.1 23.8 44.8 24.3 46.7C24.3 46.7 25.5 46.8 25.9 46.8C26.4 46.8 26.9 45.3 27.2 44C27.5 42.7 28.4 40.2 30.7 37.1C32.9 34 33.7 30 33.7 27H33.6H33.7C33.7 24 32.8 20 30.6 16.8C28.3 13.6 27.4 11.1 27.1 9.90001C26.8 8.70001 26.2 7.00001 25.8 7.10001C25.3 7.10001 24.1 7.20001 24.1 7.20001ZM27.9 27C27.9 34.5 22.4 40.5 15.5 40.5C12.8 40.5 10.4 39.6 8.4 38C5.2 35.6 3.2 31.5 3.2 27C3.2 22.4 5.3 18.4 8.4 16C10.4 14.4 12.9 13.5 15.5 13.5C22.4 13.5 27.9 19.5 27.9 27Z" fill="white"/>
<path opacity="0.5" d="M19 0.4C14.9 0.5 10.8 3.4 9.29999 7.1L9.59999 7.6H10.4L8.99999 11.6C13.1 9.4 18.7 9.5 22.7 11.9C23.4 12.2 24 11.9 24.3 11.6C24.4 11.5 24.4 11.4 24.4 11.3C24.2 10.8 23.8 9.3 24.1 7.6C24.1 7.4 24.3 7.2 24.5 7.2C24.9 7.2 25.5 7.1 25.8 7.1C26 7.1 26.1 7.3 26.3 7.6C26.8 6 27.4 4.7 28 3.7C28.2 3.3 28.7 3.2 29.1 3.4C33.7 7.3 37.3 18.2 37.2 27C37.3 35.8 33.8 46.7 29.1 50.6C28.7 50.8 28.3 50.6 28 50.3C27.4 49.3 26.8 48 26.2 46.5C26 46.8 25.9 47 25.7 47C25.4 47 24.8 46.9 24.4 46.9C24.2 46.9 24 46.7 24 46.5C23.7 44.8 24.1 43.3 24.3 42.8C24.3 42.7 24.3 42.6 24.2 42.5C23.9 42.3 23.3 41.9 22.6 42.2C18.6 44.6 13 44.7 8.89999 42.5L10.4 46.6H9.59999L9.29999 47.1C10.8 50.8 14.9 53.7 19 53.8C21.7 53.9 27.1 54.2 29.3 54.2C30.1 54.2 31.2 53.7 32.3 52.6C36.5 47.4 40.5 37.9 40.3 27.2C40.5 16.9 36.6 6.7 32.3 1.8C31.2 0.7 30.1 0.2 29.3 0.2C27.1 -3.05474e-07 21.7 0.2 19 0.4Z" fill="white"/>
</g>
<defs>
<clipPath id="clip0_305_258">
<rect width="40.3" height="53.9" fill="white"/>
</clipPath>
</defs>
</svg>
