<svg width="62" height="43" viewBox="0 0 62 43" fill="none" xmlns="http://www.w3.org/2000/svg">
<g opacity="0.15" clip-path="url(#clip0_318_376)">
<path d="M4.77776 36.4949C6.88887 32.4154 11.2222 23.2641 12.8889 16.759C13.2222 15.4359 14.4444 14.4436 15.8889 14.4436H20.5555C22.1111 14.4436 23.1111 16.0974 22.4444 17.4205C21.5555 19.1846 20.4444 21.8308 19 25.8C16.7778 31.8641 15.3333 35.5026 14.6666 37.2667C14.3333 38.1487 13.5555 38.7 12.6666 38.7H6.11109C4.99998 38.7 4.2222 37.4872 4.77776 36.4949Z" fill="white"/>
<path d="M61.4444 2.97692H61.2222C61.2222 2.20513 60.5555 1.65385 59.7778 1.65385H58.8889L57.5555 0.110256H56.2222L55.8889 1.65385H10.2222L9.77777 0H6.77777L6.55555 1.7641H6.22222C5.44444 1.7641 4.77777 2.42564 4.77777 3.19744V7.71795H7.44444V2.97692H8.77777V7.71795H9.99999V2.97692H11.3333V7.71795H12.5555V2.97692H13.8889V7.71795H15.1111V2.97692H16.4444V7.71795H17.7778V2.97692H19.1111V7.71795H61.3333V6.8359H61.5555C61.7778 6.8359 62 6.61538 62 6.39487V3.52821C62 3.19744 61.7778 2.97692 61.4444 2.97692Z" fill="white"/>
<path opacity="0.5" d="M61.2222 8.15898V7.71796H4.88888L4.77777 8.26924C4.77777 8.26924 3.88888 8.82052 3.88888 9.70257C3.88888 10.5846 4.33332 11.2462 5.1111 11.3564C5.88888 11.4667 7.22221 11.1359 8.77777 13.1205C10.3333 15.1051 9.66666 18.3026 6.33332 25.0282C2.99999 31.7539 1.22221 33.8487 0.222214 37.5974C-0.666675 41.3462 0.777769 43 3.44444 43C6.1111 43 9.66666 43 14.4444 43C14.7778 43 15.2222 43 15.4444 42.8898C16.3333 42.8898 17.3333 42.6692 18.2222 42.118C19.3333 41.4564 19.5555 40.1333 19.3333 39.5821C19.1111 39.0308 19.1111 38.0385 19.4444 37.0462C19.5555 36.7154 19.6667 36.3846 19.7778 36.0539C20 35.6128 20.3333 34.9513 20.8889 34.7308C21.7778 34.2898 22 34.1795 21.7778 33.7385C21.5555 33.2974 21.1111 32.5257 21.4444 31.5333C21.5555 31.2026 21.6667 30.9821 21.7778 30.6513C21.7778 30.541 22.3333 29.3282 23 28.9974C23.8889 28.5564 24.1111 28.4462 23.8889 28.0051C23.6667 27.4539 23.4444 26.6821 23.7778 25.5795C23.8889 25.359 24 25.1385 24 25.0282C24.2222 24.5872 24.3333 24.2564 24.5555 23.8154C24.5555 23.8154 25.2222 22.2718 26.3333 22.1615C27.4444 22.0513 27.7778 22.8231 30.7778 23.0436C32.5555 23.1539 40 23.1539 41.6667 23.1539C43.3333 23.1539 43.4444 22.7128 43 22.0513C42.5555 21.3898 42.3333 20.7282 42.3333 19.9564C42.3333 19.1846 42.3333 19.5154 42.3333 17.4205C42.3333 15.3256 43.7778 13.6718 46.2222 13.6718C46.4444 13.6718 46.5555 13.6718 46.7778 13.6718V10.6949C46.7778 10.1436 47 9.70257 47.3333 9.3718L47.4444 9.26155L47.5555 9.3718C47.8889 9.70257 48.1111 10.2539 48.1111 10.6949V13.2308C51 13.1205 50.3333 13.1205 52.8889 13.0103V11.9077H54.8889V13.0103C56.8889 13.0103 58.6667 12.9 59.6667 12.9C60.4444 12.9 61 12.3487 61 11.5769V11.2462H61.2222C61.4444 11.2462 61.6667 11.0256 61.6667 10.8051V8.60001C61.6667 8.3795 61.4444 8.15898 61.2222 8.15898ZM37.4444 21.5C34.4444 21.7205 32.5555 21.7205 30.8889 21.6103C29.2222 21.5 27.4444 21.1692 27.3333 18.0821C27.3333 17.641 27.3333 17.3103 27.4444 16.8692C28.1111 17.4205 29.4444 17.7513 29.4444 17.7513C30.1111 19.2949 31.3333 20.2872 31.7778 20.618C31.8889 20.7282 32 20.7282 32.1111 20.618L32.4444 20.3974C32.5555 20.2872 32.5555 20.1769 32.4444 20.0667C32.2222 19.8462 32 19.2949 31.7778 18.3026C31.4444 16.9795 31.8889 14.8846 32 14.2231C32.1111 14.2231 32.1111 14.2231 32.2222 14.2231C35.5555 13.8923 38 13.341 39.3333 14.3333C40.3333 15.1051 40.6667 15.8769 40.6667 17.7513C40.6667 19.6256 40.4444 21.3898 37.4444 21.5Z" fill="white"/>
</g>
<defs>
<clipPath id="clip0_318_376">
<rect width="62" height="43" fill="white"/>
</clipPath>
</defs>
</svg>